<svg width="20" height="21" viewBox="0 0 20 21" fill="none" xmlns="http://www.w3.org/2000/svg">
<path d="M13.9525 0.93692H6.19187C3.00624 0.93692 0.414551 3.52864 0.414551 6.71427V14.4749C0.414551 17.6605 3.00624 20.2522 6.19183 20.2522H13.9525C17.1381 20.2522 19.7298 17.6605 19.7298 14.4749V6.71427C19.7298 3.52864 17.1381 0.93692 13.9525 0.93692ZM7.96589 15.8873C8.18681 16.1082 8.18681 16.4664 7.96589 16.6873C7.85544 16.7977 7.71065 16.853 7.56593 16.853C7.42118 16.853 7.27639 16.7978 7.16597 16.6873L6.06794 15.5892L4.96991 16.6873C4.85949 16.7977 4.71466 16.853 4.56995 16.853C4.42516 16.853 4.28044 16.7978 4.16998 16.6873C3.94906 16.4664 3.94906 16.1082 4.16998 15.8873L5.26801 14.7892L4.16998 13.6912C3.94906 13.4703 3.94906 13.1121 4.16998 12.8912C4.39086 12.6703 4.74907 12.6703 4.96998 12.8912L6.06801 13.9892L7.16604 12.8912C7.38693 12.6703 7.74513 12.6703 7.96605 12.8912C8.18696 13.1121 8.18696 13.4703 7.96605 13.6912L6.86802 14.7892L7.96589 15.8873ZM8.1864 7.33549H6.63352V8.88834C6.63352 9.20074 6.38023 9.45403 6.06783 9.45403C5.75542 9.45403 5.50214 9.20074 5.50214 8.88834V7.33549H3.94929C3.63689 7.33549 3.3836 7.08221 3.3836 6.76981C3.3836 6.4574 3.63689 6.20412 3.94929 6.20412H5.50214V4.65123C5.50214 4.33883 5.75542 4.08554 6.06783 4.08554C6.38023 4.08554 6.63352 4.33883 6.63352 4.65123V6.20408H8.18636C8.49876 6.20408 8.75205 6.45737 8.75205 6.76977C8.75209 7.08221 8.4988 7.33549 8.1864 7.33549ZM16.0534 16.4863H11.8163C11.5039 16.4863 11.2506 16.233 11.2506 15.9206C11.2506 15.6082 11.5039 15.3549 11.8163 15.3549H16.0534C16.3658 15.3549 16.6191 15.6082 16.6191 15.9206C16.6191 16.233 16.3658 16.4863 16.0534 16.4863ZM16.0534 14.2235H11.8163C11.5039 14.2235 11.2506 13.9702 11.2506 13.6578C11.2506 13.3454 11.5039 13.0921 11.8163 13.0921H16.0534C16.3658 13.0921 16.6191 13.3454 16.6191 13.6578C16.6191 13.9703 16.3658 14.2235 16.0534 14.2235ZM16.0534 7.33549H11.8163C11.5039 7.33549 11.2506 7.08221 11.2506 6.76981C11.2506 6.4574 11.5039 6.20412 11.8163 6.20412H16.0534C16.3658 6.20412 16.6191 6.4574 16.6191 6.76981C16.6191 7.08221 16.3658 7.33549 16.0534 7.33549Z" fill="white"/>
</svg>
