<svg width="39" height="38" viewBox="0 0 39 38" fill="none" xmlns="http://www.w3.org/2000/svg">
<g clip-path="url(#clip0_1_4838)">
<path d="M26.0682 15.6602L22.2413 8.98047H16.8827L13.4034 15.6602H26.0682Z" fill="white"/>
<path d="M13.2063 17.8867L19.4772 34.9918L26.6782 17.8867H13.2063Z" fill="white"/>
<path d="M0.500122 17.8867L18.1845 38L18.1972 37.9713L10.8122 17.8867H0.500122Z" fill="white"/>
<path d="M14.3729 8.98047H5.54555L0.500122 15.6602H10.8936L14.3729 8.98047Z" fill="white"/>
<path d="M28.6354 15.6602H38.5002L33.4559 8.98047H24.8085L28.6354 15.6602Z" fill="white"/>
<path d="M20.6157 37.8678L20.6679 38L38.5001 17.8867H29.1236L20.6157 37.8678Z" fill="white"/>
<path d="M18.3868 0H20.6134V3.33984H18.3868V0Z" fill="white"/>
<path d="M13.6528 2.60522L15.8794 4.83179L14.3051 6.40604L12.0786 4.17947L13.6528 2.60522Z" fill="white"/>
<path d="M25.4376 2.60498L27.0119 4.17923L24.7856 6.40579L23.2114 4.83154L25.4376 2.60498Z" fill="white"/>
</g>
<defs>
<clipPath id="clip0_1_4838">
<rect width="38" height="38" fill="white" transform="translate(0.500122)"/>
</clipPath>
</defs>
</svg>
