<svg width="24" height="24" viewBox="0 0 24 24" fill="none" xmlns="http://www.w3.org/2000/svg">
<path fill-rule="evenodd" clip-rule="evenodd" d="M12 5.70507C14.2091 5.70507 16 7.40515 16 9.50231C16 10.8327 15.2793 12.0033 14.1883 12.6814C16.8312 13.5064 18.7791 15.785 18.9824 18.5208C19.0019 18.7824 18.7761 18.9954 18.5 18.9954C18.2239 18.9954 18.0022 18.7822 17.9795 18.5209C17.7255 15.5972 15.1454 13.2995 12 13.2995C8.85464 13.2995 6.27455 15.5972 6.02054 18.5209C5.99785 18.7822 5.77616 18.9954 5.50002 18.9954C5.22388 18.9954 4.99816 18.7824 5.01759 18.5208C5.22093 15.785 7.16883 13.5064 9.81168 12.6814C8.72071 12.0033 8.00002 10.8327 8.00002 9.50231C8.00002 7.40515 9.79088 5.70507 12 5.70507ZM12 12.3502C13.6569 12.3502 15 11.0752 15 9.50231C15 7.92944 13.6569 6.65438 12 6.65438C10.3431 6.65438 9.00002 7.92944 9.00002 9.50231C9.00002 11.0752 10.3431 12.3502 12 12.3502Z" fill="white"/>
</svg>
