<svg width="248" height="58" viewBox="0 0 248 58" fill="none" xmlns="http://www.w3.org/2000/svg">
<path d="M96.2869 20.3371V37.2217H91.8519V22.0031L92.8424 22.1157L86.3137 37.2217H81.5861L75.0349 22.1607L76.0479 22.0481V37.2217H71.6129V20.3371H78.817L84.8729 34.8353H83.0719L89.0828 20.3371H96.2869ZM106.565 37.5819C104.914 37.5819 103.474 37.3042 102.243 36.7489C101.012 36.1786 100.052 35.3831 99.3613 34.3626C98.6709 33.327 98.3257 32.1413 98.3257 30.8056C98.3257 29.4398 98.6709 28.2466 99.3613 27.226C100.052 26.2055 101.012 25.41 102.243 24.8397C103.474 24.2694 104.914 23.9842 106.565 23.9842C108.201 23.9842 109.635 24.2694 110.865 24.8397C112.111 25.41 113.079 26.2055 113.769 27.226C114.46 28.2466 114.805 29.4398 114.805 30.8056C114.805 32.1413 114.46 33.327 113.769 34.3626C113.079 35.3831 112.111 36.1786 110.865 36.7489C109.635 37.3042 108.201 37.5819 106.565 37.5819ZM106.565 34.1825C107.316 34.1825 107.954 34.0474 108.479 33.7772C109.019 33.5071 109.432 33.1169 109.717 32.6066C110.002 32.0963 110.145 31.4959 110.145 30.8056C110.145 30.0852 110.002 29.4773 109.717 28.982C109.432 28.4717 109.019 28.0815 108.479 27.8114C107.954 27.5412 107.316 27.4061 106.565 27.4061C105.815 27.4061 105.17 27.5412 104.629 27.8114C104.089 28.0815 103.676 28.4717 103.391 28.982C103.106 29.4773 102.963 30.0776 102.963 30.783C102.963 31.4884 103.106 32.0963 103.391 32.6066C103.676 33.1169 104.089 33.5071 104.629 33.7772C105.17 34.0474 105.815 34.1825 106.565 34.1825ZM116.741 37.2217V24.3669H121.288V34.7228L120.298 34.4076L127.029 24.3669H132.928V37.2217H128.402V26.5732L129.393 26.9109L122.482 37.2217H116.741ZM124.71 23.2863C123.134 23.2863 121.874 22.9111 120.928 22.1607C119.983 21.3952 119.397 20.2996 119.172 18.8738H122.684C122.804 19.4592 123.037 19.9094 123.382 20.2246C123.727 20.5398 124.17 20.6974 124.71 20.6974C125.251 20.6974 125.693 20.5398 126.039 20.2246C126.384 19.9094 126.609 19.4592 126.714 18.8738H130.249C130.023 20.2996 129.431 21.3952 128.47 22.1607C127.524 22.9111 126.271 23.2863 124.71 23.2863ZM141.056 37.2217V24.3669H145.671V33.6422L144.321 33.1694L151.48 24.3669H156.343L145.154 37.2217H141.056ZM151.525 37.2217L147.855 30.9406L151.322 28.5093L156.703 37.2217H151.525ZM159.971 24.3669H173.929V37.2217H169.314V25.6727L171.43 27.7889H162.268L164.204 26.0104C164.294 26.8959 164.361 27.6988 164.406 28.4192C164.451 29.1396 164.474 29.785 164.474 30.3553C164.474 32.8767 164.084 34.7003 163.303 35.8259C162.538 36.9365 161.292 37.4918 159.566 37.4918C159.056 37.4918 158.575 37.4393 158.125 37.3342C157.675 37.2292 157.232 37.0566 156.797 36.8165V33.5521C157.067 33.6572 157.33 33.7397 157.585 33.7997C157.855 33.8448 158.095 33.8673 158.305 33.8673C159.041 33.8673 159.559 33.5446 159.859 32.8992C160.159 32.2539 160.309 31.1958 160.309 29.7249C160.309 29.0195 160.279 28.2241 160.219 27.3386C160.174 26.4381 160.091 25.4475 159.971 24.3669ZM176.452 37.2217V24.3669H181V34.7228L180.009 34.4076L186.741 24.3669H192.639V37.2217H188.114V26.5732L189.104 26.9109L182.193 37.2217H176.452ZM202.725 37.5819C201.164 37.5819 199.769 37.2967 198.538 36.7264C197.322 36.1561 196.362 35.3606 195.656 34.3401C194.951 33.3045 194.598 32.1038 194.598 30.738C194.598 29.4023 194.936 28.2316 195.611 27.226C196.287 26.2055 197.21 25.41 198.38 24.8397C199.566 24.2694 200.902 23.9842 202.388 23.9842C203.934 23.9842 205.247 24.3219 206.327 24.9973C207.423 25.6577 208.263 26.5957 208.849 27.8114C209.449 29.0271 209.749 30.4604 209.749 32.1113H198.313V29.3422H207.16L205.652 30.3103C205.592 29.6499 205.427 29.0946 205.157 28.6443C204.887 28.1791 204.526 27.8264 204.076 27.5862C203.641 27.3461 203.116 27.226 202.5 27.226C201.825 27.226 201.247 27.3611 200.767 27.6313C200.286 27.9014 199.911 28.2766 199.641 28.7569C199.371 29.2222 199.236 29.77 199.236 30.4003C199.236 31.2108 199.416 31.9012 199.776 32.4715C200.151 33.0268 200.692 33.4546 201.397 33.7547C202.118 34.0549 202.996 34.205 204.031 34.205C204.977 34.205 205.915 34.0849 206.845 33.8448C207.791 33.5896 208.646 33.2369 209.412 32.7867V35.7133C208.526 36.3137 207.513 36.7789 206.372 37.1091C205.247 37.4243 204.031 37.5819 202.725 37.5819ZM211.716 24.3669H216.309V37.2217H211.716V24.3669ZM222.387 24.3669H226.98V37.2217H222.387V24.3669ZM214.373 28.937H224.121V32.3589H214.373V28.937ZM233.442 25.9428H238.057V37.2217H233.442V25.9428ZM228.557 24.3669H242.942V27.8339H228.557V24.3669Z" fill="black"/>
<g clip-path="url(#clip0_14_5358)">
<path d="M17.642 31.7176H14.3519V30.5217C14.3338 28.8447 14.7779 27.1952 15.6355 25.7541C16.4931 24.3129 17.731 23.1358 19.2136 22.3519C20.674 21.6318 22.2557 21.1897 23.8779 21.0482C23.1691 21.9253 22.4583 22.8574 21.7455 23.8445C20.14 26.338 18.7664 28.9734 17.642 31.7176ZM32.9889 35.082C30.4957 36.6895 27.8602 38.0651 25.1158 39.1914V42.4815H26.3117C27.9887 42.4996 29.6382 42.0555 31.0793 41.1979C32.5205 40.3403 33.6976 39.1024 34.4815 37.6198C35.2016 36.1594 35.6437 34.5777 35.7852 32.9555C34.9121 33.6611 33.98 34.37 32.9889 35.082ZM43.0556 17.355C42.8965 22.5612 39.1483 27.7242 31.5956 33.1421C29.5403 34.4744 27.3721 35.6238 25.1158 36.5769V35.9036C25.1104 34.7951 24.6677 33.7335 23.8838 32.9496C23.1 32.1657 22.0383 31.723 20.9298 31.7176H20.2565C21.2107 29.4614 22.3617 27.2935 23.6961 25.239C29.1008 17.6983 34.2555 13.9501 39.4533 13.7778C42.0438 13.7778 43.0556 14.8363 43.0556 17.355ZM35.8797 23.9437C35.8797 23.1507 35.5646 22.3902 35.0039 21.8295C34.4432 21.2688 33.6827 20.9538 32.8897 20.9538C32.0967 20.9538 31.3362 21.2688 30.7755 21.8295C30.2147 22.3902 29.8997 23.1507 29.8997 23.9437C29.8997 24.7367 30.2147 25.4972 30.7755 26.058C31.3362 26.6187 32.0967 26.9337 32.8897 26.9337C33.6827 26.9337 34.4432 26.6187 35.0039 26.058C35.5646 25.4972 35.8797 24.7367 35.8797 23.9437ZM15.9952 42.2244C17.3418 41.9852 20.5889 41.3178 21.6737 40.2343C22.0069 39.9011 22.2712 39.5055 22.4515 39.0702C22.6319 38.6348 22.7247 38.1682 22.7247 37.697C22.7247 37.2258 22.6319 36.7592 22.4515 36.3238C22.2712 35.8885 22.0069 35.4929 21.6737 35.1597C21.3405 34.8265 20.9449 34.5622 20.5096 34.3819C20.0742 34.2015 19.6076 34.1087 19.1364 34.1087C18.1848 34.1087 17.2721 34.4868 16.5991 35.1597C15.5156 36.2445 14.847 39.4916 14.609 40.8383L14.3136 42.5198L15.9952 42.2244Z" fill="url(#paint0_radial_14_5358)"/>
</g>
<circle cx="28.7037" cy="28.7037" r="27.0152" stroke="url(#paint1_radial_14_5358)" stroke-width="3.37691"/>
<defs>
<radialGradient id="paint0_radial_14_5358" cx="0" cy="0" r="1" gradientUnits="userSpaceOnUse" gradientTransform="translate(28.6846 28.1488) scale(14.371)">
<stop stop-color="#904BFF"/>
<stop offset="1" stop-color="#6615E9"/>
</radialGradient>
<radialGradient id="paint1_radial_14_5358" cx="0" cy="0" r="1" gradientUnits="userSpaceOnUse" gradientTransform="translate(28.7037 28.7037) scale(28.7037)">
<stop stop-color="#904BFF"/>
<stop offset="1" stop-color="#6615E9"/>
</radialGradient>
<clipPath id="clip0_14_5358">
<rect width="28.7037" height="28.7037" fill="white" transform="translate(14.3519 13.7778)"/>
</clipPath>
</defs>
</svg>
