<svg width="221" height="51" viewBox="0 0 221 51" fill="none" xmlns="http://www.w3.org/2000/svg">
<path d="M85.54 18.3V33.3H81.6V19.78L82.48 19.88L76.68 33.3H72.48L66.66 19.92L67.56 19.82V33.3H63.62V18.3H70.02L75.4 31.18H73.8L79.14 18.3H85.54ZM94.6713 33.62C93.2046 33.62 91.9246 33.3733 90.8313 32.88C89.7379 32.3733 88.8846 31.6667 88.2713 30.76C87.6579 29.84 87.3513 28.7867 87.3513 27.6C87.3513 26.3867 87.6579 25.3267 88.2713 24.42C88.8846 23.5133 89.7379 22.8067 90.8313 22.3C91.9246 21.7933 93.2046 21.54 94.6713 21.54C96.1246 21.54 97.3979 21.7933 98.4913 22.3C99.5979 22.8067 100.458 23.5133 101.071 24.42C101.685 25.3267 101.991 26.3867 101.991 27.6C101.991 28.7867 101.685 29.84 101.071 30.76C100.458 31.6667 99.5979 32.3733 98.4913 32.88C97.3979 33.3733 96.1246 33.62 94.6713 33.62ZM94.6713 30.6C95.3379 30.6 95.9046 30.48 96.3713 30.24C96.8513 30 97.2179 29.6533 97.4713 29.2C97.7246 28.7467 97.8513 28.2133 97.8513 27.6C97.8513 26.96 97.7246 26.42 97.4713 25.98C97.2179 25.5267 96.8513 25.18 96.3713 24.94C95.9046 24.7 95.3379 24.58 94.6713 24.58C94.0046 24.58 93.4313 24.7 92.9513 24.94C92.4713 25.18 92.1046 25.5267 91.8513 25.98C91.5979 26.42 91.4713 26.9533 91.4713 27.58C91.4713 28.2067 91.5979 28.7467 91.8513 29.2C92.1046 29.6533 92.4713 30 92.9513 30.24C93.4313 30.48 94.0046 30.6 94.6713 30.6ZM103.711 33.3V21.88H107.751V31.08L106.871 30.8L112.851 21.88H118.091V33.3H114.071V23.84L114.951 24.14L108.811 33.3H103.711ZM110.791 20.92C109.391 20.92 108.271 20.5867 107.431 19.92C106.591 19.24 106.071 18.2667 105.871 17H108.991C109.098 17.52 109.304 17.92 109.611 18.2C109.918 18.48 110.311 18.62 110.791 18.62C111.271 18.62 111.664 18.48 111.971 18.2C112.278 17.92 112.478 17.52 112.571 17H115.711C115.511 18.2667 114.984 19.24 114.131 19.92C113.291 20.5867 112.178 20.92 110.791 20.92ZM125.313 33.3V21.88H129.413V30.12L128.213 29.7L134.573 21.88H138.893L128.953 33.3H125.313ZM134.613 33.3L131.353 27.72L134.433 25.56L139.213 33.3H134.613ZM142.116 21.88H154.516V33.3H150.416V23.04L152.296 24.92H144.156L145.876 23.34C145.956 24.1267 146.016 24.84 146.056 25.48C146.096 26.12 146.116 26.6933 146.116 27.2C146.116 29.44 145.77 31.06 145.076 32.06C144.396 33.0467 143.29 33.54 141.756 33.54C141.303 33.54 140.876 33.4933 140.476 33.4C140.076 33.3067 139.683 33.1533 139.296 32.94V30.04C139.536 30.1333 139.77 30.2067 139.996 30.26C140.236 30.3 140.45 30.32 140.636 30.32C141.29 30.32 141.75 30.0333 142.016 29.46C142.283 28.8867 142.416 27.9467 142.416 26.64C142.416 26.0133 142.39 25.3067 142.336 24.52C142.296 23.72 142.223 22.84 142.116 21.88ZM156.758 33.3V21.88H160.798V31.08L159.918 30.8L165.898 21.88H171.138V33.3H167.118V23.84L167.998 24.14L161.858 33.3H156.758ZM180.099 33.62C178.712 33.62 177.472 33.3667 176.379 32.86C175.299 32.3533 174.445 31.6467 173.819 30.74C173.192 29.82 172.879 28.7533 172.879 27.54C172.879 26.3533 173.179 25.3133 173.779 24.42C174.379 23.5133 175.199 22.8067 176.239 22.3C177.292 21.7933 178.479 21.54 179.799 21.54C181.172 21.54 182.339 21.84 183.299 22.44C184.272 23.0267 185.019 23.86 185.539 24.94C186.072 26.02 186.339 27.2933 186.339 28.76H176.179V26.3H184.039L182.699 27.16C182.645 26.5733 182.499 26.08 182.259 25.68C182.019 25.2667 181.699 24.9533 181.299 24.74C180.912 24.5267 180.445 24.42 179.899 24.42C179.299 24.42 178.785 24.54 178.359 24.78C177.932 25.02 177.599 25.3533 177.359 25.78C177.119 26.1933 176.999 26.68 176.999 27.24C176.999 27.96 177.159 28.5733 177.479 29.08C177.812 29.5733 178.292 29.9533 178.919 30.22C179.559 30.4867 180.339 30.62 181.259 30.62C182.099 30.62 182.932 30.5133 183.759 30.3C184.599 30.0733 185.359 29.76 186.039 29.36V31.96C185.252 32.4933 184.352 32.9067 183.339 33.2C182.339 33.48 181.259 33.62 180.099 33.62ZM188.086 21.88H192.166V33.3H188.086V21.88ZM197.566 21.88H201.646V33.3H197.566V21.88ZM190.446 25.94H199.106V28.98H190.446V25.94ZM207.387 23.28H211.487V33.3H207.387V23.28ZM203.047 21.88H215.827V24.96H203.047V21.88Z" fill="white"/>
<g clip-path="url(#clip0_1_4647)">
<path d="M15.6729 28.1775H12.75V27.115C12.7339 25.6252 13.1284 24.1598 13.8903 22.8795C14.6522 21.5992 15.752 20.5535 17.0691 19.8571C18.3665 19.2173 19.7717 18.8246 21.2128 18.6989C20.5831 19.4781 19.9516 20.3061 19.3184 21.1831C17.8921 23.3983 16.6718 25.7395 15.6729 28.1775ZM29.3069 31.1663C27.0919 32.5944 24.7506 33.8165 22.3125 34.8171V37.74H23.375C24.8647 37.7561 26.3302 37.3615 27.6105 36.5997C28.8908 35.8378 29.9365 34.738 30.6329 33.4209C31.2727 32.1235 31.6654 30.7183 31.7911 29.2772C31.0154 29.9041 30.1874 30.5338 29.3069 31.1663ZM38.25 15.4179C38.1087 20.043 34.7788 24.6298 28.0691 29.4429C26.2432 30.6266 24.317 31.6477 22.3125 32.4944V31.8962C22.3077 30.9114 21.9144 29.9683 21.218 29.2719C20.5217 28.5756 19.5785 28.1822 18.5937 28.1775H17.9956C18.8433 26.1731 19.8658 24.2471 21.0513 22.4219C25.8527 15.7229 30.4321 12.393 35.0497 12.24C37.3511 12.24 38.25 13.1803 38.25 15.4179ZM31.875 21.2712C31.875 20.5668 31.5951 19.8911 31.097 19.393C30.5988 18.8949 29.9232 18.615 29.2187 18.615C28.5143 18.615 27.8386 18.8949 27.3405 19.393C26.8423 19.8911 26.5625 20.5668 26.5625 21.2712C26.5625 21.9757 26.8423 22.6514 27.3405 23.1495C27.8386 23.6476 28.5143 23.9275 29.2187 23.9275C29.9232 23.9275 30.5988 23.6476 31.097 23.1495C31.5951 22.6514 31.875 21.9757 31.875 21.2712ZM14.2099 37.5116C15.4062 37.2991 18.2909 36.7062 19.2546 35.7436C19.5506 35.4476 19.7854 35.0961 19.9456 34.7094C20.1058 34.3226 20.1883 33.9081 20.1883 33.4895C20.1883 33.0708 20.1058 32.6563 19.9456 32.2696C19.7854 31.8828 19.5506 31.5314 19.2546 31.2354C18.9586 30.9394 18.6072 30.7046 18.2204 30.5444C17.8337 30.3842 17.4191 30.3017 17.0005 30.3017C16.1551 30.3017 15.3442 30.6376 14.7464 31.2354C13.7838 32.1991 13.1899 35.0837 12.9784 36.2801L12.716 37.774L14.2099 37.5116Z" fill="white"/>
</g>
<circle cx="25.5" cy="25.5" r="24" stroke="white" stroke-width="3"/>
<defs>
<clipPath id="clip0_1_4647">
<rect width="25.5" height="25.5" fill="white" transform="translate(12.75 12.24)"/>
</clipPath>
</defs>
</svg>
