<svg width="25" height="25" viewBox="0 0 25 25" fill="none" xmlns="http://www.w3.org/2000/svg">
<path fill-rule="evenodd" clip-rule="evenodd" d="M16.0661 7.39273C16.5102 7.51161 16.8804 7.79441 17.1081 8.18906C17.5478 8.9506 17.3346 9.91268 16.6441 10.4239L14.9403 7.47342C15.2932 7.32039 15.686 7.29087 16.0661 7.39269V7.39273ZM5.44504 18.5357L7.82267 17.1631L4.6903 11.7452L2.31606 13.1162C1.59589 13.532 1.07962 14.2072 0.862743 15.0171C0.645398 15.8273 0.754754 16.6703 1.17053 17.3902C1.74976 18.3929 2.80366 18.9542 3.88595 18.9542C4.41632 18.9542 4.95353 18.8194 5.44504 18.5357ZM10.4053 21.6438L8.40868 18.1859L6.54506 19.2618L8.54124 22.7199C8.83837 23.2337 9.49762 23.4103 10.0116 23.1137C10.2587 22.9709 10.436 22.7386 10.5111 22.4599C10.5856 22.181 10.5481 21.8913 10.4053 21.6438V21.6438ZM17.8301 14.836L11.7125 4.24041C11.5852 4.01944 11.3758 3.89829 11.1226 3.89829C11.1178 3.89829 11.1128 3.89853 11.1081 3.89853C10.8482 3.90329 10.638 4.03241 10.5161 4.26225C10.3011 4.66803 10.0937 5.10107 9.87436 5.55962C8.95117 7.4878 7.91321 9.6554 5.70152 11.1382L8.85342 16.5912C11.241 15.4191 13.6366 15.6037 15.7669 15.7682C16.2746 15.8076 16.7535 15.8444 17.213 15.8612C17.4733 15.8712 17.6897 15.7535 17.8236 15.5307C17.958 15.3079 17.96 15.061 17.8302 14.836L17.8301 14.836ZM16.2922 3.95672C16.1297 4.23862 16.2263 4.59913 16.5082 4.76192C16.6007 4.81558 16.7021 4.84105 16.8021 4.84105C17.0058 4.84105 17.2043 4.73532 17.3132 4.54622L18.531 2.43776C18.6935 2.15586 18.5969 1.79535 18.315 1.63256C18.0329 1.46983 17.6726 1.5664 17.51 1.8483L16.2922 3.95672ZM23.3903 10.4219C23.3903 10.0966 23.1266 9.83247 22.7993 9.83247L20.3653 9.83271C20.04 9.83271 19.7758 10.0966 19.7758 10.4222C19.7758 10.7477 20.04 11.0116 20.3653 11.0116L22.7993 11.0114C23.1266 11.0114 23.3903 10.7477 23.3903 10.4219ZM21.9809 5.37571C21.8172 5.09381 21.458 4.99723 21.1761 5.15997L19.0161 6.40664C18.7339 6.56966 18.6374 6.92994 18.8001 7.21208C18.9095 7.40122 19.1075 7.50695 19.3111 7.50695C19.4111 7.50695 19.5125 7.48125 19.6055 7.42782L21.7649 6.1809C22.0468 6.01812 22.1445 5.65761 21.9809 5.37571Z" fill="white"/>
</svg>
