<svg width="119" height="119" viewBox="0 0 119 119" fill="none" xmlns="http://www.w3.org/2000/svg">
<path d="M98.9997 0H20C8.9543 0 0 8.95431 0 20V98.9995C0 110.045 8.9543 119 20 119H98.9997C110.045 119 119 110.045 119 98.9995V20C119 8.9543 110.045 0 98.9997 0Z" fill="#FF0032"/>
<path d="M79.2789 9.06934V14.621H91.2391V36.3411L91.2414 36.6986H97.9371V14.621H109.897V9.06934H79.2789Z" fill="white"/>
<path d="M36.2064 9.1521L27.4592 27.3138L18.7118 9.1521H9.16132V36.6136H15.8569V16.96L24.4071 33.5639H30.5113L39.0639 16.96V36.6136H45.7595V9.1521H36.2064Z" fill="white"/>
<path d="M103.184 100.688C103.059 101.702 102.598 102.645 101.872 103.365C101.12 104.05 100.194 104.517 99.1953 104.716C97.7362 105.005 96.2506 105.14 94.7631 105.118C93.1794 105.146 91.6017 104.915 90.0926 104.434C88.8554 104.032 87.7887 103.227 87.0623 102.148C86.3322 101.068 85.9721 99.5076 85.9721 97.5238V94.7104C85.9721 92.7122 86.3398 91.1521 87.0623 90.0716C87.7871 88.9946 88.8512 88.1912 90.0852 87.7885C91.5943 87.3072 93.172 87.0761 94.7559 87.1047C96.2434 87.0823 97.729 87.217 99.1882 87.5062C100.187 87.7052 101.112 88.1721 101.865 88.8568C102.59 89.577 103.052 90.52 103.177 91.5341H109.877C109.757 89.4219 108.951 87.4062 107.582 85.7926C106.233 84.3087 104.486 83.2427 102.549 82.7212C100.009 82.0508 97.3875 81.7371 94.7607 81.789C91.5503 81.789 88.7662 82.2514 86.4854 83.1615C84.2294 84.0302 82.3395 85.646 81.1309 87.7397C79.9505 89.7672 79.33 92.4735 79.2886 95.791V96.0954L79.6465 96.1099H79.2886V96.414C79.33 99.7313 79.9505 102.438 81.1309 104.466C82.3395 106.559 84.2294 108.175 86.4854 109.043C88.7686 109.954 91.5555 110.416 94.7607 110.416C97.3877 110.469 100.009 110.155 102.549 109.484C104.487 108.964 106.234 107.898 107.582 106.412C108.951 104.799 109.757 102.783 109.878 100.671L103.184 100.688Z" fill="white"/>
</svg>
