<svg width="20" height="20" viewBox="0 0 20 20" fill="none" xmlns="http://www.w3.org/2000/svg">
<g clip-path="url(#clip0_155_2462)">
<path d="M14.9009 1.34531H8.46248C7.53482 1.34512 6.63558 1.66544 5.91696 2.25208C5.19834 2.83871 4.70447 3.65561 4.51894 4.56453H4.43846C3.58467 4.56453 2.76585 4.90369 2.16213 5.50741C1.55841 6.11113 1.21924 6.92995 1.21924 7.78374V15.027C1.21924 15.5554 1.32332 16.0787 1.52555 16.5669C1.72777 17.0551 2.02418 17.4987 2.39785 17.8724C3.1525 18.6271 4.17602 19.051 5.24326 19.051H16.5105C17.1509 19.051 17.765 18.7966 18.2178 18.3438C18.6706 17.8911 18.9249 17.2769 18.9249 16.6366V5.36933C18.9249 4.84089 18.8209 4.31762 18.6186 3.8294C18.4164 3.34119 18.12 2.89758 17.7463 2.52392C17.3727 2.15025 16.9291 1.85384 16.4408 1.65162C15.9526 1.44939 15.4294 1.34531 14.9009 1.34531ZM11.6817 14.2222H5.24326C5.02981 14.2222 4.82511 14.1374 4.67418 13.9865C4.52325 13.8355 4.43846 13.6308 4.43846 13.4174C4.43846 13.2039 4.52325 12.9992 4.67418 12.8483C4.82511 12.6974 5.02981 12.6126 5.24326 12.6126H11.6817C11.8951 12.6126 12.0999 12.6974 12.2508 12.8483C12.4017 12.9992 12.4865 13.2039 12.4865 13.4174C12.4865 13.6308 12.4017 13.8355 12.2508 13.9865C12.0999 14.1374 11.8951 14.2222 11.6817 14.2222ZM11.6817 11.003H5.24326C5.02981 11.003 4.82511 10.9182 4.67418 10.7672C4.52325 10.6163 4.43846 10.4116 4.43846 10.1982C4.43846 9.98471 4.52325 9.78001 4.67418 9.62908C4.82511 9.47815 5.02981 9.39335 5.24326 9.39335H11.6817C11.8951 9.39335 12.0999 9.47815 12.2508 9.62908C12.4017 9.78001 12.4865 9.98471 12.4865 10.1982C12.4865 10.4116 12.4017 10.6163 12.2508 10.7672C12.0999 10.9182 11.8951 11.003 11.6817 11.003ZM17.3153 16.6366C17.3153 16.85 17.2305 17.0547 17.0796 17.2057C16.9287 17.3566 16.724 17.4414 16.5105 17.4414C16.2971 17.4414 16.0924 17.3566 15.9414 17.2057C15.7905 17.0547 15.7057 16.85 15.7057 16.6366V7.78374C15.7057 6.92995 15.3666 6.11113 14.7628 5.50741C14.1591 4.90369 13.3403 4.56453 12.4865 4.56453H6.19293C6.35897 4.09488 6.66621 3.68809 7.07253 3.39992C7.47885 3.11176 7.96435 2.95632 8.46248 2.95492H14.9009C15.5413 2.95492 16.1554 3.20929 16.6082 3.66208C17.061 4.11487 17.3153 4.72899 17.3153 5.36933V16.6366Z" fill="white"/>
</g>
<defs>
<clipPath id="clip0_155_2462">
<rect width="19.3153" height="19.3153" fill="white" transform="translate(0.414429 0.540527)"/>
</clipPath>
</defs>
</svg>
