<svg width="42" height="42" viewBox="0 0 42 42" fill="none" xmlns="http://www.w3.org/2000/svg">
<g clip-path="url(#clip0_116_2449)">
<path d="M41.0118 16.2178L37.7837 15.5161C37.503 14.6567 37.1553 13.8184 36.7449 13.0109L38.5319 10.2312C38.8511 9.73448 38.7809 9.0824 38.3637 8.66519L33.3348 3.63629C32.9176 3.21909 32.2655 3.14891 31.7688 3.46806L28.9891 5.25513C28.1816 4.84465 27.3433 4.49698 26.4839 4.21628L25.7822 0.98822C25.6569 0.411438 25.1461 0 24.5559 0H17.4441C16.8539 0 16.3431 0.411438 16.2178 0.98822L15.5161 4.21628C14.6567 4.49698 13.8184 4.84465 13.0109 5.25513L10.2312 3.46806C9.73448 3.14891 9.0824 3.21909 8.66519 3.63629L3.63629 8.66519C3.21909 9.0824 3.14891 9.73448 3.46806 10.2312L5.25513 13.0109C4.84465 13.8184 4.49698 14.6567 4.21628 15.5161L0.98822 16.2178C0.411438 16.3434 0 16.8539 0 17.4441V24.5559C0 25.1461 0.411438 25.6566 0.98822 25.7822L4.21628 26.4839C4.49698 27.3433 4.84465 28.1816 5.25513 28.9891L3.46806 31.7688C3.14891 32.2655 3.21909 32.9176 3.63629 33.3348L8.66519 38.3637C9.0824 38.7809 9.73448 38.8511 10.2312 38.5319L13.0109 36.7449C13.8184 37.1553 14.6567 37.503 15.5161 37.7837L16.2178 41.0118C16.3431 41.5886 16.8539 42 17.4441 42H24.5559C25.1461 42 25.6569 41.5886 25.7822 41.0118L26.4839 37.7837C27.3433 37.503 28.1816 37.1553 28.9891 36.7449L31.7688 38.5319C32.2655 38.8511 32.9176 38.7812 33.3348 38.3637L38.3637 33.3348C38.7809 32.9176 38.8511 32.2655 38.5319 31.7688L36.7449 28.9891C37.1553 28.1816 37.503 27.3433 37.7837 26.4839L41.0118 25.7822C41.5886 25.6566 42 25.1461 42 24.5559V17.4441C42 16.8539 41.5886 16.3434 41.0118 16.2178ZM28.5299 21C28.5299 25.1519 25.1519 28.5299 21 28.5299C16.8481 28.5299 13.4701 25.1519 13.4701 21C13.4701 16.8481 16.8481 13.4701 21 13.4701C25.1519 13.4701 28.5299 16.8481 28.5299 21Z" fill="white"/>
</g>
<defs>
<clipPath id="clip0_116_2449">
<rect width="42" height="42" fill="white"/>
</clipPath>
</defs>
</svg>
