<svg width="20" height="21" viewBox="0 0 20 21" fill="none" xmlns="http://www.w3.org/2000/svg">
<g clip-path="url(#clip0_155_2483)">
<path d="M19.2753 8.20614L17.7907 7.88341C17.6616 7.48818 17.5017 7.10267 17.313 6.73132L18.1348 5.45293C18.2816 5.22452 18.2493 4.92463 18.0575 4.73276L15.7447 2.42003C15.5529 2.22816 15.253 2.19589 15.0246 2.34266L13.7462 3.16451C13.3748 2.97574 12.9893 2.81585 12.5941 2.68676L12.2713 1.20221C12.2137 0.936957 11.9788 0.747742 11.7074 0.747742H8.43679C8.16534 0.747742 7.93044 0.936957 7.87282 1.20221L7.5501 2.68676C7.15486 2.81585 6.76936 2.97574 6.398 3.16451L5.11962 2.34266C4.8912 2.19589 4.59132 2.22816 4.39945 2.42003L2.08672 4.73276C1.89485 4.92463 1.86258 5.22452 2.00935 5.45293L2.8312 6.73132C2.64243 7.10267 2.48254 7.48818 2.35345 7.88341L0.8689 8.20614C0.603644 8.2639 0.414429 8.49865 0.414429 8.7701V12.0407C0.414429 12.3121 0.603644 12.5469 0.8689 12.6047L2.35345 12.9274C2.48254 13.3226 2.64243 13.7081 2.8312 14.0795L2.00935 15.3579C1.86258 15.5863 1.89485 15.8862 2.08672 16.078L4.39945 18.3908C4.59132 18.5826 4.8912 18.6149 5.11962 18.4681L6.398 17.6463C6.76936 17.8351 7.15486 17.9949 7.5501 18.124L7.87282 19.6086C7.93044 19.8738 8.16534 20.0631 8.43679 20.0631H11.7074C11.9788 20.0631 12.2137 19.8738 12.2713 19.6086L12.5941 18.124C12.9893 17.9949 13.3748 17.8351 13.7462 17.6463L15.0246 18.4681C15.253 18.6149 15.5529 18.5828 15.7447 18.3908L18.0575 16.078C18.2493 15.8862 18.2816 15.5863 18.1348 15.3579L17.313 14.0795C17.5017 13.7081 17.6616 13.3226 17.7907 12.9274L19.2753 12.6047C19.5405 12.5469 19.7297 12.3121 19.7297 12.0407V8.7701C19.7297 8.49865 19.5405 8.2639 19.2753 8.20614ZM13.535 10.4054C13.535 12.3148 11.9815 13.8683 10.0721 13.8683C8.16269 13.8683 6.60918 12.3148 6.60918 10.4054C6.60918 8.496 8.16269 6.94249 10.0721 6.94249C11.9815 6.94249 13.535 8.496 13.535 10.4054Z" fill="white"/>
</g>
<defs>
<clipPath id="clip0_155_2483">
<rect width="19.3153" height="19.3153" fill="white" transform="translate(0.414429 0.747742)"/>
</clipPath>
</defs>
</svg>
