<svg width="19" height="20" viewBox="0 0 19 20" fill="none" xmlns="http://www.w3.org/2000/svg">
<g clip-path="url(#clip0_537_10780)">
<path d="M18.525 15.8813L15.3639 19.0424C15.0583 19.3472 14.6553 19.5008 14.2524 19.5008C13.8463 19.5008 13.4401 19.3464 13.1306 19.0369L9.96392 15.8702L11.0833 14.7508L13.4599 17.1274L13.4781 0.5L15.0615 0.501583L15.0433 17.14L17.4167 14.7508L18.525 15.8813ZM7.72429 15.8694L8.17079 16.3159C8.08529 16.3191 8.00296 16.3333 7.91667 16.3333C3.55142 16.3333 0 12.7819 0 8.41667C0 4.05142 3.55142 0.5 7.91667 0.5C9.35908 0.5 10.7089 0.89425 11.875 1.57113V13.302L11.0833 12.5104L7.72429 15.8694ZM7.125 12.375V13.1667H8.70833V12.375C10.0178 12.375 11.0833 11.3094 11.0833 10C11.0833 8.92333 10.3123 8.01292 9.25063 7.83638L6.84237 7.435C6.54708 7.38592 6.33254 7.13258 6.33254 6.83333C6.33254 6.39713 6.688 6.04167 7.12421 6.04167H8.70754C9.14375 6.04167 9.49921 6.39713 9.49921 6.83333H11.0825C11.0825 5.52392 10.017 4.45833 8.70754 4.45833V3.66667H7.12421V4.45833C5.81479 4.45833 4.74921 5.52392 4.74921 6.83333C4.74921 7.91 5.52029 8.82042 6.58192 8.99696L8.99017 9.39833C9.28546 9.44742 9.5 9.70075 9.5 10C9.5 10.4362 9.14454 10.7917 8.70833 10.7917H7.125C6.68879 10.7917 6.33333 10.4362 6.33333 10H4.75C4.75 11.3094 5.81558 12.375 7.125 12.375Z" fill="#A6ACC3"/>
</g>
<defs>
<clipPath id="clip0_537_10780">
<rect width="19" height="19" fill="white" transform="translate(0 0.5)"/>
</clipPath>
</defs>
</svg>
