<svg width="71" height="70" viewBox="0 0 71 70" fill="none" xmlns="http://www.w3.org/2000/svg">
<rect opacity="0.15" x="0.5" width="70" height="70" rx="20" fill="url(#paint0_radial_359_7873)"/>
<rect x="9.74512" y="9.2453" width="51.5094" height="51.5094" rx="15" fill="url(#paint1_radial_359_7873)"/>
<g clip-path="url(#clip0_359_7873)">
<path d="M43.9583 23.8333H42.6292C42.3487 22.4696 41.6067 21.2443 40.5282 20.3639C39.4497 19.4834 38.1006 19.0018 36.7083 19H34.2917C32.8994 19.0018 31.5503 19.4834 30.4718 20.3639C29.3933 21.2443 28.6513 22.4696 28.3708 23.8333H27.0417C25.4399 23.8353 23.9043 24.4724 22.7717 25.605C21.6391 26.7376 21.0019 28.2732 21 29.875V33.5H50V29.875C49.9981 28.2732 49.3609 26.7376 48.2283 25.605C47.0957 24.4724 45.5601 23.8353 43.9583 23.8333ZM30.889 23.8333C31.138 23.129 31.5986 22.5188 32.2077 22.0862C32.8167 21.6536 33.5446 21.4198 34.2917 21.4167H36.7083C37.4554 21.4198 38.1833 21.6536 38.7923 22.0862C39.4014 22.5188 39.862 23.129 40.111 23.8333H30.889Z" fill="white"/>
<path d="M36.7083 37.125C36.7083 37.4454 36.581 37.7528 36.3544 37.9794C36.1278 38.206 35.8205 38.3333 35.5 38.3333C35.1795 38.3333 34.8722 38.206 34.6456 37.9794C34.419 37.7528 34.2917 37.4454 34.2917 37.125V35.9166H21V41.9583C21.0019 43.5601 21.6391 45.0957 22.7717 46.2283C23.9043 47.3609 25.4399 47.998 27.0417 48H43.9583C45.5601 47.998 47.0957 47.3609 48.2283 46.2283C49.3609 45.0957 49.9981 43.5601 50 41.9583V35.9166H36.7083V37.125Z" fill="white"/>
</g>
<defs>
<radialGradient id="paint0_radial_359_7873" cx="0" cy="0" r="1" gradientUnits="userSpaceOnUse" gradientTransform="translate(35.5 35) rotate(87.913) scale(41.2134 41.5606)">
<stop stop-color="#FFA7A7"/>
<stop offset="1" stop-color="#FF6767"/>
</radialGradient>
<radialGradient id="paint1_radial_359_7873" cx="0" cy="0" r="1" gradientUnits="userSpaceOnUse" gradientTransform="translate(35.4998 35) rotate(87.913) scale(30.3268 30.5823)">
<stop stop-color="#FFA7A7"/>
<stop offset="1" stop-color="#FF6767"/>
</radialGradient>
<clipPath id="clip0_359_7873">
<rect width="29" height="29" fill="white" transform="translate(21 19)"/>
</clipPath>
</defs>
</svg>
