<svg width="71" height="70" viewBox="0 0 71 70" fill="none" xmlns="http://www.w3.org/2000/svg">
<rect opacity="0.15" x="0.5" width="70" height="70" rx="20" fill="url(#paint0_radial_359_7854)"/>
<rect x="9.74512" y="9.24527" width="51.5094" height="51.5094" rx="15" fill="url(#paint1_radial_359_7854)"/>
<g clip-path="url(#clip0_359_7854)">
<path d="M47.1668 21H45.4915C45.0317 20.9987 44.5762 21.0887 44.1514 21.2647C43.7267 21.4407 43.3411 21.6993 43.017 22.0255L33.0688 31.9667C31.1938 31.3261 29.1571 31.3394 27.2905 32.0042C25.424 32.669 23.8375 33.9462 22.7895 35.6279C21.7416 37.3095 21.2939 39.2964 21.5194 41.2649C21.7449 43.2335 22.6303 45.0677 24.0314 46.4688C25.4325 47.8699 27.2667 48.7553 29.2352 48.9808C31.2038 49.2063 33.1907 48.7586 34.8723 47.7106C36.5539 46.6627 37.8312 45.0762 38.496 43.2096C39.1608 41.3431 39.174 39.3064 38.5335 37.4313L41.3335 34.6313V30.3333H44.8335V26.8333H48.9763C49.3169 26.2855 49.4983 25.6537 49.5001 25.0087V23.3333C49.5001 22.7145 49.2543 22.121 48.8167 21.6834C48.3791 21.2458 47.7857 21 47.1668 21ZM27.9168 44.3333C27.5707 44.3333 27.2323 44.2307 26.9446 44.0384C26.6568 43.8461 26.4325 43.5728 26.3 43.253C26.1676 42.9333 26.1329 42.5814 26.2004 42.2419C26.268 41.9025 26.4346 41.5907 26.6794 41.3459C26.9241 41.1012 27.2359 40.9345 27.5754 40.867C27.9149 40.7994 28.2667 40.8341 28.5865 40.9666C28.9063 41.099 29.1796 41.3233 29.3719 41.6111C29.5642 41.8989 29.6668 42.2372 29.6668 42.5833C29.6668 43.0475 29.4824 43.4926 29.1542 43.8208C28.8261 44.149 28.3809 44.3333 27.9168 44.3333Z" fill="white"/>
</g>
<defs>
<radialGradient id="paint0_radial_359_7854" cx="0" cy="0" r="1" gradientUnits="userSpaceOnUse" gradientTransform="translate(35.5 35) scale(35)">
<stop stop-color="#904BFF"/>
<stop offset="1" stop-color="#6615E9"/>
</radialGradient>
<radialGradient id="paint1_radial_359_7854" cx="0" cy="0" r="1" gradientUnits="userSpaceOnUse" gradientTransform="translate(35.4998 35) scale(25.7547)">
<stop stop-color="#904BFF"/>
<stop offset="1" stop-color="#6615E9"/>
</radialGradient>
<clipPath id="clip0_359_7854">
<rect width="28" height="28" fill="white" transform="translate(21.5 21)"/>
</clipPath>
</defs>
</svg>
