<svg width="15" height="15" viewBox="0 0 15 15" fill="none" xmlns="http://www.w3.org/2000/svg">
<g clip-path="url(#clip0_548_12220)">
<path d="M14.9713 3.46387L9.71 8.72512C9.12336 9.31028 8.32859 9.63889 7.5 9.63889C6.67141 9.63889 5.87664 9.31028 5.29 8.72512L0.02875 3.46387C0.02 3.56262 0 3.65199 0 3.75012V11.2501C0.000992411 12.0786 0.330551 12.8729 0.916387 13.4587C1.50222 14.0446 2.2965 14.3741 3.125 14.3751H11.875C12.7035 14.3741 13.4978 14.0446 14.0836 13.4587C14.6694 12.8729 14.999 12.0786 15 11.2501V3.75012C15 3.65199 14.98 3.56262 14.9713 3.46387Z" fill="#A6ACC3"/>
<path d="M8.82609 7.84125L14.5348 2.13188C14.2583 1.67332 13.8683 1.29377 13.4023 1.02983C12.9364 0.765889 12.4103 0.626463 11.8748 0.625H3.12484C2.58936 0.626463 2.06328 0.765889 1.59736 1.02983C1.13144 1.29377 0.741393 1.67332 0.464844 2.13188L6.17359 7.84125C6.52583 8.19207 7.00271 8.38904 7.49984 8.38904C7.99698 8.38904 8.47386 8.19207 8.82609 7.84125Z" fill="#A6ACC3"/>
</g>
<defs>
<clipPath id="clip0_548_12220">
<rect width="15" height="15" fill="white"/>
</clipPath>
</defs>
</svg>
