<svg width="15" height="15" viewBox="0 0 15 15" fill="none" xmlns="http://www.w3.org/2000/svg">
<g clip-path="url(#clip0_423_596)">
<path d="M4.93523 10.0649C4.56898 9.69927 4.56898 9.1049 4.93523 8.73927C5.30148 8.37302 5.89461 8.37302 6.26086 8.73927C7.08961 9.56802 8.53586 9.56865 9.36461 8.73927L12.4827 5.62115C13.3384 4.76552 13.3384 3.37302 12.4827 2.5174C11.6271 1.66177 10.2346 1.66177 9.37898 2.5174C9.01273 2.88365 8.41961 2.88365 8.05336 2.5174C7.68711 2.15177 7.68711 1.5574 8.05336 1.19177C9.63961 -0.395101 12.2221 -0.395101 13.8084 1.19177C15.3952 2.77865 15.3952 5.3599 13.8084 6.94677L10.6902 10.0649C9.89648 10.8586 8.85461 11.2549 7.81273 11.2549C6.77086 11.2549 5.72836 10.858 4.93523 10.0649ZM4.07023 14.998C5.11211 14.998 6.15399 14.6011 6.94773 13.808C7.31398 13.4424 7.31398 12.848 6.94773 12.4824C6.58148 12.1161 5.98836 12.1161 5.62211 12.4824C4.76586 13.3386 3.37336 13.338 2.51836 12.4824C1.66273 11.6268 1.66273 10.2343 2.51836 9.37865L5.61898 6.27802C6.47523 5.42177 7.86773 5.42177 8.72273 6.27802C9.08898 6.64427 9.68211 6.64427 10.0484 6.27802C10.4146 5.9124 10.4146 5.31802 10.0484 4.9524C8.46148 3.36552 5.88023 3.36552 4.29336 4.9524L1.19211 8.05302C-0.394766 9.6399 -0.394766 12.2211 1.19211 13.808C1.98586 14.6018 3.02836 14.998 4.07023 14.998Z" fill="#E47D7D"/>
</g>
<defs>
<clipPath id="clip0_423_596">
<rect width="15" height="15" fill="white"/>
</clipPath>
</defs>
</svg>
