<svg width="23" height="16" viewBox="0 0 23 16" fill="none" xmlns="http://www.w3.org/2000/svg">
<path d="M0 1.02783C0 0.837208 0.0757252 0.654391 0.210517 0.519599C0.345309 0.384807 0.528126 0.309082 0.71875 0.309082H22.2812C22.4719 0.309082 22.6547 0.384807 22.7895 0.519599C22.9243 0.654391 23 0.837208 23 1.02783C23 1.21846 22.9243 1.40127 22.7895 1.53606C22.6547 1.67086 22.4719 1.74658 22.2812 1.74658H0.71875C0.528126 1.74658 0.345309 1.67086 0.210517 1.53606C0.0757252 1.40127 0 1.21846 0 1.02783ZM22.2812 6.9988H0.71875C0.528126 6.9988 0.345309 7.07453 0.210517 7.20932C0.0757252 7.34411 0 7.52693 0 7.71755C0 7.90818 0.0757252 8.09099 0.210517 8.22579C0.345309 8.36058 0.528126 8.4363 0.71875 8.4363H22.2812C22.4719 8.4363 22.6547 8.36058 22.7895 8.22579C22.9243 8.09099 23 7.90818 23 7.71755C23 7.52693 22.9243 7.34411 22.7895 7.20932C22.6547 7.07453 22.4719 6.9988 22.2812 6.9988ZM11.5 13.6885H0.71875C0.528126 13.6885 0.345309 13.7642 0.210517 13.899C0.0757252 14.0338 0 14.2166 0 14.4073C0 14.5979 0.0757252 14.7807 0.210517 14.9155C0.345309 15.0503 0.528126 15.126 0.71875 15.126H11.5C11.6906 15.126 11.8734 15.0503 12.0082 14.9155C12.143 14.7807 12.2188 14.5979 12.2188 14.4073C12.2188 14.2166 12.143 14.0338 12.0082 13.899C11.8734 13.7642 11.6906 13.6885 11.5 13.6885Z" fill="white"/>
</svg>
