<svg width="70" height="70" viewBox="0 0 70 70" fill="none" xmlns="http://www.w3.org/2000/svg">
<rect width="70" height="70" rx="20" fill="url(#paint0_radial_359_7839)" fill-opacity="0.15"/>
<rect x="9" y="9.24527" width="51.5094" height="51.5094" rx="15" fill="url(#paint1_radial_359_7839)"/>
<path d="M21.942 42.75C22.9415 44.4847 25.158 45.0806 26.8927 44.0812C26.8939 44.0805 26.895 44.0798 26.8962 44.0791L27.4339 43.7686C28.4489 44.637 29.6156 45.3104 30.8752 45.7551V46.375C30.8752 48.377 32.4982 50 34.5002 50C36.5022 50 38.1252 48.377 38.1252 46.375V45.7551C39.385 45.3098 40.5517 44.6355 41.5665 43.7662L42.1066 44.0779C43.8417 45.0789 46.0598 44.4839 47.0608 42.7488C48.0618 41.0137 47.4668 38.7956 45.7316 37.7946L45.1951 37.4853C45.4366 36.1711 45.4366 34.824 45.1951 33.5098L45.7316 33.2005C47.4667 32.1995 48.0618 29.9814 47.0608 28.2463C46.0598 26.5112 43.8418 25.9161 42.1066 26.9171L41.5689 27.2277C40.5529 26.3604 39.3854 25.6881 38.1252 25.2449V24.625C38.1252 22.623 36.5022 21 34.5002 21C32.4982 21 30.8752 22.623 30.8752 24.625V25.2449C29.6154 25.6902 28.4486 26.3645 27.4339 27.2338L26.8938 26.9209C25.1586 25.9198 22.9406 26.5149 21.9396 28.25C20.9386 29.9851 21.5336 32.2032 23.2688 33.2042L23.8053 33.5135C23.5637 34.8276 23.5637 36.1748 23.8053 37.4889L23.2688 37.7983C21.5384 38.8019 20.9453 41.0157 21.942 42.75ZM34.5002 30.6667C37.1696 30.6667 39.3335 32.8306 39.3335 35.5C39.3335 38.1694 37.1696 40.3333 34.5002 40.3333C31.8308 40.3333 29.6669 38.1694 29.6669 35.5C29.6669 32.8306 31.8308 30.6667 34.5002 30.6667Z" fill="white"/>
<defs>
<radialGradient id="paint0_radial_359_7839" cx="0" cy="0" r="1" gradientUnits="userSpaceOnUse" gradientTransform="translate(35 35) rotate(87.913) scale(41.2134 41.5606)">
<stop stop-color="#FFF1A3"/>
<stop offset="1" stop-color="#F9D200"/>
</radialGradient>
<radialGradient id="paint1_radial_359_7839" cx="0" cy="0" r="1" gradientUnits="userSpaceOnUse" gradientTransform="translate(34.7547 35) rotate(87.913) scale(30.3268 30.5823)">
<stop stop-color="#FFF1A3"/>
<stop offset="1" stop-color="#F9D200"/>
</radialGradient>
</defs>
</svg>
