<svg width="15" height="16" viewBox="0 0 15 16" fill="none" xmlns="http://www.w3.org/2000/svg">
<g clip-path="url(#clip0_383_736)">
<path d="M9.56065 5.00688C9.31503 4.76437 9.31315 4.36875 9.55503 4.12313C9.79877 3.87687 10.1931 3.87563 10.4394 4.1175L11.25 4.91812V1.125C11.25 0.78 11.5294 0.5 11.875 0.5C12.2206 0.5 12.5 0.78 12.5 1.125V4.9075L13.3144 4.115C13.5613 3.87375 13.9563 3.87937 14.1981 4.12687C14.4388 4.37437 14.4338 4.77 14.1856 5.01062L12.7882 6.37125C12.2788 6.88 11.4457 6.875 10.9356 6.36563L9.56065 5.00688ZM15 7.375V13.625C15 14.6587 14.1588 15.5 13.125 15.5H3.12503C1.4019 15.5 2.52914e-05 14.0981 2.52914e-05 12.375V6.125C-0.00684971 4.42813 1.38878 2.99688 3.12503 3H7.50002C7.84565 3 8.12502 3.28 8.12502 3.625C8.12502 3.97 7.84565 4.25 7.50002 4.25H3.12503C2.57065 4.25 2.07128 4.49187 1.72815 4.87563C2.08003 5.2675 2.58815 5.5 3.12503 5.5H8.38503C8.4669 5.64125 8.56065 5.77625 8.6819 5.89625L10.0519 7.25C10.9919 8.23625 12.7213 8.24312 13.6594 7.26687L14.6544 6.29813C14.87 6.60375 15 6.97375 15 7.375ZM12.5 10.5C12.5 9.9825 12.08 9.5625 11.5625 9.5625C11.045 9.5625 10.625 9.9825 10.625 10.5C10.625 11.0175 11.045 11.4375 11.5625 11.4375C12.08 11.4375 12.5 11.0175 12.5 10.5Z" fill="#67A1FF"/>
</g>
<defs>
<clipPath id="clip0_383_736">
<rect width="15" height="15" fill="white" transform="translate(0 0.5)"/>
</clipPath>
</defs>
</svg>
