<svg width="15" height="15" viewBox="0 0 15 15" fill="none" xmlns="http://www.w3.org/2000/svg">
<g clip-path="url(#clip0_383_734)">
<path d="M9.555 2.6272C9.3125 2.38158 9.315 1.98595 9.56063 1.74345L10.9381 0.382827C11.4487 -0.125923 12.2806 -0.126548 12.7944 0.385327L14.1862 1.74033C14.4338 1.98095 14.4388 2.37658 14.1988 2.62408C14.0763 2.7497 13.9137 2.81283 13.7506 2.81283C13.5931 2.81283 13.4363 2.75408 13.315 2.63533L12.5006 1.84283V5.62533C12.5006 5.97033 12.2212 6.25033 11.8756 6.25033C11.53 6.25033 11.2506 5.97033 11.2506 5.62533V1.83158L10.44 2.6322C10.1938 2.8747 9.79937 2.87283 9.55562 2.62658L9.555 2.6272ZM15 6.87533V13.1253C15 14.1591 14.1587 15.0003 13.125 15.0003H3.125C1.40188 15.0003 0 13.5985 0 11.8753V5.62533C0 5.07095 0.145 4.5497 0.399375 4.09783C0.411875 4.07283 0.425625 4.04845 0.44125 4.02533C0.9875 3.11283 1.98625 2.50033 3.125 2.50033H7.5C7.84562 2.50033 8.125 2.78033 8.125 3.12533C8.125 3.47033 7.84562 3.75033 7.5 3.75033H3.125C2.57063 3.75033 2.07125 3.9922 1.72813 4.37595C2.08 4.76783 2.58812 5.00033 3.125 5.00033H10V5.62533C10 6.65908 10.8413 7.50033 11.875 7.50033C12.9087 7.50033 13.75 6.65908 13.75 5.62533V5.11533C14.4756 5.37408 15 6.06158 15 6.87533ZM12.5 10.0003C12.5 9.48283 12.08 9.06283 11.5625 9.06283C11.045 9.06283 10.625 9.48283 10.625 10.0003C10.625 10.5178 11.045 10.9378 11.5625 10.9378C12.08 10.9378 12.5 10.5178 12.5 10.0003Z" fill="white"/>
</g>
<defs>
<clipPath id="clip0_383_734">
<rect width="15" height="15" fill="white"/>
</clipPath>
</defs>
</svg>
