<svg width="19" height="20" viewBox="0 0 19 20" fill="none" xmlns="http://www.w3.org/2000/svg">
<g clip-path="url(#clip0_537_10785)">
<path d="M12.103 3.82731C11.7958 3.51618 11.799 3.01506 12.1101 2.70789L13.855 0.984435C14.5017 0.340018 15.5555 0.339226 16.2062 0.987601L17.9692 2.70393C18.2828 3.00873 18.2891 3.50985 17.9851 3.82335C17.8299 3.98248 17.6241 4.06243 17.4175 4.06243C17.218 4.06243 17.0193 3.98802 16.8657 3.8376L15.8341 2.83377V7.62494C15.8341 8.06193 15.4803 8.4166 15.0425 8.4166C14.6047 8.4166 14.2508 8.06193 14.2508 7.62494V2.81952L13.224 3.83364C12.9121 4.14081 12.4125 4.13843 12.1038 3.82652L12.103 3.82731ZM19 9.20827V17.1249C19 18.4344 17.9344 19.4999 16.625 19.4999H3.95833C1.77571 19.4999 0 17.7242 0 15.5416V7.62494C0 6.92273 0.183667 6.26248 0.505875 5.6901C0.521708 5.65843 0.539125 5.62756 0.558917 5.59827C1.25083 4.44243 2.51592 3.6666 3.95833 3.6666H9.5C9.93779 3.6666 10.2917 4.02127 10.2917 4.45827C10.2917 4.89527 9.93779 5.24993 9.5 5.24993H3.95833C3.25612 5.24993 2.62358 5.55631 2.18896 6.04239C2.63467 6.53877 3.27829 6.83327 3.95833 6.83327H12.6667V7.62494C12.6667 8.93435 13.7323 9.99994 15.0417 9.99994C16.3511 9.99994 17.4167 8.93435 17.4167 7.62494V6.97894C18.3358 7.30668 19 8.17752 19 9.20827ZM15.8333 13.1666C15.8333 12.5111 15.3013 11.9791 14.6458 11.9791C13.9903 11.9791 13.4583 12.5111 13.4583 13.1666C13.4583 13.8221 13.9903 14.3541 14.6458 14.3541C15.3013 14.3541 15.8333 13.8221 15.8333 13.1666Z" fill="#A6ACC3"/>
</g>
<defs>
<clipPath id="clip0_537_10785">
<rect width="19" height="19" fill="white" transform="translate(0 0.5)"/>
</clipPath>
</defs>
</svg>
