<svg width="1441" height="500" viewBox="0 0 1441 500" fill="none" xmlns="http://www.w3.org/2000/svg">
<rect width="1441" height="500" rx="60" fill="url(#paint0_radial_72_259)"/>
<mask id="mask0_72_259" style="mask-type:alpha" maskUnits="userSpaceOnUse" x="0" y="0" width="1441" height="500">
<rect width="1441" height="500" rx="60" fill="#D9D9D9"/>
</mask>
<g mask="url(#mask0_72_259)">
<path opacity="0.1" d="M1450 987H-52V411.212C-52 411.212 145.138 298.221 520.638 376.79C774.882 429.987 867.193 447.981 1102.66 439.375C1338.13 430.77 1450 376.79 1450 376.79V987Z" fill="white"/>
<path opacity="0.1" d="M-52 932H1450V57C1450 57 1252.86 243.351 877.362 321.906C623.118 375.093 530.807 442.877 295.337 434.273C59.8677 425.669 -52 321.906 -52 321.906V932Z" fill="url(#paint1_linear_72_259)"/>
</g>
<defs>
<radialGradient id="paint0_radial_72_259" cx="0" cy="0" r="1" gradientUnits="userSpaceOnUse" gradientTransform="translate(720.5 250) rotate(84.0046) scale(295.804 851.44)">
<stop stop-color="#90BAFF"/>
<stop offset="1" stop-color="#67A1FF"/>
</radialGradient>
<linearGradient id="paint1_linear_72_259" x1="1172" y1="107" x2="699" y2="932" gradientUnits="userSpaceOnUse">
<stop stop-color="white"/>
<stop offset="0.521663" stop-color="white" stop-opacity="0.11"/>
</linearGradient>
</defs>
</svg>
