<svg width="19" height="19" viewBox="0 0 19 19" fill="none" xmlns="http://www.w3.org/2000/svg">
<g clip-path="url(#clip0_210_2354)">
<path d="M9.5 0C7.62108 0 5.78435 0.557165 4.22209 1.60104C2.65982 2.64491 1.44218 4.12861 0.723149 5.86451C0.00411622 7.60041 -0.184015 9.51054 0.182544 11.3534C0.549104 13.1962 1.45389 14.8889 2.78249 16.2175C4.11109 17.5461 5.80383 18.4509 7.64665 18.8175C9.48947 19.184 11.3996 18.9959 13.1355 18.2769C14.8714 17.5578 16.3551 16.3402 17.399 14.7779C18.4428 13.2157 19 11.3789 19 9.5C18.9973 6.98128 17.9955 4.5665 16.2145 2.78549C14.4335 1.00449 12.0187 0.00272419 9.5 0ZM12.6667 10.2917H10.2917V12.6667C10.2917 12.8766 10.2083 13.078 10.0598 13.2265C9.91133 13.3749 9.70997 13.4583 9.5 13.4583C9.29004 13.4583 9.08868 13.3749 8.94021 13.2265C8.79175 13.078 8.70834 12.8766 8.70834 12.6667V10.2917H6.33334C6.12337 10.2917 5.92201 10.2083 5.77354 10.0598C5.62508 9.91133 5.54167 9.70996 5.54167 9.5C5.54167 9.29004 5.62508 9.08867 5.77354 8.94021C5.92201 8.79174 6.12337 8.70833 6.33334 8.70833H8.70834V6.33333C8.70834 6.12337 8.79175 5.92201 8.94021 5.77354C9.08868 5.62507 9.29004 5.54167 9.5 5.54167C9.70997 5.54167 9.91133 5.62507 10.0598 5.77354C10.2083 5.92201 10.2917 6.12337 10.2917 6.33333V8.70833H12.6667C12.8766 8.70833 13.078 8.79174 13.2265 8.94021C13.3749 9.08867 13.4583 9.29004 13.4583 9.5C13.4583 9.70996 13.3749 9.91133 13.2265 10.0598C13.078 10.2083 12.8766 10.2917 12.6667 10.2917Z" fill="white"/>
</g>
<defs>
<clipPath id="clip0_210_2354">
<rect width="19" height="19" fill="white"/>
</clipPath>
</defs>
</svg>
