<svg width="37" height="59" viewBox="0 0 37 59" fill="none" xmlns="http://www.w3.org/2000/svg">
<g clip-path="url(#clip0_45_1913)">
<path d="M19.7853 50.5695L36.5881 35.3721C37.1383 34.8742 37.1373 34.068 36.5852 33.5709C36.0332 33.0742 35.1389 33.0755 34.5883 33.5735L18.7856 47.8663L2.98301 33.573C2.43231 33.075 1.5386 33.0738 0.986477 33.5704C0.709705 33.8196 0.571319 34.146 0.571319 34.4725C0.571319 34.7981 0.708778 35.1233 0.983631 35.372L17.7859 50.5695C18.0505 50.8093 18.4105 50.9439 18.7856 50.9439C19.1607 50.9439 19.5203 50.8089 19.7853 50.5695Z" fill="white"/>
</g>
<g clip-path="url(#clip1_45_1913)">
<path d="M19.7853 38.2838L36.5881 23.0864C37.1383 22.5885 37.1373 21.7824 36.5852 21.2853C36.0332 20.7886 35.1389 20.7899 34.5883 21.2878L18.7856 35.5806L2.98301 21.2873C2.43231 20.7894 1.5386 20.7881 0.986477 21.2848C0.709705 21.5339 0.571319 21.8604 0.571319 22.1869C0.571319 22.5125 0.708778 22.8376 0.983631 23.0864L17.7859 38.2838C18.0505 38.5237 18.4105 38.6582 18.7856 38.6582C19.1607 38.6582 19.5203 38.5233 19.7853 38.2838Z" fill="white" fill-opacity="0.3"/>
</g>
<g clip-path="url(#clip2_45_1913)">
<path d="M19.7853 25.4267L36.5881 10.2293C37.1383 9.73134 37.1373 8.92519 36.5852 8.4281C36.0332 7.9314 35.1389 7.93268 34.5883 8.43067L18.7856 22.7235L2.98301 8.43015C2.43231 7.93223 1.5386 7.93094 0.986477 8.42759C0.709705 8.67677 0.571319 9.00322 0.571319 9.32968C0.571319 9.6553 0.708778 9.98046 0.983631 10.2292L17.7859 25.4267C18.0505 25.6665 18.4105 25.8011 18.7856 25.8011C19.1607 25.8011 19.5203 25.6661 19.7853 25.4267Z" fill="white" fill-opacity="0.1"/>
</g>
<defs>
<clipPath id="clip0_45_1913">
<rect width="32.8571" height="36.4287" fill="white" transform="translate(37 25.6428) rotate(90)"/>
</clipPath>
<clipPath id="clip1_45_1913">
<rect width="32.8571" height="36.4287" fill="white" transform="translate(37 13.3572) rotate(90)"/>
</clipPath>
<clipPath id="clip2_45_1913">
<rect width="32.8571" height="36.4287" fill="white" transform="translate(37 0.5) rotate(90)"/>
</clipPath>
</defs>
</svg>
