<svg width="24" height="37" viewBox="0 0 24 37" fill="none" xmlns="http://www.w3.org/2000/svg">
<g clip-path="url(#clip0_72_341)">
<path d="M10.9818 5.05879L0.262795 14.7537C-0.0881945 15.0713 -0.0876046 15.5856 0.26461 15.9027C0.616779 16.2196 1.18727 16.2187 1.53853 15.9011L11.6195 6.78325L21.7005 15.9014C22.0518 16.219 22.6219 16.2199 22.9741 15.903C23.1507 15.7441 23.239 15.5358 23.239 15.3276C23.239 15.1198 23.1513 14.9124 22.976 14.7537L12.2572 5.05879C12.0885 4.90581 11.8588 4.81996 11.6195 4.81996C11.3802 4.81996 11.1509 4.90605 10.9818 5.05879Z" fill="white"/>
</g>
<g clip-path="url(#clip1_72_341)">
<path d="M10.9818 12.8967L0.262795 22.5916C-0.0881945 22.9092 -0.0876046 23.4235 0.26461 23.7406C0.616779 24.0575 1.18727 24.0566 1.53853 23.739L11.6195 14.6211L21.7005 23.7393C22.0518 24.0569 22.6219 24.0577 22.9741 23.7409C23.1507 23.582 23.239 23.3737 23.239 23.1655C23.239 22.9577 23.1513 22.7503 22.976 22.5916L12.2572 12.8967C12.0885 12.7437 11.8588 12.6578 11.6195 12.6578C11.3802 12.6578 11.1509 12.7439 10.9818 12.8967Z" fill="white" fill-opacity="0.3"/>
</g>
<g clip-path="url(#clip2_72_341)">
<path d="M10.9818 21.0983L0.262795 30.7932C-0.0881945 31.1109 -0.0876046 31.6251 0.26461 31.9423C0.616779 32.2591 1.18727 32.2583 1.53853 31.9406L11.6195 22.8228L21.7005 31.9409C22.0518 32.2586 22.6219 32.2594 22.9741 31.9426C23.1507 31.7836 23.239 31.5754 23.239 31.3671C23.239 31.1594 23.1513 30.952 22.976 30.7933L12.2572 21.0983C12.0885 20.9454 11.8588 20.8595 11.6195 20.8595C11.3802 20.8595 11.1509 20.9456 10.9818 21.0983Z" fill="white" fill-opacity="0.1"/>
</g>
<defs>
<clipPath id="clip0_72_341">
<rect width="20.9606" height="23.239" fill="white" transform="translate(0 20.9604) rotate(-90)"/>
</clipPath>
<clipPath id="clip1_72_341">
<rect width="20.9606" height="23.239" fill="white" transform="translate(0 28.7983) rotate(-90)"/>
</clipPath>
<clipPath id="clip2_72_341">
<rect width="20.9606" height="23.239" fill="white" transform="translate(0 37) rotate(-90)"/>
</clipPath>
</defs>
</svg>
