<svg width="41" height="41" viewBox="0 0 41 41" fill="none" xmlns="http://www.w3.org/2000/svg">
<g clip-path="url(#clip0_45_24)">
<path d="M27.5867 16.8965L23.4577 9.68945H17.6761L13.9221 16.8965H27.5867Z" fill="white"/>
<path d="M13.7092 19.2988L20.4752 37.7543L28.2447 19.2988H13.7092Z" fill="white"/>
<path d="M0 19.2988L19.0805 41L19.0943 40.969L11.1262 19.2988H0Z" fill="white"/>
<path d="M14.968 9.68945H5.44375L0 16.8965H11.2141L14.968 9.68945Z" fill="white"/>
<path d="M30.3566 16.8965H41.0001L35.5576 9.68945H26.2275L30.3566 16.8965Z" fill="white"/>
<path d="M21.7036 40.8574L21.7599 41L40.9999 19.2988H30.8832L21.7036 40.8574Z" fill="white"/>
<path d="M19.2988 0H21.7012V3.60352H19.2988V0Z" fill="white"/>
<path d="M14.191 2.81079L16.5933 5.21313L14.8948 6.91167L12.4924 4.50932L14.191 2.81079Z" fill="white"/>
<path d="M26.9062 2.81055L28.6047 4.50908L26.2027 6.91142L24.5042 5.21289L26.9062 2.81055Z" fill="white"/>
</g>
<defs>
<clipPath id="clip0_45_24">
<rect width="41" height="41" fill="white"/>
</clipPath>
</defs>
</svg>
