<svg width="1920" height="891" viewBox="0 0 1920 891" fill="none" xmlns="http://www.w3.org/2000/svg">
<path d="M1920 882.5L0 882.5L7.42294e-05 33.4141C7.42294e-05 33.4141 171.873 33.8529 282 33.4142C501.396 32.5402 679.779 32.4088 852 32.5468C888.164 32.5758 924.057 -0.0484269 960 -8.39259e-05C995.513 0.0477097 1031.08 32.768 1067 32.8262C1229.12 33.0887 1398.58 33.4143 1604 33.4143C1764.93 33.4143 1920 33.4143 1920 33.4143L1920 882.5Z" fill="url(#paint0_linear_45_35)"/>
<mask id="mask0_45_35" style="mask-type:alpha" maskUnits="userSpaceOnUse" x="0" y="-1" width="1920" height="884">
<path d="M1920 882.5L0 882.5L7.42294e-05 33.4141C7.42294e-05 33.4141 171.873 33.8529 282 33.4142C501.396 32.5402 679.779 32.4088 852 32.5468C888.164 32.5758 924.057 -0.0484269 960 -8.39259e-05C995.513 0.0477097 1031.08 32.768 1067 32.8262C1229.12 33.0887 1398.58 33.4143 1604 33.4143C1764.93 33.4143 1920 33.4143 1920 33.4143L1920 882.5Z" fill="#D9D9D9"/>
</mask>
<g mask="url(#mask0_45_35)">
<path opacity="0.1" d="M-4 1438H1978V678.104C1978 678.104 1717.86 528.984 1222.36 632.675C886.868 702.883 765.057 726.63 454.337 715.273C143.618 703.916 -4 632.675 -4 632.675V1438Z" fill="url(#paint1_radial_45_35)"/>
<path opacity="0.1" d="M1978 1366H-4V211C-4 211 256.138 456.984 751.638 560.675C1087.13 630.883 1208.94 720.357 1519.66 709C1830.38 697.643 1978 560.675 1978 560.675V1366Z" fill="url(#paint2_radial_45_35)"/>
</g>
<defs>
<linearGradient id="paint0_linear_45_35" x1="973.445" y1="9.00002" x2="973.446" y2="1293" gradientUnits="userSpaceOnUse">
<stop stop-color="#67A1FF" stop-opacity="0.3"/>
<stop offset="0.756563" stop-color="#67A1FF" stop-opacity="0"/>
<stop offset="0.914081" stop-color="#67A1FF" stop-opacity="0"/>
</linearGradient>
<radialGradient id="paint1_radial_45_35" cx="0" cy="0" r="1" gradientUnits="userSpaceOnUse" gradientTransform="translate(987 1017) rotate(-85.0972) scale(497.229 1173.23)">
<stop stop-color="#90BAFF"/>
<stop offset="1" stop-color="#67A1FF"/>
</radialGradient>
<radialGradient id="paint2_radial_45_35" cx="0" cy="0" r="1" gradientUnits="userSpaceOnUse" gradientTransform="translate(987 788.5) rotate(-93.5782) scale(680.897 1175.24)">
<stop stop-color="#90BAFF"/>
<stop offset="1" stop-color="#67A1FF"/>
</radialGradient>
</defs>
</svg>
