<svg width="63" height="62" viewBox="0 0 63 62" fill="none" xmlns="http://www.w3.org/2000/svg">
<path d="M62.5444 11.0949C62.1824 10.6583 61.6527 10.4067 61.0949 10.4067H17.0985L16.7916 7.99277C16.5085 5.77037 15.4583 3.73904 13.8345 2.27299C12.2109 0.807328 10.1172 0 7.93942 0H1.90525C0.853043 0 0 0.877775 0 1.96049C0 3.0432 0.853043 3.92097 1.90525 3.92097H7.93942C10.5414 3.92097 12.6754 5.84761 13.0133 8.50172L17.0681 40.4001L16.9434 40.4113C13.574 40.7149 11.0523 43.6744 11.2025 47.146C11.3477 50.6204 14.1075 53.3384 17.4879 53.3384H17.4978L19.478 53.3352C19.1886 54.0662 19.0278 54.8646 19.0278 55.7014C19.0278 59.1744 21.7722 62 25.1455 62C28.5188 62 31.2666 59.1744 31.2666 55.7014C31.2666 54.8574 31.1032 54.0524 30.809 53.3164L43.0238 53.2961C42.7347 54.0267 42.574 54.8246 42.574 55.6607C42.574 59.1339 45.32 61.9595 48.6952 61.9595C52.0704 61.9595 54.8128 59.1339 54.8128 55.6607C54.8128 52.1875 52.0685 49.3657 48.6952 49.3657C48.6942 49.3657 48.6932 49.3657 48.6922 49.3657C48.6911 49.3657 17.4917 49.4175 17.4917 49.4175H17.4878C16.1548 49.4175 15.0666 48.3465 15.0092 46.9748C14.9498 45.6045 15.9454 44.4372 17.274 44.3175L52.888 41.1389C56.3257 40.8333 59.0025 38.2717 59.5486 34.7639L62.9762 12.6762C63.0641 12.1095 62.9062 11.5315 62.5443 11.0948L62.5444 11.0949ZM25.1455 58.0792C23.8733 58.0792 22.8383 57.0125 22.8383 55.7015C22.8383 54.3904 23.8733 53.3273 25.1455 53.3273C26.4177 53.3273 27.4561 54.3923 27.4561 55.7015C27.4561 57.0107 26.4196 58.0792 25.1455 58.0792ZM51.0025 55.6607C51.0025 56.9719 49.9675 58.0385 48.6953 58.0385C47.4231 58.0385 46.3846 56.9719 46.3846 55.6607C46.3846 54.3495 47.4212 53.2867 48.6952 53.2867H48.6955C49.9675 53.2867 51.0025 54.3517 51.0025 55.6607ZM28.0851 34.2727C28.0245 34.2786 27.9643 34.2815 27.9046 34.2815C26.9327 34.2815 26.1027 33.5199 26.0099 32.5042L24.8147 19.4154C24.7164 18.3373 25.4857 17.3814 26.5334 17.2801C27.5797 17.179 28.51 17.9706 28.6086 19.0486L29.8038 32.1375C29.9021 33.2155 29.1328 34.1714 28.0851 34.2727ZM40.2567 32.3208C40.2567 33.4036 39.4037 34.2813 38.3515 34.2813C37.2993 34.2813 36.4462 33.4036 36.4462 32.3208V19.232C36.4462 18.1493 37.2993 17.2715 38.3515 17.2715C39.4037 17.2715 40.2567 18.1493 40.2567 19.232V32.3208ZM51.8881 19.416L50.6894 32.5049C50.5964 33.5203 49.7663 34.2815 48.7948 34.2815C48.7348 34.2815 48.6746 34.2786 48.6138 34.2727C47.5662 34.1712 46.7969 33.215 46.8958 32.137L48.0945 19.0481C48.1931 17.9701 49.1227 17.1775 50.1701 17.2803C51.2178 17.3818 51.987 18.338 51.8881 19.416Z" fill="white"/>
</svg>
