<svg width="25" height="27" viewBox="0 0 25 27" fill="none" xmlns="http://www.w3.org/2000/svg">
<path d="M15.8994 23C15.4344 25.279 13.4144 27 11.0004 27C8.58643 27 6.56543 25.279 6.10143 23H15.8994ZM19.5004 10C21.4304 10 23.0004 8.43 23.0004 6.5C23.0004 4.57 21.4304 3 19.5004 3C17.5704 3 16.0004 4.57 16.0004 6.5C16.0004 8.43 17.5704 10 19.5004 10ZM19.7404 11.988C19.6604 11.991 19.5814 12 19.5004 12C16.4674 12 14.0004 9.533 14.0004 6.5C14.0004 5.596 14.2234 4.744 14.6124 3.991C13.4304 3.356 12.0864 3 10.6764 3C6.77543 3 3.39843 5.709 2.55243 9.516L0.202426 17.113C-0.394574 19.043 1.04843 20.999 3.06843 20.999H18.7244C20.8044 20.999 22.2534 18.934 21.5454 16.978L19.7394 11.986L19.7404 11.988Z" fill="white"/>
<circle cx="19" cy="6" r="6" fill="url(#paint0_radial_175_61)"/>
<defs>
<radialGradient id="paint0_radial_175_61" cx="0" cy="0" r="1" gradientUnits="userSpaceOnUse" gradientTransform="translate(19 6) scale(6)">
<stop stop-color="#7825FF"/>
<stop offset="1" stop-color="#6615E9"/>
</radialGradient>
</defs>
</svg>
