<svg width="1920" height="883" viewBox="0 0 1920 883" fill="none" xmlns="http://www.w3.org/2000/svg">
<path d="M1920 883L0 883L7.42294e-05 33.9141C7.42294e-05 33.9141 171.873 34.3529 282 33.9142C501.396 33.0402 679.779 32.9088 852 33.0468C888.164 33.0758 924.057 0.451573 960 0.499916C995.513 0.54771 1031.08 33.268 1067 33.3262C1229.12 33.5887 1398.58 33.9143 1604 33.9143C1764.93 33.9143 1920 33.9143 1920 33.9143L1920 883Z" fill="url(#paint0_linear_45_1976)"/>
<mask id="mask0_45_1976" style="mask-type:alpha" maskUnits="userSpaceOnUse" x="0" y="0" width="1920" height="883">
<path d="M1920 883L0 883L7.42294e-05 33.9141C7.42294e-05 33.9141 171.873 34.3529 282 33.9142C501.396 33.0402 679.779 32.9088 852 33.0468C888.164 33.0758 924.057 0.451573 960 0.499916C995.513 0.54771 1031.08 33.268 1067 33.3262C1229.12 33.5887 1398.58 33.9143 1604 33.9143C1764.93 33.9143 1920 33.9143 1920 33.9143L1920 883Z" fill="#D9D9D9"/>
</mask>
<g mask="url(#mask0_45_1976)">
<path opacity="0.1" d="M-4 1438.5H1978V678.604C1978 678.604 1717.86 529.484 1222.36 633.175C886.868 703.383 765.057 727.13 454.337 715.773C143.618 704.416 -4 633.175 -4 633.175V1438.5Z" fill="url(#paint1_radial_45_1976)"/>
<path opacity="0.1" d="M1978 1366.5H-4V211.5C-4 211.5 256.138 457.484 751.638 561.175C1087.13 631.383 1208.94 720.857 1519.66 709.5C1830.38 698.143 1978 561.175 1978 561.175V1366.5Z" fill="url(#paint2_radial_45_1976)"/>
</g>
<circle cx="214" cy="144.5" r="28" fill="url(#paint3_radial_45_1976)"/>
<g clip-path="url(#clip0_45_1976)">
<path d="M218.929 133.5H209.071C205.724 133.5 203 136.224 203 139.571V149.429C203 152.776 205.724 155.5 209.071 155.5H218.929C222.277 155.5 225 152.776 225 149.429V139.571C225 136.224 222.277 133.5 218.929 133.5ZM223.048 149.429C223.048 151.7 221.2 153.548 218.929 153.548H209.071C206.8 153.548 204.952 151.7 204.952 149.429V139.571C204.952 137.3 206.8 135.452 209.071 135.452H218.929C221.2 135.452 223.048 137.3 223.048 139.571V149.429H223.048Z" fill="white"/>
<path d="M214 138.831C210.874 138.831 208.331 141.374 208.331 144.5C208.331 147.626 210.874 150.169 214 150.169C217.126 150.169 219.669 147.626 219.669 144.5C219.669 141.374 217.126 138.831 214 138.831ZM214 148.217C211.951 148.217 210.283 146.549 210.283 144.5C210.283 142.45 211.951 140.783 214 140.783C216.05 140.783 217.717 142.45 217.717 144.5C217.717 146.549 216.05 148.217 214 148.217Z" fill="white"/>
<path d="M219.907 137.176C219.531 137.176 219.161 137.329 218.896 137.595C218.629 137.861 218.475 138.23 218.475 138.608C218.475 138.984 218.629 139.353 218.896 139.62C219.161 139.886 219.531 140.039 219.907 140.039C220.284 140.039 220.652 139.886 220.919 139.62C221.186 139.353 221.338 138.984 221.338 138.608C221.338 138.23 221.186 137.861 220.919 137.595C220.654 137.329 220.284 137.176 219.907 137.176Z" fill="white"/>
</g>
<g opacity="0.2">
<circle cx="941" cy="763.5" r="19" fill="url(#paint4_radial_45_1976)"/>
<g clip-path="url(#clip1_45_1976)">
<path d="M944.344 756.036H937.655C935.384 756.036 933.536 757.884 933.536 760.155V766.844C933.536 769.116 935.384 770.964 937.655 770.964H944.344C946.616 770.964 948.464 769.116 948.464 766.844V760.155C948.464 757.884 946.616 756.036 944.344 756.036ZM947.14 766.844C947.14 768.386 945.886 769.64 944.344 769.64H937.655C936.114 769.64 934.86 768.386 934.86 766.844V760.155C934.86 758.614 936.114 757.36 937.655 757.36H944.344C945.886 757.36 947.14 758.614 947.14 760.155V766.844H947.14Z" fill="white"/>
<path d="M941 759.653C938.879 759.653 937.153 761.379 937.153 763.5C937.153 765.621 938.879 767.347 941 767.347C943.121 767.347 944.846 765.621 944.846 763.5C944.846 761.379 943.121 759.653 941 759.653ZM941 766.022C939.609 766.022 938.478 764.891 938.478 763.5C938.478 762.109 939.609 760.978 941 760.978C942.391 760.978 943.522 762.109 943.522 763.5C943.522 764.891 942.39 766.022 941 766.022Z" fill="white"/>
<path d="M945.008 758.53C944.753 758.53 944.502 758.634 944.322 758.815C944.141 758.995 944.037 759.246 944.037 759.502C944.037 759.757 944.141 760.008 944.322 760.189C944.502 760.369 944.753 760.473 945.008 760.473C945.264 760.473 945.514 760.369 945.695 760.189C945.876 760.008 945.979 759.757 945.979 759.502C945.979 759.246 945.876 758.995 945.695 758.815C945.515 758.634 945.264 758.53 945.008 758.53Z" fill="white"/>
</g>
</g>
<circle cx="1010" cy="776.5" r="28" fill="url(#paint5_radial_45_1976)"/>
<g clip-path="url(#clip2_45_1976)">
<path d="M1014.93 765.5H1005.07C1001.72 765.5 999 768.224 999 771.571V781.429C999 784.776 1001.72 787.5 1005.07 787.5H1014.93C1018.28 787.5 1021 784.776 1021 781.429V771.571C1021 768.224 1018.28 765.5 1014.93 765.5ZM1019.05 781.429C1019.05 783.7 1017.2 785.548 1014.93 785.548H1005.07C1002.8 785.548 1000.95 783.7 1000.95 781.429V771.571C1000.95 769.3 1002.8 767.452 1005.07 767.452H1014.93C1017.2 767.452 1019.05 769.3 1019.05 771.571V781.429H1019.05Z" fill="white"/>
<path d="M1010 770.831C1006.87 770.831 1004.33 773.374 1004.33 776.5C1004.33 779.626 1006.87 782.169 1010 782.169C1013.13 782.169 1015.67 779.626 1015.67 776.5C1015.67 773.374 1013.13 770.831 1010 770.831ZM1010 780.217C1007.95 780.217 1006.28 778.549 1006.28 776.5C1006.28 774.45 1007.95 772.783 1010 772.783C1012.05 772.783 1013.72 774.45 1013.72 776.5C1013.72 778.549 1012.05 780.217 1010 780.217Z" fill="white"/>
<path d="M1015.91 769.176C1015.53 769.176 1015.16 769.329 1014.9 769.595C1014.63 769.861 1014.48 770.23 1014.48 770.608C1014.48 770.984 1014.63 771.353 1014.9 771.62C1015.16 771.886 1015.53 772.039 1015.91 772.039C1016.28 772.039 1016.65 771.886 1016.92 771.62C1017.19 771.353 1017.34 770.984 1017.34 770.608C1017.34 770.23 1017.19 769.861 1016.92 769.595C1016.65 769.329 1016.28 769.176 1015.91 769.176Z" fill="white"/>
</g>
<circle cx="180.139" cy="254.639" r="38.1391" fill="url(#paint6_radial_45_1976)"/>
<path d="M167.79 237.896L174.479 244.585H162.894C163.13 243.165 163.696 241.82 164.547 240.658C165.397 239.497 166.508 238.551 167.79 237.896ZM176.78 236.862H172.023C171.729 236.862 171.436 236.877 171.142 236.892L178.835 244.585H184.504L176.78 236.862ZM187.469 236.862H181.167L188.89 244.585H196.598C196.236 242.426 195.121 240.465 193.449 239.05C191.778 237.636 189.659 236.861 187.469 236.862ZM177.401 262.543L185.124 258.295C185.367 258.162 185.569 257.966 185.71 257.728C185.851 257.49 185.925 257.219 185.925 256.942C185.925 256.666 185.851 256.394 185.71 256.156C185.569 255.918 185.367 255.722 185.124 255.589L177.401 251.341C177.166 251.212 176.901 251.146 176.633 251.15C176.364 251.154 176.102 251.228 175.871 251.365C175.64 251.502 175.448 251.696 175.315 251.929C175.182 252.162 175.112 252.426 175.112 252.694V261.19C175.112 261.458 175.182 261.722 175.315 261.955C175.448 262.188 175.64 262.383 175.871 262.519C176.102 262.656 176.364 262.73 176.633 262.734C176.901 262.738 177.166 262.673 177.401 262.543ZM196.737 247.674V261.576C196.735 264.034 195.758 266.39 194.021 268.128C192.283 269.865 189.927 270.842 187.469 270.844H172.023C169.565 270.842 167.209 269.865 165.471 268.128C163.734 266.39 162.757 264.034 162.755 261.576V247.674H196.737Z" fill="white"/>
<circle cx="1075.5" cy="823" r="18.4998" fill="url(#paint7_radial_45_1976)"/>
<path d="M1069.51 814.879L1072.75 818.123H1067.13C1067.25 817.434 1067.52 816.782 1067.94 816.218C1068.35 815.655 1068.89 815.196 1069.51 814.879ZM1073.87 814.377H1071.56C1071.42 814.377 1071.28 814.384 1071.14 814.392L1074.87 818.123H1077.62L1073.87 814.377ZM1079.06 814.377H1076L1079.74 818.123H1083.48C1083.31 817.076 1082.77 816.124 1081.96 815.438C1081.15 814.752 1080.12 814.376 1079.06 814.377ZM1074.17 826.834L1077.92 824.773C1078.04 824.709 1078.13 824.614 1078.2 824.498C1078.27 824.383 1078.31 824.251 1078.31 824.117C1078.31 823.983 1078.27 823.851 1078.2 823.736C1078.13 823.62 1078.04 823.525 1077.92 823.461L1074.17 821.4C1074.06 821.338 1073.93 821.306 1073.8 821.308C1073.67 821.31 1073.54 821.346 1073.43 821.412C1073.32 821.478 1073.22 821.572 1073.16 821.685C1073.1 821.798 1073.06 821.926 1073.06 822.057V826.178C1073.06 826.308 1073.1 826.436 1073.16 826.549C1073.22 826.662 1073.32 826.756 1073.43 826.822C1073.54 826.889 1073.67 826.925 1073.8 826.927C1073.93 826.929 1074.06 826.897 1074.17 826.834ZM1083.55 819.622V826.365C1083.55 827.557 1083.08 828.7 1082.23 829.543C1081.39 830.385 1080.25 830.859 1079.06 830.86H1071.56C1070.37 830.859 1069.23 830.385 1068.38 829.543C1067.54 828.7 1067.07 827.557 1067.07 826.365V819.622H1083.55Z" fill="white"/>
<circle cx="102" cy="216.5" r="28" fill="url(#paint8_radial_45_1976)"/>
<path d="M88.6174 216.332L95.0579 218.519L110.348 209.171C110.57 209.036 110.797 209.337 110.606 209.513L99.0298 220.168L98.5994 226.133C98.5666 226.587 99.1132 226.839 99.4376 226.52L103.002 223.016L109.518 227.948C110.22 228.48 111.237 228.105 111.426 227.245L115.963 206.645C116.222 205.47 115.07 204.478 113.947 204.908L88.5847 214.62C87.7891 214.925 87.8107 216.058 88.6174 216.332Z" fill="white"/>
<g opacity="0.5">
<circle cx="1001" cy="838.5" r="16" fill="url(#paint9_radial_45_1976)"/>
<path d="M993.353 838.404L997.033 839.654L1005.77 834.312C1005.9 834.235 1006.03 834.407 1005.92 834.507L999.303 840.596L999.057 844.005C999.038 844.264 999.35 844.408 999.536 844.226L1001.57 842.223L1005.3 845.042C1005.7 845.346 1006.28 845.131 1006.39 844.64L1008.98 832.868C1009.13 832.197 1008.47 831.63 1007.83 831.876L993.334 837.426C992.879 837.6 992.892 838.247 993.353 838.404Z" fill="white"/>
</g>
<circle cx="208" cy="359.5" r="23" fill="url(#paint10_radial_45_1976)"/>
<g clip-path="url(#clip3_45_1976)">
<path d="M208 370.014C207.889 370.014 207.777 369.985 207.678 369.927C207.569 369.865 204.997 368.371 202.387 366.121C200.841 364.787 199.606 363.464 198.718 362.188C197.569 360.538 196.991 358.951 197 357.47C197.011 355.748 197.628 354.128 198.738 352.909C199.866 351.669 201.372 350.987 202.977 350.987C205.035 350.987 206.917 352.139 208 353.966C209.083 352.139 210.965 350.987 213.023 350.987C214.54 350.987 215.987 351.602 217.099 352.721C218.318 353.948 219.011 355.682 219 357.479C218.991 358.956 218.402 360.541 217.25 362.189C216.359 363.464 215.126 364.786 213.586 366.12C210.986 368.37 208.431 369.864 208.324 369.926C208.224 369.985 208.112 370.014 208 370.014Z" fill="white"/>
</g>
<circle cx="877" cy="783.5" r="23" fill="url(#paint11_radial_45_1976)"/>
<g clip-path="url(#clip4_45_1976)">
<path d="M877 794.014C876.889 794.014 876.777 793.985 876.678 793.927C876.569 793.865 873.997 792.371 871.387 790.121C869.841 788.787 868.606 787.464 867.718 786.188C866.569 784.538 865.991 782.951 866 781.47C866.011 779.748 866.628 778.128 867.738 776.909C868.866 775.669 870.372 774.987 871.977 774.987C874.035 774.987 875.917 776.139 877 777.966C878.083 776.139 879.965 774.987 882.023 774.987C883.54 774.987 884.987 775.602 886.099 776.721C887.318 777.948 888.011 779.682 888 781.479C887.991 782.956 887.402 784.541 886.25 786.189C885.359 787.464 884.126 788.786 882.586 790.12C879.986 792.37 877.431 793.864 877.324 793.926C877.224 793.985 877.112 794.014 877 794.014Z" fill="white"/>
</g>
<g opacity="0.4">
<circle cx="129.5" cy="292" r="13.5001" fill="url(#paint12_radial_45_1976)"/>
<g clip-path="url(#clip5_45_1976)">
<path d="M129.5 298.171C129.435 298.171 129.369 298.154 129.311 298.12C129.247 298.084 127.737 297.207 126.206 295.886C125.298 295.103 124.573 294.327 124.052 293.578C123.377 292.609 123.038 291.678 123.044 290.809C123.05 289.798 123.412 288.847 124.063 288.131C124.726 287.404 125.609 287.003 126.552 287.003C127.76 287.003 128.864 287.68 129.5 288.752C130.136 287.68 131.24 287.003 132.448 287.003C133.339 287.003 134.188 287.364 134.841 288.021C135.556 288.741 135.963 289.759 135.957 290.813C135.951 291.681 135.605 292.611 134.929 293.578C134.406 294.327 133.683 295.103 132.779 295.886C131.252 297.206 129.753 298.083 129.69 298.12C129.631 298.154 129.566 298.171 129.5 298.171Z" fill="white"/>
</g>
</g>
<defs>
<linearGradient id="paint0_linear_45_1976" x1="973.445" y1="9.50002" x2="973.446" y2="1293.5" gradientUnits="userSpaceOnUse">
<stop stop-color="#67A1FF" stop-opacity="0.3"/>
<stop offset="0.756563" stop-color="#67A1FF" stop-opacity="0"/>
<stop offset="0.914081" stop-color="#67A1FF" stop-opacity="0"/>
</linearGradient>
<radialGradient id="paint1_radial_45_1976" cx="0" cy="0" r="1" gradientUnits="userSpaceOnUse" gradientTransform="translate(987 1017.5) rotate(-85.0972) scale(497.229 1173.23)">
<stop stop-color="#90BAFF"/>
<stop offset="1" stop-color="#67A1FF"/>
</radialGradient>
<radialGradient id="paint2_radial_45_1976" cx="0" cy="0" r="1" gradientUnits="userSpaceOnUse" gradientTransform="translate(987 789) rotate(-93.5782) scale(680.897 1175.24)">
<stop stop-color="#90BAFF"/>
<stop offset="1" stop-color="#67A1FF"/>
</radialGradient>
<radialGradient id="paint3_radial_45_1976" cx="0" cy="0" r="1" gradientUnits="userSpaceOnUse" gradientTransform="translate(214 144.5) rotate(87.913) scale(32.9707 33.2485)">
<stop stop-color="#90BAFF"/>
<stop offset="1" stop-color="#67A1FF"/>
</radialGradient>
<radialGradient id="paint4_radial_45_1976" cx="0" cy="0" r="1" gradientUnits="userSpaceOnUse" gradientTransform="translate(941 763.5) rotate(87.913) scale(22.373 22.5615)">
<stop stop-color="#90BAFF"/>
<stop offset="1" stop-color="#67A1FF"/>
</radialGradient>
<radialGradient id="paint5_radial_45_1976" cx="0" cy="0" r="1" gradientUnits="userSpaceOnUse" gradientTransform="translate(1010 776.5) rotate(87.913) scale(32.9707 33.2485)">
<stop stop-color="#90BAFF"/>
<stop offset="1" stop-color="#67A1FF"/>
</radialGradient>
<radialGradient id="paint6_radial_45_1976" cx="0" cy="0" r="1" gradientUnits="userSpaceOnUse" gradientTransform="translate(180.139 254.639) scale(38.1391)">
<stop stop-color="#904BFF"/>
<stop offset="1" stop-color="#6615E9"/>
</radialGradient>
<radialGradient id="paint7_radial_45_1976" cx="0" cy="0" r="1" gradientUnits="userSpaceOnUse" gradientTransform="translate(1075.5 823) scale(18.4998)">
<stop stop-color="#904BFF"/>
<stop offset="1" stop-color="#6615E9"/>
</radialGradient>
<radialGradient id="paint8_radial_45_1976" cx="0" cy="0" r="1" gradientUnits="userSpaceOnUse" gradientTransform="translate(102 216.5) rotate(87.913) scale(32.9707 33.2485)">
<stop stop-color="#90BAFF"/>
<stop offset="1" stop-color="#67A1FF"/>
</radialGradient>
<radialGradient id="paint9_radial_45_1976" cx="0" cy="0" r="1" gradientUnits="userSpaceOnUse" gradientTransform="translate(1001 838.5) rotate(87.913) scale(18.8404 18.9991)">
<stop stop-color="#90BAFF"/>
<stop offset="1" stop-color="#67A1FF"/>
</radialGradient>
<radialGradient id="paint10_radial_45_1976" cx="0" cy="0" r="1" gradientUnits="userSpaceOnUse" gradientTransform="translate(208 359.5) rotate(87.913) scale(27.0831 27.3113)">
<stop stop-color="#90BAFF"/>
<stop offset="1" stop-color="#67A1FF"/>
</radialGradient>
<radialGradient id="paint11_radial_45_1976" cx="0" cy="0" r="1" gradientUnits="userSpaceOnUse" gradientTransform="translate(877 783.5) rotate(87.913) scale(27.0831 27.3113)">
<stop stop-color="#90BAFF"/>
<stop offset="1" stop-color="#67A1FF"/>
</radialGradient>
<radialGradient id="paint12_radial_45_1976" cx="0" cy="0" r="1" gradientUnits="userSpaceOnUse" gradientTransform="translate(129.5 292) rotate(87.913) scale(15.8967 16.0307)">
<stop stop-color="#90BAFF"/>
<stop offset="1" stop-color="#67A1FF"/>
</radialGradient>
<clipPath id="clip0_45_1976">
<rect width="22" height="22" fill="white" transform="translate(203 133.5)"/>
</clipPath>
<clipPath id="clip1_45_1976">
<rect width="14.9286" height="14.9286" fill="white" transform="translate(933.536 756.036)"/>
</clipPath>
<clipPath id="clip2_45_1976">
<rect width="22" height="22" fill="white" transform="translate(999 765.5)"/>
</clipPath>
<clipPath id="clip3_45_1976">
<rect width="22" height="22" fill="white" transform="translate(197 349.5)"/>
</clipPath>
<clipPath id="clip4_45_1976">
<rect width="22" height="22" fill="white" transform="translate(866 773.5)"/>
</clipPath>
<clipPath id="clip5_45_1976">
<rect width="12.9132" height="12.9132" fill="white" transform="translate(123.043 286.13)"/>
</clipPath>
</defs>
</svg>
