<svg width="36" height="36" viewBox="0 0 36 36" fill="none" xmlns="http://www.w3.org/2000/svg">
<g clip-path="url(#clip0_116_2479)">
<path d="M25.2324 0H10.768C4.83064 0 0.000244141 4.83047 0.000244141 10.7679V25.2321C0.000244141 31.1695 4.83064 36 10.768 36H25.2323C31.1697 36 36.0001 31.1695 36.0001 25.2321V10.7679C36.0002 4.83047 31.1697 0 25.2324 0ZM14.0745 27.8646C14.4862 28.2763 14.4862 28.9439 14.0745 29.3556C13.8686 29.5615 13.5988 29.6645 13.329 29.6645C13.0592 29.6645 12.7894 29.5616 12.5836 29.3556L10.5371 27.3091L8.49055 29.3556C8.28474 29.5615 8.01481 29.6645 7.7451 29.6645C7.47524 29.6645 7.20552 29.5616 6.99964 29.3556C6.58789 28.9439 6.58789 28.2763 6.99964 27.8646L9.04616 25.818L6.99964 23.7715C6.58789 23.3599 6.58789 22.6922 6.99964 22.2805C7.41132 21.8687 8.07894 21.8687 8.49069 22.2805L10.5372 24.327L12.5837 22.2805C12.9954 21.8687 13.663 21.8687 14.0748 22.2805C14.4865 22.6922 14.4865 23.3598 14.0748 23.7715L12.0283 25.818L14.0745 27.8646ZM14.4855 11.9257H11.5912V14.8199C11.5912 15.4022 11.1191 15.8742 10.5369 15.8742C9.95459 15.8742 9.48252 15.4022 9.48252 14.8199V11.9257H6.58831C6.00606 11.9257 5.53398 11.4536 5.53398 10.8714C5.53398 10.2891 6.00606 9.81703 6.58831 9.81703H9.48252V6.92276C9.48252 6.3405 9.95459 5.86842 10.5369 5.86842C11.1191 5.86842 11.5912 6.3405 11.5912 6.92276V9.81696H14.4854C15.0676 9.81696 15.5397 10.289 15.5397 10.8713C15.5398 11.4536 15.0677 11.9257 14.4855 11.9257ZM29.1479 28.981H21.2509C20.6686 28.981 20.1965 28.5089 20.1965 27.9266C20.1965 27.3444 20.6686 26.8723 21.2509 26.8723H29.148C29.7303 26.8723 30.2023 27.3444 30.2023 27.9266C30.2023 28.509 29.7303 28.981 29.1479 28.981ZM29.1479 24.7636H21.2509C20.6686 24.7636 20.1965 24.2916 20.1965 23.7093C20.1965 23.127 20.6686 22.655 21.2509 22.655H29.148C29.7303 22.655 30.2023 23.127 30.2023 23.7093C30.2023 24.2916 29.7303 24.7636 29.1479 24.7636ZM29.1479 11.9257H21.2509C20.6686 11.9257 20.1965 11.4536 20.1965 10.8714C20.1965 10.2891 20.6686 9.81703 21.2509 9.81703H29.148C29.7303 9.81703 30.2023 10.2891 30.2023 10.8714C30.2023 11.4536 29.7303 11.9257 29.1479 11.9257Z" fill="white"/>
</g>
<defs>
<clipPath id="clip0_116_2479">
<rect width="36" height="36" fill="white"/>
</clipPath>
</defs>
</svg>
