<svg width="25" height="26" viewBox="0 0 25 26" fill="none" xmlns="http://www.w3.org/2000/svg">
<g clip-path="url(#clip0_170_7311)">
<path d="M19.238 13.168H14.4208C13.2918 13.168 12.3765 12.2527 12.3765 11.1237V6.29319C12.3793 5.34023 11.9389 4.44006 11.1847 3.8575C10.4701 3.29156 9.53299 3.08985 8.64883 3.31168C2.63924 4.80347 -1.02319 10.8846 0.46864 16.8942C1.51968 21.1283 4.93139 24.3682 9.21409 25.1994C15.0646 26.3192 20.7732 22.6817 22.2298 16.9059C22.4524 16.0205 22.2511 15.0821 21.685 14.3659C21.0957 13.6131 20.1941 13.1716 19.238 13.168Z" fill="white"/>
<path d="M24.2853 8.5133C24.0519 7.646 23.7044 6.81353 23.2519 6.03774C21.8907 3.70261 19.6672 1.99517 17.0599 1.28282C16.8881 1.23649 16.5038 1.20923 16.5038 1.20923C16.3665 1.20928 15.7751 1.20923 15.307 1.58845C14.6189 2.1299 14.5107 2.74547 14.5005 2.79353C14.4648 2.94426 14.4463 3.09859 14.4453 3.25348V8.05746C14.4453 9.75096 15.8182 11.1238 17.5117 11.1238H22.3351C22.975 11.1256 23.5773 10.8218 23.9562 10.3061C24.2363 9.92833 24.3805 9.46684 24.365 8.99678C24.3568 8.83311 24.3301 8.67088 24.2853 8.5133Z" fill="white"/>
</g>
<defs>
<clipPath id="clip0_170_7311">
<rect width="24.5309" height="24.5309" fill="white" transform="translate(0.110352 0.902588)"/>
</clipPath>
</defs>
</svg>
