<svg width="109" height="109" viewBox="0 0 109 109" fill="none" xmlns="http://www.w3.org/2000/svg">
<circle cx="54.5" cy="54.5" r="54.5" fill="url(#paint0_radial_210_2477)"/>
<circle cx="55" cy="54" r="37" fill="#67A1FF"/>
<g clip-path="url(#clip0_210_2477)">
<path d="M62.5 53.9949V45.2449C62.5 41.7986 59.6963 38.9949 56.25 38.9949H46.25C42.8038 38.9949 40 41.7986 40 45.2449V61.3124C40 62.3036 40.5437 63.2111 41.4175 63.6799C41.815 63.8936 42.2513 63.9986 42.6862 63.9986C43.2062 63.9986 43.725 63.8474 44.175 63.5486L49.1287 60.2449H56.25C59.6963 60.2449 62.5 57.4411 62.5 53.9949ZM51.25 56.4999C50.56 56.4999 50 55.9399 50 55.2499C50 54.5599 50.56 53.9999 51.25 53.9999C51.94 53.9999 52.5 54.5599 52.5 55.2499C52.5 55.9399 51.94 56.4999 51.25 56.4999ZM53.0587 51.0361C52.5 51.3436 52.5 51.4336 52.5 51.4999C52.5 52.1911 51.94 52.7499 51.25 52.7499C50.56 52.7499 50 52.1911 50 51.4999C50 49.8649 51.2975 49.1511 51.8512 48.8461C52.2137 48.6474 52.595 48.1774 52.4788 47.5136C52.3925 47.0236 51.9762 46.6074 51.4875 46.5224C51.105 46.4524 50.735 46.5499 50.4475 46.7924C50.1625 47.0299 50 47.3799 50 47.7511C50 48.4424 49.44 49.0011 48.75 49.0011C48.06 49.0011 47.5 48.4424 47.5 47.7511C47.5 46.6399 47.9887 45.5924 48.84 44.8774C49.6912 44.1624 50.8112 43.8599 51.9187 44.0611C53.43 44.3249 54.6737 45.5674 54.94 47.0824C55.2188 48.6724 54.4625 50.2611 53.0575 51.0374L53.0587 51.0361ZM70 50.2449V66.3124C70 67.3036 69.4562 68.2111 68.5825 68.6799C68.185 68.8936 67.7488 68.9986 67.3137 68.9999C66.7937 68.9999 66.275 68.8486 65.8262 68.5499L60.8713 65.2449H53.75C51.9375 65.2449 50.3162 64.4561 49.1737 63.2199L49.885 62.7449H56.25C61.0737 62.7449 65 58.8186 65 53.9949V45.2449C65 44.8599 64.9662 44.4849 64.9187 44.1124C67.8075 44.6624 70 47.1986 70 50.2449Z" fill="white"/>
</g>
<defs>
<radialGradient id="paint0_radial_210_2477" cx="0" cy="0" r="1" gradientUnits="userSpaceOnUse" gradientTransform="translate(54.5 54.5) rotate(87.913) scale(64.1751 64.7158)">
<stop stop-color="#90BAFF" stop-opacity="0.3"/>
<stop offset="1" stop-color="#67A1FF" stop-opacity="0.06"/>
</radialGradient>
<clipPath id="clip0_210_2477">
<rect width="30" height="30" fill="white" transform="translate(40 39)"/>
</clipPath>
</defs>
</svg>
