<svg width="19" height="19" viewBox="0 0 19 19" fill="none" xmlns="http://www.w3.org/2000/svg">
<g clip-path="url(#clip0_743_490)">
<path d="M18.525 15.3813L15.3639 18.5424C15.0583 18.8472 14.6553 19.0008 14.2524 19.0008C13.8463 19.0008 13.4401 18.8464 13.1306 18.5369L9.96392 15.3702L11.0833 14.2508L13.4599 16.6274L13.4781 0L15.0615 0.00158333L15.0433 16.64L17.4167 14.2508L18.525 15.3813ZM7.72429 15.3694L8.17079 15.8159C8.08529 15.8191 8.00296 15.8333 7.91667 15.8333C3.55142 15.8333 0 12.2819 0 7.91667C0 3.55142 3.55142 0 7.91667 0C9.35908 0 10.7089 0.39425 11.875 1.07113V12.802L11.0833 12.0104L7.72429 15.3694ZM7.125 11.875V12.6667H8.70833V11.875C10.0178 11.875 11.0833 10.8094 11.0833 9.5C11.0833 8.42333 10.3123 7.51292 9.25063 7.33638L6.84237 6.935C6.54708 6.88592 6.33254 6.63258 6.33254 6.33333C6.33254 5.89713 6.688 5.54167 7.12421 5.54167H8.70754C9.14375 5.54167 9.49921 5.89713 9.49921 6.33333H11.0825C11.0825 5.02392 10.017 3.95833 8.70754 3.95833V3.16667H7.12421V3.95833C5.81479 3.95833 4.74921 5.02392 4.74921 6.33333C4.74921 7.41 5.52029 8.32042 6.58192 8.49696L8.99017 8.89833C9.28546 8.94742 9.5 9.20075 9.5 9.5C9.5 9.93621 9.14454 10.2917 8.70833 10.2917H7.125C6.68879 10.2917 6.33333 9.93621 6.33333 9.5H4.75C4.75 10.8094 5.81558 11.875 7.125 11.875Z" fill="#D1D1D1"/>
</g>
<defs>
<clipPath id="clip0_743_490">
<rect width="19" height="19" fill="white"/>
</clipPath>
</defs>
</svg>
