<svg width="36" height="36" viewBox="0 0 36 36" fill="none" xmlns="http://www.w3.org/2000/svg">
<rect width="36" height="36" rx="10" fill="url(#paint0_radial_210_2421)"/>
<g clip-path="url(#clip0_210_2421)">
<path d="M14.3125 19.2083C13.6821 19.2083 13.0658 19.0214 12.5416 18.6711C12.0174 18.3209 11.6089 17.8231 11.3676 17.2406C11.1264 16.6582 11.0633 16.0173 11.1862 15.399C11.3092 14.7807 11.6128 14.2127 12.0586 13.7669C12.5044 13.3212 13.0723 13.0176 13.6906 12.8946C14.309 12.7716 14.9499 12.8347 15.5323 13.076C16.1147 13.3172 16.6126 13.7258 16.9628 14.25C17.3131 14.7741 17.5 15.3904 17.5 16.0208C17.4991 16.8659 17.1629 17.6761 16.5654 18.2737C15.9678 18.8713 15.1576 19.2074 14.3125 19.2083ZM18.9167 27H9.70833C9.52047 27 9.3403 26.9254 9.20747 26.7925C9.07463 26.6597 9 26.4795 9 26.2917V25.9375C9 24.5285 9.55971 23.1773 10.556 22.181C11.5523 21.1847 12.9035 20.625 14.3125 20.625C15.7215 20.625 17.0727 21.1847 18.069 22.181C19.0653 23.1773 19.625 24.5285 19.625 25.9375V26.2917C19.625 26.4795 19.5504 26.6597 19.4175 26.7925C19.2847 26.9254 19.1045 27 18.9167 27ZM21.3958 16.375C20.7654 16.375 20.1491 16.1881 19.625 15.8378C19.1008 15.4876 18.6922 14.9897 18.451 14.4073C18.2097 13.8249 18.1466 13.184 18.2696 12.5657C18.3926 11.9473 18.6962 11.3794 19.1419 10.9336C19.5877 10.4878 20.1557 10.1842 20.774 10.0612C21.3923 9.93826 22.0332 10.0014 22.6156 10.2426C23.1981 10.4839 23.6959 10.8924 24.0461 11.4166C24.3964 11.9408 24.5833 12.5571 24.5833 13.1875C24.5824 14.0326 24.2463 14.8428 23.6487 15.4404C23.0511 16.0379 22.2409 16.3741 21.3958 16.375ZM20.3893 17.8065C19.7296 17.8951 19.0952 18.1189 18.526 18.4639C17.9568 18.809 17.465 19.2679 17.0814 19.8118C18.6687 20.5327 19.9159 21.8392 20.5621 23.4583H25.2917C25.4795 23.4583 25.6597 23.3837 25.7925 23.2509C25.9254 23.118 26 22.9379 26 22.75V22.7231C25.9993 22.017 25.8479 21.3192 25.5561 20.6763C25.2642 20.0334 24.8386 19.4601 24.3075 18.9948C23.7765 18.5295 23.1523 18.1828 22.4766 17.9779C21.801 17.773 21.0893 17.7146 20.3893 17.8065Z" fill="white"/>
</g>
<defs>
<radialGradient id="paint0_radial_210_2421" cx="0" cy="0" r="1" gradientUnits="userSpaceOnUse" gradientTransform="translate(18 18) rotate(87.913) scale(21.1955 21.374)">
<stop stop-color="#90BAFF"/>
<stop offset="1" stop-color="#67A1FF"/>
</radialGradient>
<clipPath id="clip0_210_2421">
<rect width="17" height="17" fill="white" transform="translate(9 10)"/>
</clipPath>
</defs>
</svg>
