<svg width="19" height="19" viewBox="0 0 19 19" fill="none" xmlns="http://www.w3.org/2000/svg">
<path d="M7.125 3.16667C7.125 1.41787 9.78342 0 13.0625 0C16.3416 0 19 1.41787 19 3.16667C19 4.91546 16.3416 6.33333 13.0625 6.33333C9.78342 6.33333 7.125 4.91546 7.125 3.16667ZM13.0625 7.91667C12.2495 7.91667 11.4784 7.82563 10.7738 7.66729C9.69792 6.86058 7.93488 6.33333 5.9375 6.33333C2.65842 6.33333 0 7.75121 0 9.5C0 11.2488 2.65842 12.6667 5.9375 12.6667C9.21658 12.6667 11.875 11.2488 11.875 9.5C11.875 9.47704 11.8695 9.45487 11.8687 9.43192H11.875V11.0833C11.875 12.8321 9.21658 14.25 5.9375 14.25C2.65842 14.25 0 12.8321 0 11.0833V12.6667C0 14.4155 2.65842 15.8333 5.9375 15.8333C9.21658 15.8333 11.875 14.4155 11.875 12.6667V14.25C11.875 15.9988 9.21658 17.4167 5.9375 17.4167C2.65842 17.4167 0 15.9988 0 14.25V15.8333C0 17.5821 2.65842 19 5.9375 19C9.21658 19 11.875 17.5821 11.875 15.8333V15.77C12.259 15.8112 12.6556 15.8333 13.0625 15.8333C16.3416 15.8333 19 14.4155 19 12.6667V11.0833C19 12.7609 16.5522 14.1305 13.4583 14.2397V12.6564C16.5522 12.5471 19 11.1783 19 9.5V7.91667C19 9.59421 16.5522 10.9638 13.4583 11.073V9.48971C16.5522 9.38046 19 8.01167 19 6.33333V4.75C19 6.49879 16.3416 7.91667 13.0625 7.91667Z" fill="white"/>
</svg>
