<svg width="16" height="16" viewBox="0 0 16 16" fill="none" xmlns="http://www.w3.org/2000/svg">
<g clip-path="url(#clip0_740_354)">
<path d="M6 2.66667C6 1.194 8.23867 0 11 0C13.7613 0 16 1.194 16 2.66667C16 4.13933 13.7613 5.33333 11 5.33333C8.23867 5.33333 6 4.13933 6 2.66667ZM11 6.66667C10.3153 6.66667 9.666 6.59 9.07267 6.45667C8.16667 5.77733 6.682 5.33333 5 5.33333C2.23867 5.33333 0 6.52733 0 8C0 9.47267 2.23867 10.6667 5 10.6667C7.76133 10.6667 10 9.47267 10 8C10 7.98067 9.99533 7.962 9.99467 7.94267H10V9.33333C10 10.806 7.76133 12 5 12C2.23867 12 0 10.806 0 9.33333V10.6667C0 12.1393 2.23867 13.3333 5 13.3333C7.76133 13.3333 10 12.1393 10 10.6667V12C10 13.4727 7.76133 14.6667 5 14.6667C2.23867 14.6667 0 13.4727 0 12V13.3333C0 14.806 2.23867 16 5 16C7.76133 16 10 14.806 10 13.3333V13.28C10.3233 13.3147 10.6573 13.3333 11 13.3333C13.7613 13.3333 16 12.1393 16 10.6667V9.33333C16 10.746 13.9387 11.8993 11.3333 11.9913V10.658C13.9387 10.566 16 9.41333 16 8V6.66667C16 8.07933 13.9387 9.23267 11.3333 9.32467V7.99133C13.9387 7.89933 16 6.74667 16 5.33333V4C16 5.47267 13.7613 6.66667 11 6.66667Z" fill="#67A0FF"/>
</g>
<defs>
<clipPath id="clip0_740_354">
<rect width="16" height="16" fill="white"/>
</clipPath>
</defs>
</svg>
