<svg width="25" height="26" viewBox="0 0 25 26" fill="none" xmlns="http://www.w3.org/2000/svg">
<g clip-path="url(#clip0_170_7297)">
<path d="M14.6121 8.05743V1.37276C15.5576 1.72983 16.4165 2.28379 17.1316 2.99793L20.6927 6.56104C21.4077 7.27538 21.9621 8.13398 22.3189 9.07955H15.6342C15.3632 9.07955 15.1032 8.97186 14.9115 8.78017C14.7198 8.58849 14.6121 8.32851 14.6121 8.05743ZM22.7891 11.6195V20.3229C22.7875 21.6778 22.2485 22.9767 21.2904 23.9348C20.3324 24.8929 19.0334 25.4318 17.6785 25.4335H7.45728C6.10236 25.4318 4.8034 24.8929 3.84533 23.9348C2.88726 22.9767 2.3483 21.6778 2.34668 20.3229V6.01319C2.3483 4.65827 2.88726 3.35931 3.84533 2.40124C4.8034 1.44317 6.10236 0.904211 7.45728 0.902588L12.0722 0.902588C12.2388 0.902588 12.4033 0.915875 12.5679 0.927119V8.05743C12.5679 8.87068 12.8909 9.65062 13.466 10.2257C14.041 10.8007 14.821 11.1238 15.6342 11.1238H22.7645C22.7758 11.2883 22.7891 11.4529 22.7891 11.6195ZM14.6121 20.3229C14.6121 20.0518 14.5044 19.7918 14.3127 19.6001C14.1211 19.4084 13.8611 19.3007 13.59 19.3007H8.4794C8.20832 19.3007 7.94834 19.4084 7.75665 19.6001C7.56497 19.7918 7.45728 20.0518 7.45728 20.3229C7.45728 20.5939 7.56497 20.8539 7.75665 21.0456C7.94834 21.2373 8.20832 21.345 8.4794 21.345H13.59C13.8611 21.345 14.1211 21.2373 14.3127 21.0456C14.5044 20.8539 14.6121 20.5939 14.6121 20.3229ZM17.6785 16.2344C17.6785 15.9633 17.5708 15.7033 17.3791 15.5116C17.1874 15.32 16.9274 15.2123 16.6564 15.2123H8.4794C8.20832 15.2123 7.94834 15.32 7.75665 15.5116C7.56497 15.7033 7.45728 15.9633 7.45728 16.2344C7.45728 16.5055 7.56497 16.7654 7.75665 16.9571C7.94834 17.1488 8.20832 17.2565 8.4794 17.2565H16.6564C16.9274 17.2565 17.1874 17.1488 17.3791 16.9571C17.5708 16.7654 17.6785 16.5055 17.6785 16.2344Z" fill="white"/>
</g>
<defs>
<clipPath id="clip0_170_7297">
<rect width="24.5309" height="24.5309" fill="white" transform="translate(0.302734 0.902588)"/>
</clipPath>
</defs>
</svg>
