<svg width="69" height="69" viewBox="0 0 69 69" fill="none" xmlns="http://www.w3.org/2000/svg">
<g clip-path="url(#clip0_113_2359)">
<path d="M16.7392 25.3187C19.3287 25.3187 21.4279 23.2195 21.4279 20.63C21.4279 18.0405 19.3287 15.9413 16.7392 15.9413C14.1497 15.9413 12.0505 18.0405 12.0505 20.63C12.0505 23.2195 14.1497 25.3187 16.7392 25.3187Z" fill="white"/>
<path d="M45.4231 9.37739C48.0126 9.37739 50.1118 7.27819 50.1118 4.6887C50.1118 2.0992 48.0126 0 45.4231 0C42.8336 0 40.7344 2.0992 40.7344 4.6887C40.7344 7.27819 42.8336 9.37739 45.4231 9.37739Z" fill="white"/>
<path d="M63.1081 51.1713H60.9662C61.0155 51.1543 61.065 51.1388 61.1139 51.1189C62.4449 50.5705 63.0794 49.047 62.531 47.7159L58.0004 36.7194L57.6577 28.5289C57.6441 28.2026 57.5684 27.8943 57.4468 27.611L54.0625 12.4354C53.6818 10.728 51.9889 9.65255 50.2816 10.0333L44.7686 11.2628C43.0613 11.6435 41.9858 13.3363 42.3665 15.0437L42.8601 17.2563L45.0042 13.8727L42.766 20.3294L35.3868 23.5026C34.3287 23.9576 33.8399 25.1841 34.2949 26.242C34.7498 27.2995 35.9756 27.789 37.0342 27.3339L45.2587 23.7973C45.7971 23.5658 46.2131 23.1184 46.4051 22.5646L48.9447 15.2392L48.1291 23.1622C47.9616 24.7887 46.5834 25.2142 45.9794 25.4734L44.8053 25.9784L45.4938 29.0659L43.2349 35.2245C43.1702 35.4012 43.1246 35.5842 43.0991 35.7705L41.3858 48.3574C41.2155 49.6092 41.9644 50.7739 43.1142 51.1714H40.927C40.3956 51.1714 39.9649 51.6022 39.9649 52.1336V60.0858H29.5446C30.3616 59.5526 30.8462 58.5833 30.7059 57.5523L28.9925 44.9654C28.8394 43.8405 27.9757 42.944 26.8571 42.7492L21.9764 41.8988V37.4718L15.8304 32.4628L22.8028 35.854C23.3297 36.1105 23.9402 36.1332 24.4848 35.9166L32.8045 32.6105C33.8747 32.1851 34.3975 30.9729 33.9723 29.9024C33.547 28.8323 32.3345 28.3095 31.2643 28.7347L23.7996 31.7012L17.6546 28.7122L21.9514 29.6802C21.7587 28.1154 20.4257 26.9039 18.8089 26.9039H13.1605C11.4113 26.9039 9.99324 28.322 9.99324 30.0712V46.322H9.99607L9.65794 54.4034L5.12719 65.3999C4.57869 66.731 5.21331 68.2546 6.54427 68.8029C7.87631 69.3516 9.39919 68.7162 9.94729 67.3859L14.6531 55.9646C14.7689 55.6835 14.8348 55.3843 14.8473 55.0807L15.2091 46.4311C15.2106 46.3943 15.2082 46.3585 15.2082 46.3222H17.3573C17.7305 46.4751 17.3803 46.3895 24.0841 47.5578L25.5404 58.2556C25.6466 59.0363 26.0897 59.6869 26.7016 60.086H16.8215C16.2903 60.086 15.8594 60.5168 15.8594 61.0482V68.0385C15.8594 68.5698 16.2901 69.0005 16.8215 69.0005C23.1825 69.0005 56.747 69.0005 63.1079 69.0005C63.6392 69.0005 64.07 68.5699 64.07 68.0385C64.07 64.9092 64.07 55.263 64.07 52.1338C64.07 51.602 63.6395 51.1713 63.1081 51.1713ZM44.8176 51.1712C45.7171 50.86 46.414 50.0678 46.5511 49.0602L48.2262 36.7536L50.7694 29.8194L52.4779 29.4384L52.8109 37.3963C52.8234 37.7001 52.8893 37.9991 53.0051 38.2803L57.7108 49.7015C58.0071 50.4212 58.5893 50.9356 59.2714 51.1712H44.8176Z" fill="white"/>
</g>
<defs>
<clipPath id="clip0_113_2359">
<rect width="69" height="69" fill="white"/>
</clipPath>
</defs>
</svg>
