<svg width="20" height="20" viewBox="0 0 20 20" fill="none" xmlns="http://www.w3.org/2000/svg">
<g clip-path="url(#clip0_743_486)">
<path d="M14.4495 9.62979V4.01053C14.4495 1.79734 12.649 -0.00323486 10.4358 -0.00323486H4.01376C1.80057 -0.00323486 0 1.79734 0 4.01053V14.3291C0 14.9657 0.349197 15.5485 0.910321 15.8495C1.1656 15.9868 1.44576 16.0542 1.72511 16.0542C2.05906 16.0542 2.3922 15.9571 2.68119 15.7652L5.8625 13.6436H10.4358C12.649 13.6436 14.4495 11.843 14.4495 9.62979ZM7.22477 11.2385C6.78165 11.2385 6.42202 10.8789 6.42202 10.4358C6.42202 9.99264 6.78165 9.633 7.22477 9.633C7.66789 9.633 8.02752 9.99264 8.02752 10.4358C8.02752 10.8789 7.66789 11.2385 7.22477 11.2385ZM8.38635 7.72968C8.02752 7.92716 8.02752 7.98495 8.02752 8.0275C8.02752 8.47142 7.66789 8.83025 7.22477 8.83025C6.78165 8.83025 6.42202 8.47142 6.42202 8.0275C6.42202 6.9775 7.25528 6.51913 7.61089 6.32326C7.84369 6.19562 8.08853 5.89378 8.01388 5.46752C7.95849 5.15284 7.69117 4.88553 7.37729 4.83094C7.13165 4.78599 6.89404 4.8486 6.7094 5.00433C6.52638 5.15686 6.42202 5.38163 6.42202 5.62005C6.42202 6.06397 6.06239 6.4228 5.61927 6.4228C5.17615 6.4228 4.81651 6.06397 4.81651 5.62005C4.81651 4.9064 5.13039 4.23369 5.67706 3.77452C6.22374 3.31534 6.943 3.12108 7.65424 3.25032C8.62477 3.4197 9.42351 4.21764 9.5945 5.19057C9.77351 6.21167 9.28784 7.23197 8.38555 7.73048L8.38635 7.72968ZM19.2661 7.22154V17.5401C19.2661 18.1767 18.9169 18.7595 18.3557 19.0605C18.1005 19.1978 17.8203 19.2652 17.5409 19.266C17.207 19.266 16.8739 19.1689 16.5857 18.977L13.4036 16.8546H8.83028C7.66628 16.8546 6.62511 16.348 5.8914 15.5541L6.34817 15.2491H10.4358C13.5336 15.2491 16.055 12.7276 16.055 9.62979V4.01053C16.055 3.76328 16.0334 3.52245 16.0029 3.28323C17.858 3.63644 19.2661 5.26523 19.2661 7.22154Z" fill="#D1D1D1"/>
</g>
<defs>
<clipPath id="clip0_743_486">
<rect width="19.2661" height="19.2661" fill="white"/>
</clipPath>
</defs>
</svg>
