<svg width="56" height="56" viewBox="0 0 56 56" fill="none" xmlns="http://www.w3.org/2000/svg">
<path d="M55.407 8.84788C55.2195 9.03618 54.9967 9.1856 54.7512 9.28755C54.5058 9.38951 54.2427 9.44199 53.9769 9.44199C53.7112 9.44199 53.4481 9.38951 53.2026 9.28755C52.9572 9.1856 52.7344 9.03618 52.5468 8.84788L50.6041 6.90772V15.5129C50.6041 16.0497 50.3909 16.5645 50.0113 16.944C49.6318 17.3235 49.1171 17.5367 48.5803 17.5367C48.0436 17.5367 47.5289 17.3235 47.1494 16.944C46.7698 16.5645 46.5566 16.0497 46.5566 15.5129V6.90772L44.6138 8.84788C44.2302 9.20536 43.7228 9.39998 43.1985 9.39073C42.6742 9.38148 42.174 9.16908 41.8032 8.79829C41.4325 8.42749 41.2201 7.92725 41.2108 7.40294C41.2016 6.87864 41.3962 6.37121 41.7536 5.98757L47.1502 0.590756C47.53 0.212422 48.0443 0 48.5803 0C49.1164 0 49.6306 0.212422 50.0104 0.590756L55.407 5.98757C55.595 6.17528 55.7441 6.39822 55.8459 6.64361C55.9476 6.88901 56 7.15207 56 7.41772C56 7.68338 55.9476 7.94643 55.8459 8.19183C55.7441 8.43723 55.595 8.66016 55.407 8.84788ZM53.9769 29.005C53.9784 32.6142 53.2558 36.1871 51.852 39.5121C50.4481 42.8371 48.3915 45.8467 45.8039 48.3627C43.2163 50.8787 40.1502 52.8501 36.7872 54.16C33.4242 55.47 29.8326 56.0919 26.2249 55.989C19.3567 55.7255 12.8411 52.879 7.98098 48.0187C3.12085 43.1584 0.274449 36.6425 0.0109614 29.774C-0.0918984 26.1662 0.530024 22.5745 1.83992 19.2113C3.14981 15.8482 5.12106 12.782 7.63698 10.1943C10.1529 7.60657 13.1624 5.54988 16.4872 4.14597C19.8121 2.74205 23.3848 2.01944 26.994 2.02091C30.4615 2.00829 33.8973 2.68045 37.1045 3.99884C37.2059 4.04354 37.2972 4.10825 37.373 4.18909C37.4487 4.26994 37.5074 4.36525 37.5454 4.46932C37.5835 4.57339 37.6001 4.68407 37.5944 4.79472C37.5886 4.90538 37.5606 5.01373 37.5119 5.11328C36.7199 6.86347 36.3544 8.7766 36.4455 10.6955C36.5366 12.6144 37.0817 14.4843 38.0359 16.1516C38.9901 17.8189 40.3263 19.2359 41.9347 20.2864C43.5431 21.3368 45.3777 21.9907 47.2879 22.1942C48.9026 22.3621 50.5345 22.2109 52.0908 21.749C52.194 21.7144 52.3032 21.7011 52.4117 21.7097C52.5202 21.7183 52.6258 21.7487 52.7223 21.7991C52.8187 21.8495 52.9041 21.9188 52.9731 22.0029C53.0422 22.087 53.0936 22.1842 53.1243 22.2886C53.693 24.482 53.9796 26.739 53.9769 29.005ZM35.0133 34.4477C35.0131 32.8694 34.4857 31.3365 33.5149 30.0923C32.544 28.8481 31.1853 27.9639 29.6545 27.5802L25.3156 26.5008C24.6531 26.3351 24.0663 25.9499 23.6508 25.408C23.2388 24.8804 23.0172 24.229 23.0221 23.5596C23.0235 22.7573 23.343 21.9883 23.9105 21.4213C24.4781 20.8542 25.2473 20.5354 26.0495 20.5347H27.9384C28.6841 20.536 29.4032 20.8118 29.9586 21.3095C30.514 21.8072 30.8668 22.4919 30.9497 23.2331C30.9718 23.503 31.0478 23.7658 31.1734 24.0058C31.2989 24.2458 31.4713 24.4582 31.6804 24.6304C31.8895 24.8025 32.1311 24.9309 32.3907 25.008C32.6504 25.0851 32.9229 25.1093 33.192 25.0791C33.4612 25.0489 33.7216 24.965 33.9577 24.8324C34.1939 24.6997 34.401 24.521 34.5668 24.3069C34.7326 24.0927 34.8538 23.8474 34.923 23.5856C34.9923 23.3237 35.0083 23.0506 34.9701 22.7824C34.7967 21.2283 34.1122 19.7757 33.0242 18.6524C31.9362 17.5292 30.5061 16.7989 28.9583 16.5761V15.5129C28.9583 14.9762 28.7451 14.4614 28.3656 14.0819C27.9861 13.7024 27.4713 13.4891 26.9346 13.4891C26.3979 13.4891 25.8831 13.7024 25.5036 14.0819C25.1241 14.4614 24.9109 14.9762 24.9109 15.5129V16.5923C23.3057 16.8535 21.8398 17.6604 20.7607 18.8771C19.6815 20.0937 19.0551 21.6454 18.9872 23.2703C18.9194 24.8952 19.4142 26.4937 20.3882 27.7961C21.3622 29.0984 22.7557 30.0249 24.3334 30.4189L28.6723 31.4983C29.3885 31.6787 30.0142 32.1144 30.4318 32.7236C30.8493 33.3329 31.03 34.0736 30.9399 34.8067C30.8497 35.5398 30.495 36.2147 29.9422 36.7046C29.3895 37.1945 28.6769 37.4657 27.9384 37.4672H26.0495C25.3038 37.4658 24.5847 37.19 24.0293 36.6923C23.4739 36.1946 23.1211 35.5099 23.0382 34.7688C23.0161 34.4988 22.9401 34.236 22.8145 33.996C22.689 33.756 22.5166 33.5436 22.3075 33.3715C22.0984 33.1993 21.8568 33.0709 21.5972 32.9938C21.3375 32.9167 21.065 32.8926 20.7959 32.9227C20.5267 32.9529 20.2663 33.0368 20.0302 33.1695C19.794 33.3021 19.5869 33.4808 19.4211 33.695C19.2553 33.9092 19.1341 34.1544 19.0649 34.4163C18.9956 34.6782 18.9796 34.9512 19.0178 35.2194C19.1878 36.7546 19.856 38.1918 20.9203 39.3112C21.9846 40.4306 23.3862 41.1705 24.9109 41.4176V42.497C24.9109 43.0338 25.1241 43.5485 25.5036 43.9281C25.8831 44.3076 26.3979 44.5208 26.9346 44.5208C27.4713 44.5208 27.9861 44.3076 28.3656 43.9281C28.7451 43.5485 28.9583 43.0338 28.9583 42.497V41.4176C30.6391 41.1807 32.1776 40.3443 33.2903 39.0624C34.403 37.7806 35.0149 36.1397 35.0133 34.4423V34.4477Z" fill="white"/>
</svg>
