<svg width="52" height="52" viewBox="0 0 52 52" fill="none" xmlns="http://www.w3.org/2000/svg">
<path fill-rule="evenodd" clip-rule="evenodd" d="M34.6021 15.2038C35.5587 15.4598 36.3559 16.0689 36.8464 16.9189C37.7933 18.559 37.3341 20.6311 35.8471 21.7321L32.1776 15.3776C32.9375 15.048 33.7835 14.9844 34.6021 15.2037V15.2038ZM11.7273 39.2028L16.8481 36.2465L10.1018 24.5778L4.9883 27.5306C3.43723 28.4261 2.32533 29.8803 1.85824 31.6247C1.39014 33.3697 1.62566 35.1851 2.52114 36.7357C3.76863 38.8953 6.03845 40.1042 8.36941 40.1042C9.51169 40.1042 10.6687 39.8138 11.7273 39.2028ZM22.4104 45.8967L18.1102 38.4493L14.0964 40.7666L18.3957 48.2145C19.0356 49.321 20.4555 49.7013 21.5625 49.0625C22.0947 48.7551 22.4765 48.2547 22.6381 47.6544C22.7987 47.0537 22.718 46.4299 22.4104 45.8968V45.8967ZM38.4013 31.2345L25.2257 8.41455C24.9515 7.93863 24.5006 7.67771 23.9552 7.67771C23.9449 7.67771 23.9342 7.67822 23.9239 7.67822C23.3643 7.68848 22.9114 7.96656 22.649 8.46157C22.1859 9.33552 21.7393 10.2682 21.2668 11.2558C19.2785 15.4085 17.0431 20.077 12.2797 23.2706L19.068 35.0148C24.2103 32.4903 29.3698 32.888 33.9579 33.2424C35.0512 33.3271 36.0828 33.4064 37.0723 33.4427C37.6329 33.4642 38.099 33.2106 38.3874 32.7308C38.6768 32.251 38.6811 31.7193 38.4016 31.2346L38.4013 31.2345ZM35.0892 7.80355C34.7391 8.41069 34.9472 9.18714 35.5543 9.53773C35.7536 9.65331 35.972 9.70815 36.1874 9.70815C36.626 9.70815 37.0535 9.48045 37.288 9.07318L39.9109 4.53212C40.2609 3.92498 40.0528 3.14853 39.4457 2.79794C38.8381 2.44745 38.0621 2.65545 37.712 3.26259L35.0892 7.80355ZM50.3766 21.7279C50.3766 21.0273 49.8086 20.4583 49.1036 20.4583L43.8614 20.4588C43.1609 20.4588 42.5919 21.0273 42.5919 21.7284C42.5919 22.4295 43.1609 22.9979 43.8614 22.9979L49.1036 22.9974C49.8086 22.9974 50.3766 22.4295 50.3766 21.7279ZM47.341 10.8597C46.9885 10.2525 46.2149 10.0445 45.6078 10.395L40.9556 13.08C40.348 13.4311 40.14 14.2071 40.4905 14.8147C40.726 15.2221 41.1525 15.4498 41.5911 15.4498C41.8065 15.4498 42.0249 15.3944 42.2252 15.2794L46.8759 12.5938C47.4831 12.2433 47.6935 11.4668 47.341 10.8597Z" fill="white"/>
</svg>
