<svg width="26" height="25" viewBox="0 0 26 25" fill="none" xmlns="http://www.w3.org/2000/svg">
<g clip-path="url(#clip0_170_7287)">
<path d="M24.1308 16.3539C23.9726 16.3539 23.8166 16.3172 23.675 16.2466L21.6307 15.2245C21.3881 15.1033 21.2036 14.8907 21.1177 14.6335C21.0318 14.3762 21.0516 14.0954 21.1728 13.8528C21.294 13.6102 21.5066 13.4256 21.7638 13.3398C22.0211 13.2539 22.3019 13.2737 22.5445 13.3949L24.5887 14.417C24.7951 14.5198 24.9606 14.6894 25.0584 14.8982C25.1562 15.1069 25.1805 15.3426 25.1275 15.567C25.0745 15.7913 24.9471 15.9911 24.7662 16.134C24.5853 16.2769 24.3614 16.3544 24.1308 16.3539ZM22.5435 7.05263L24.5877 6.03051C24.8303 5.90933 25.0149 5.69674 25.1008 5.4395C25.1866 5.18226 25.1668 4.90144 25.0456 4.65882C24.9245 4.4162 24.7119 4.23166 24.4546 4.14578C24.1974 4.05991 23.9166 4.07974 23.6739 4.20091L21.6297 5.22303C21.3871 5.34421 21.2025 5.5568 21.1167 5.81404C21.0308 6.07128 21.0506 6.3521 21.1718 6.59472C21.293 6.83734 21.5056 7.02188 21.7628 7.10776C22.02 7.19363 22.3009 7.1738 22.5435 7.05263ZM25.153 10.2212C25.153 9.95012 25.0453 9.69014 24.8536 9.49845C24.6619 9.30677 24.4019 9.19908 24.1308 9.19908H22.0866C21.8155 9.19908 21.5555 9.30677 21.3638 9.49845C21.1722 9.69014 21.0645 9.95012 21.0645 10.2212C21.0645 10.4923 21.1722 10.7523 21.3638 10.9439C21.5555 11.1356 21.8155 11.2433 22.0866 11.2433H24.1308C24.4019 11.2433 24.6619 11.1356 24.8536 10.9439C25.0453 10.7523 25.153 10.4923 25.153 10.2212ZM19.0202 19.4203V1.02212C19.0202 0.751037 18.9125 0.491057 18.7209 0.299372C18.5292 0.107687 18.2692 0 17.9981 0C17.727 0 17.467 0.107687 17.2754 0.299372C17.0837 0.491057 16.976 0.751037 16.976 1.02212C16.976 4.03635 14.3359 5.1106 11.8654 5.1106H4.71055C3.62622 5.1106 2.5863 5.54135 1.81956 6.30809C1.05282 7.07483 0.62207 8.11475 0.62207 9.19908L0.62207 11.2433C0.62207 12.3277 1.05282 13.3676 1.81956 14.1343C2.5863 14.901 3.62622 15.3318 4.71055 15.3318H11.8654C14.3359 15.3318 16.976 16.406 16.976 19.4203C16.976 19.6914 17.0837 19.9513 17.2754 20.143C17.467 20.3347 17.727 20.4424 17.9981 20.4424C18.2692 20.4424 18.5292 20.3347 18.7209 20.143C18.9125 19.9513 19.0202 19.6914 19.0202 19.4203ZM8.98914 17.376H4.71055C4.23467 17.3741 3.76062 17.3169 3.29798 17.2053L5.85328 22.9108C6.06789 23.393 6.41768 23.8027 6.86031 24.0902C7.30294 24.3778 7.81943 24.5308 8.34725 24.5309C8.76719 24.5303 9.18032 24.4247 9.54897 24.2236C9.91763 24.0225 10.2301 23.7323 10.4579 23.3795C10.6857 23.0267 10.8216 22.6226 10.8532 22.2038C10.8848 21.7851 10.8111 21.3651 10.6388 20.9821L8.98914 17.376Z" fill="white"/>
</g>
<defs>
<clipPath id="clip0_170_7287">
<rect width="24.5309" height="24.5309" fill="white" transform="translate(0.62207)"/>
</clipPath>
</defs>
</svg>
