<svg width="19" height="19" viewBox="0 0 19 19" fill="none" xmlns="http://www.w3.org/2000/svg">
<g clip-path="url(#clip0_735_90)">
<path d="M18.2083 12.6667C18.0858 12.6667 17.9649 12.6382 17.8553 12.5835L16.2719 11.7919C16.084 11.698 15.9411 11.5334 15.8746 11.3341C15.808 11.1349 15.8234 10.9174 15.9173 10.7295C16.0111 10.5415 16.1758 10.3986 16.375 10.3321C16.5742 10.2656 16.7918 10.2809 16.9797 10.3748L18.563 11.1665C18.7228 11.2461 18.851 11.3774 18.9268 11.5391C19.0025 11.7008 19.0214 11.8834 18.9803 12.0571C18.9392 12.2309 18.8406 12.3857 18.7005 12.4963C18.5603 12.607 18.3869 12.667 18.2083 12.6667ZM16.9789 5.4625L18.5622 4.67083C18.7501 4.57698 18.8931 4.41232 18.9596 4.21308C19.0261 4.01384 19.0107 3.79633 18.9169 3.60842C18.823 3.4205 18.6584 3.27756 18.4591 3.21105C18.2599 3.14454 18.0424 3.1599 17.8545 3.25375L16.2711 4.04542C16.0832 4.13927 15.9403 4.30393 15.8738 4.50317C15.8072 4.70241 15.8226 4.91992 15.9165 5.10783C16.0103 5.29575 16.175 5.43869 16.3742 5.5052C16.5735 5.57171 16.791 5.55635 16.9789 5.4625ZM19 7.91667C19 7.7067 18.9166 7.50534 18.7681 7.35687C18.6197 7.20841 18.4183 7.125 18.2083 7.125H16.625C16.415 7.125 16.2137 7.20841 16.0652 7.35687C15.9167 7.50534 15.8333 7.7067 15.8333 7.91667C15.8333 8.12663 15.9167 8.32799 16.0652 8.47646C16.2137 8.62493 16.415 8.70833 16.625 8.70833H18.2083C18.4183 8.70833 18.6197 8.62493 18.7681 8.47646C18.9166 8.32799 19 8.12663 19 7.91667ZM14.25 15.0417V0.791667C14.25 0.581704 14.1666 0.38034 14.0181 0.231874C13.8697 0.0834075 13.6683 0 13.4583 0C13.2484 0 13.047 0.0834075 12.8985 0.231874C12.7501 0.38034 12.6667 0.581704 12.6667 0.791667C12.6667 3.12629 10.6218 3.95833 8.70833 3.95833H3.16667C2.32681 3.95833 1.52136 4.29196 0.927495 4.88583C0.33363 5.47969 0 6.28515 0 7.125L0 8.70833C0 9.54819 0.33363 10.3536 0.927495 10.9475C1.52136 11.5414 2.32681 11.875 3.16667 11.875H8.70833C10.6218 11.875 12.6667 12.707 12.6667 15.0417C12.6667 15.2516 12.7501 15.453 12.8985 15.6015C13.047 15.7499 13.2484 15.8333 13.4583 15.8333C13.6683 15.8333 13.8697 15.7499 14.0181 15.6015C14.1666 15.453 14.25 15.2516 14.25 15.0417ZM6.48058 13.4583H3.16667C2.79808 13.4569 2.43091 13.4125 2.07258 13.3261L4.05175 17.7452C4.21797 18.1187 4.4889 18.436 4.83173 18.6587C5.17456 18.8814 5.5746 19 5.98342 19C6.30868 18.9996 6.62865 18.9177 6.91419 18.762C7.19973 18.6062 7.44175 18.3815 7.61819 18.1082C7.79463 17.835 7.89989 17.5219 7.92437 17.1976C7.94885 16.8733 7.89177 16.548 7.75833 16.2513L6.48058 13.4583Z" fill="#D1D1D1"/>
</g>
<defs>
<clipPath id="clip0_735_90">
<rect width="19" height="19" fill="white"/>
</clipPath>
</defs>
</svg>
