<svg width="16" height="19" viewBox="0 0 16 19" fill="none" xmlns="http://www.w3.org/2000/svg">
<path d="M9.5 5.54167V0.364167C10.2323 0.640724 10.8975 1.06979 11.4515 1.62292L14.2096 4.38267C14.7634 4.93595 15.1928 5.60096 15.4692 6.33333H10.2917C10.0817 6.33333 9.88034 6.24993 9.73187 6.10146C9.58341 5.95299 9.5 5.75163 9.5 5.54167ZM15.8333 8.30062V15.0417C15.8321 16.0911 15.4146 17.0972 14.6726 17.8392C13.9305 18.5813 12.9244 18.9987 11.875 19H3.95833C2.9089 18.9987 1.90282 18.5813 1.16076 17.8392C0.418698 17.0972 0.00125705 16.0911 0 15.0417V3.95833C0.00125705 2.9089 0.418698 1.90282 1.16076 1.16076C1.90282 0.418698 2.9089 0.00125705 3.95833 0L7.53271 0C7.66175 0 7.78921 0.0102917 7.91667 0.019V5.54167C7.91667 6.17156 8.16689 6.77565 8.61229 7.22105C9.05769 7.66644 9.66178 7.91667 10.2917 7.91667H15.8143C15.823 8.04413 15.8333 8.17158 15.8333 8.30062ZM9.5 15.0417C9.5 14.8317 9.41659 14.6303 9.26813 14.4819C9.11966 14.3334 8.9183 14.25 8.70833 14.25H4.75C4.54004 14.25 4.33867 14.3334 4.19021 14.4819C4.04174 14.6303 3.95833 14.8317 3.95833 15.0417C3.95833 15.2516 4.04174 15.453 4.19021 15.6015C4.33867 15.7499 4.54004 15.8333 4.75 15.8333H8.70833C8.9183 15.8333 9.11966 15.7499 9.26813 15.6015C9.41659 15.453 9.5 15.2516 9.5 15.0417ZM11.875 11.875C11.875 11.665 11.7916 11.4637 11.6431 11.3152C11.4947 11.1667 11.2933 11.0833 11.0833 11.0833H4.75C4.54004 11.0833 4.33867 11.1667 4.19021 11.3152C4.04174 11.4637 3.95833 11.665 3.95833 11.875C3.95833 12.085 4.04174 12.2863 4.19021 12.4348C4.33867 12.5833 4.54004 12.6667 4.75 12.6667H11.0833C11.2933 12.6667 11.4947 12.5833 11.6431 12.4348C11.7916 12.2863 11.875 12.085 11.875 11.875Z" fill="#D1D1D1"/>
</svg>
