<svg width="166" height="165" viewBox="0 0 166 165" fill="none" xmlns="http://www.w3.org/2000/svg">
<path d="M145.5 0H20.5C9.4543 0 0.5 8.95431 0.5 20V145C0.5 156.045 9.45428 165 20.5 165H145.5C156.546 165 165.5 156.045 165.5 145V20C165.5 8.95431 156.546 0 145.5 0Z" fill="#FF0032"/>
<path d="M110.425 12.5752V20.2729H127.008V50.389L127.011 50.8847H136.295V20.2729H152.878V12.5752H110.425Z" fill="white"/>
<path d="M50.7022 12.6899L38.5737 37.8722L26.445 12.6899H13.2026V50.7669H22.4865V23.516L34.3418 46.5383H42.8057L54.6642 23.516V50.7669H63.9481V12.6899H50.7022Z" fill="white"/>
<path d="M143.571 139.609C143.398 141.016 142.757 142.323 141.752 143.322C140.708 144.272 139.424 144.919 138.04 145.194C136.017 145.595 133.957 145.782 131.894 145.751C129.698 145.791 127.511 145.47 125.418 144.803C123.703 144.246 122.224 143.13 121.217 141.634C120.204 140.136 119.705 137.973 119.705 135.222V131.321C119.705 128.551 120.215 126.387 121.217 124.889C122.222 123.396 123.697 122.282 125.408 121.724C127.501 121.056 129.688 120.736 131.884 120.775C133.947 120.744 136.007 120.931 138.03 121.332C139.414 121.608 140.697 122.255 141.742 123.205C142.747 124.203 143.387 125.511 143.561 126.917H152.851C152.684 123.988 151.566 121.194 149.669 118.956C147.798 116.899 145.376 115.421 142.69 114.697C139.168 113.768 135.533 113.333 131.891 113.405C127.44 113.405 123.579 114.046 120.417 115.308C117.289 116.512 114.668 118.753 112.993 121.656C111.356 124.467 110.495 128.22 110.438 132.819V133.241L110.934 133.262H110.438V133.683C110.495 138.283 111.356 142.036 112.993 144.847C114.668 147.75 117.289 149.991 120.417 151.195C123.583 152.457 127.447 153.098 131.891 153.098C135.533 153.171 139.168 152.737 142.69 151.806C145.377 151.085 147.8 149.607 149.669 147.547C151.567 145.31 152.684 142.515 152.852 139.586L143.571 139.609Z" fill="white"/>
</svg>
