<svg width="36" height="36" viewBox="0 0 36 36" fill="none" xmlns="http://www.w3.org/2000/svg">
<rect width="36" height="36" rx="10" fill="url(#paint0_radial_210_2433)"/>
<g clip-path="url(#clip0_210_2433)">
<path d="M23.888 19.5108C23.3417 19.5109 22.8169 19.7238 22.4249 20.1043L21.5913 19.6875C22.2717 17.4558 21.0142 15.095 18.7825 14.4145C17.9662 14.1656 17.0935 14.1698 16.2796 14.4265L15.791 13.5443C16.5753 12.6854 16.5149 11.3534 15.6561 10.5691C14.7973 9.78477 13.4652 9.84517 12.6809 10.704C11.8966 11.5628 11.957 12.8948 12.8158 13.6792C13.2054 14.035 13.7144 14.2316 14.242 14.23C14.3433 14.2271 14.4442 14.217 14.544 14.1998L15.0284 15.0749C13.1937 16.4365 12.7819 19.014 14.1011 20.8794L12.0494 22.8509C10.961 22.3634 9.68344 22.8506 9.19598 23.9391C8.70853 25.0275 9.19572 26.3051 10.2842 26.7925C11.3726 27.28 12.6502 26.7928 13.1376 25.7043C13.4092 25.0979 13.3865 24.4001 13.076 23.8126L15.0869 21.8799C16.9659 23.2408 19.5922 22.822 20.9548 20.9442L21.7997 21.3666C21.7863 21.4515 21.7784 21.537 21.7758 21.6229C21.7758 22.7895 22.7214 23.7352 23.888 23.7352C25.0546 23.7352 26.0003 22.7896 26.0003 21.623C26.0003 20.4565 25.0546 19.5108 23.888 19.5108Z" fill="white"/>
</g>
<defs>
<radialGradient id="paint0_radial_210_2433" cx="0" cy="0" r="1" gradientUnits="userSpaceOnUse" gradientTransform="translate(18 18) rotate(87.913) scale(21.1955 21.374)">
<stop stop-color="#90BAFF"/>
<stop offset="1" stop-color="#67A1FF"/>
</radialGradient>
<clipPath id="clip0_210_2433">
<rect width="17" height="17" fill="white" transform="translate(9 10)"/>
</clipPath>
</defs>
</svg>
