<svg width="24" height="24" viewBox="0 0 24 24" fill="none" xmlns="http://www.w3.org/2000/svg">
<path d="M18.5 12C17.836 12 17.203 12.124 16.613 12.341L15.608 10.641C16.765 9.632 17.5 8.152 17.5 6.5C17.5 3.467 15.032 1 12 1C8.968 1 6.5 3.467 6.5 6.5C6.5 8.152 7.235 9.632 8.392 10.641L7.387 12.341C6.797 12.125 6.164 12 5.5 12C2.468 12 0 14.467 0 17.5C0 20.533 2.468 23 5.5 23C8.19 23 10.432 21.056 10.904 18.5H13.095C13.567 21.056 15.809 23 18.499 23C21.531 23 23.999 20.533 23.999 17.5C23.999 14.467 21.532 12 18.5 12ZM18.519 14C19.347 14 20.019 14.672 20.019 15.5C20.019 16.328 19.347 17 18.519 17C17.691 17 17.019 16.328 17.019 15.5C17.019 14.672 17.691 14 18.519 14ZM12.019 3C12.847 3 13.519 3.672 13.519 4.5C13.519 5.328 12.847 6 12.019 6C11.191 6 10.519 5.328 10.519 4.5C10.519 3.672 11.191 3 12.019 3ZM12 7C13.148 7 14.305 7.867 14.467 8.981C13.834 9.61 12.963 10 12 10C11.037 10 10.165 9.61 9.533 8.981C9.695 7.867 10.852 7 12 7ZM10.113 11.659C10.703 11.875 11.336 12 12 12C12.664 12 13.297 11.876 13.887 11.659L14.892 13.359C13.975 14.159 13.325 15.256 13.096 16.5H10.905C10.675 15.256 10.026 14.159 9.109 13.359L10.114 11.659H10.113ZM5.519 14C6.347 14 7.019 14.672 7.019 15.5C7.019 16.328 6.347 17 5.519 17C4.691 17 4.019 16.328 4.019 15.5C4.019 14.672 4.691 14 5.519 14ZM5.5 21C4.537 21 3.665 20.61 3.033 19.981C3.195 18.867 4.352 18 5.5 18C6.648 18 7.805 18.867 7.967 19.981C7.334 20.61 6.463 21 5.5 21ZM18.5 21C17.537 21 16.665 20.61 16.033 19.981C16.195 18.867 17.352 18 18.5 18C19.648 18 20.805 18.867 20.967 19.981C20.334 20.61 19.463 21 18.5 21Z" fill="white"/>
</svg>
