<svg width="42" height="42" viewBox="0 0 42 42" fill="none" xmlns="http://www.w3.org/2000/svg">
<path d="M31.5 1.75H17.5C15.4829 1.74959 13.5275 2.44612 11.9649 3.72171C10.4023 4.99731 9.32843 6.77361 8.925 8.75H8.75C6.89348 8.75 5.11301 9.4875 3.80025 10.8003C2.4875 12.113 1.75 13.8935 1.75 15.75V31.5C1.75 32.6491 1.97633 33.7869 2.41605 34.8485C2.85578 35.9101 3.5003 36.8747 4.31282 37.6872C5.95376 39.3281 8.17936 40.25 10.5 40.25H35C36.3924 40.25 37.7277 39.6969 38.7123 38.7123C39.6969 37.7277 40.25 36.3924 40.25 35V10.5C40.25 9.35093 40.0237 8.21312 39.5839 7.15152C39.1442 6.08992 38.4997 5.12533 37.6872 4.31282C36.8747 3.5003 35.9101 2.85578 34.8485 2.41605C33.7869 1.97633 32.6491 1.75 31.5 1.75ZM24.5 29.75H10.5C10.0359 29.75 9.59075 29.5656 9.26256 29.2374C8.93437 28.9093 8.75 28.4641 8.75 28C8.75 27.5359 8.93437 27.0908 9.26256 26.7626C9.59075 26.4344 10.0359 26.25 10.5 26.25H24.5C24.9641 26.25 25.4092 26.4344 25.7374 26.7626C26.0656 27.0908 26.25 27.5359 26.25 28C26.25 28.4641 26.0656 28.9093 25.7374 29.2374C25.4092 29.5656 24.9641 29.75 24.5 29.75ZM24.5 22.75H10.5C10.0359 22.75 9.59075 22.5656 9.26256 22.2374C8.93437 21.9092 8.75 21.4641 8.75 21C8.75 20.5359 8.93437 20.0908 9.26256 19.7626C9.59075 19.4344 10.0359 19.25 10.5 19.25H24.5C24.9641 19.25 25.4092 19.4344 25.7374 19.7626C26.0656 20.0908 26.25 20.5359 26.25 21C26.25 21.4641 26.0656 21.9092 25.7374 22.2374C25.4092 22.5656 24.9641 22.75 24.5 22.75ZM36.75 35C36.75 35.4641 36.5656 35.9092 36.2374 36.2374C35.9092 36.5656 35.4641 36.75 35 36.75C34.5359 36.75 34.0908 36.5656 33.7626 36.2374C33.4344 35.9092 33.25 35.4641 33.25 35V15.75C33.25 13.8935 32.5125 12.113 31.1997 10.8003C29.887 9.4875 28.1065 8.75 26.25 8.75H12.565C12.926 7.72879 13.5941 6.84425 14.4776 6.21764C15.3611 5.59104 16.4168 5.25304 17.5 5.25H31.5C32.8924 5.25 34.2277 5.80312 35.2123 6.78769C36.1969 7.77226 36.75 9.10761 36.75 10.5V35Z" fill="white"/>
</svg>
