<svg width="24" height="25" viewBox="0 0 24 25" fill="none" xmlns="http://www.w3.org/2000/svg">
<g clip-path="url(#clip0_819_244)">
<path d="M3.63732 9.03592C3.01932 9.03592 2.53932 8.47792 2.64832 7.86992C3.00732 5.86892 4.00432 4.00892 5.50332 2.60392C7.43832 0.788921 9.96532 -0.116079 12.6293 0.0569209C17.6503 0.380921 21.5723 4.75192 21.4983 9.97392C21.4583 12.7919 19.1093 15.0369 16.2903 15.0369H13.3583C12.9983 15.3829 12.5123 15.5979 11.9743 15.5979C10.8693 15.5979 9.97432 14.7029 9.97432 13.5979C9.97432 12.4929 10.8693 11.5979 11.9743 11.5979C12.8823 11.5979 13.6403 12.2069 13.8843 13.0369H16.2903C18.0263 13.0369 19.4793 11.6539 19.4983 9.91892C19.5443 5.77292 16.4533 2.30992 12.5003 2.05392C10.4013 1.92392 8.39932 2.63192 6.87032 4.06492C5.66132 5.19792 4.88232 6.64892 4.60932 8.24292C4.52932 8.70892 4.10932 9.03792 3.63732 9.03792V9.03592ZM11.9993 17.0359C8.30432 17.0359 5.10732 19.3279 4.04432 22.7379C3.94932 23.0419 4.00432 23.3729 4.19332 23.6289C4.38232 23.8849 4.68132 24.0359 4.99932 24.0359H18.9993C19.3173 24.0359 19.6163 23.8849 19.8053 23.6289C19.9943 23.3729 20.0493 23.0419 19.9543 22.7379C18.8913 19.3279 15.6943 17.0359 11.9993 17.0359ZM14.9333 11.0359H17.2873C17.4223 10.5589 17.4993 10.0569 17.4993 9.53592C17.4993 6.49792 15.0373 4.03592 11.9993 4.03592C8.96132 4.03592 6.49932 6.49792 6.49932 9.53592C6.49932 11.0269 7.09532 12.3769 8.05832 13.3679C8.17932 11.3019 9.87732 9.65892 11.9743 9.65892C13.1653 9.65892 14.2153 10.1999 14.9343 11.0359H14.9333Z" fill="url(#paint0_radial_819_244)"/>
</g>
<defs>
<radialGradient id="paint0_radial_819_244" cx="0" cy="0" r="1" gradientUnits="userSpaceOnUse" gradientTransform="translate(12.0661 12.036) rotate(88.3591) scale(14.1267 11.2043)">
<stop stop-color="#90BAFF"/>
<stop offset="1" stop-color="#67A1FF"/>
</radialGradient>
<clipPath id="clip0_819_244">
<rect width="24" height="24" fill="white" transform="translate(0 0.0359192)"/>
</clipPath>
</defs>
</svg>
