<svg width="24" height="24" viewBox="0 0 24 24" fill="none" xmlns="http://www.w3.org/2000/svg">
<g clip-path="url(#clip0_585_339)">
<path d="M18 12C14.686 12 12 14.686 12 18C12 21.314 14.686 24 18 24C21.314 24 24 21.314 24 18C24 14.686 21.314 12 18 12ZM17 15C17 14.447 17.448 14 18 14C18.552 14 19 14.447 19 15V17C19 17.553 18.552 18 18 18C17.448 18 17 17.553 17 17V15ZM18 22C17.172 22 16.5 21.328 16.5 20.5C16.5 19.672 17.172 19 18 19C18.828 19 19.5 19.672 19.5 20.5C19.5 21.328 18.828 22 18 22ZM11.961 23.236C11.5 23.461 11.095 23.638 10.793 23.76C10.793 23.76 10.5 24 10.002 24C9.504 24 9.152 23.693 9.152 23.693C7.005 22.62 0 18.606 0 12.043V6.872C0 4.713 1.377 2.806 3.426 2.126L9.685 0.051C9.89 -0.017 10.11 -0.017 10.315 0.051L16.574 2.126C18.623 2.806 20 4.713 20 6.872V10.262C19.36 10.097 18.692 10 18 10C13.582 10 10 13.582 10 18C10 20.005 10.743 21.832 11.961 23.236Z" fill="url(#paint0_radial_585_339)"/>
</g>
<defs>
<radialGradient id="paint0_radial_585_339" cx="0" cy="0" r="1" gradientUnits="userSpaceOnUse" gradientTransform="translate(12 12) rotate(87.913) scale(14.1303 14.2494)">
<stop stop-color="#90BAFF"/>
<stop offset="1" stop-color="#67A1FF"/>
</radialGradient>
<clipPath id="clip0_585_339">
<rect width="24" height="24" fill="white"/>
</clipPath>
</defs>
</svg>
