<svg width="24" height="24" viewBox="0 0 24 24" fill="none" xmlns="http://www.w3.org/2000/svg">
<g clip-path="url(#clip0_821_581)">
<path d="M14 12C14 13.103 13.103 14 12 14C10.897 14 10 13.103 10 12C10 10.897 10.897 9.99999 12 9.99999C13.103 9.99999 14 10.897 14 12ZM24.001 6.99999V19.285L23.414 19.551C23.283 19.611 20.181 21 17.001 21C15.361 21 13.513 20.472 11.726 19.961C10.072 19.488 8.361 19 7.001 19C4.27 19 1.452 20.303 1.423 20.315L0 20.981V7.15799C0 6.02999 0.618 5.00999 1.615 4.49499C2.94 3.81199 4.948 2.99899 7.001 2.99899C8.663 2.99899 10.267 3.53399 11.817 4.04999C13.28 4.53799 14.662 4.99899 16 4.99899C17.386 4.99899 18.517 4.63699 19.426 4.34599C19.728 4.24899 20.003 4.16099 20.254 4.09499C21.152 3.85599 22.089 4.04699 22.827 4.61499C23.573 5.18899 24.001 6.05899 24.001 6.99999ZM5 15C5 14.448 4.552 14 4 14C3.448 14 3 14.448 3 15C3 15.552 3.448 16 4 16C4.552 16 5 15.552 5 15ZM5 7.99999C5 7.44799 4.552 6.99999 4 6.99999C3.448 6.99999 3 7.44799 3 7.99999C3 8.55199 3.448 8.99999 4 8.99999C4.552 8.99999 5 8.55199 5 7.99999ZM16 12C16 9.79399 14.206 7.99999 12 7.99999C9.794 7.99999 8 9.79399 8 12C8 14.206 9.794 16 12 16C14.206 16 16 14.206 16 12ZM21 16C21 15.448 20.552 15 20 15C19.448 15 19 15.448 19 16C19 16.552 19.448 17 20 17C20.552 17 21 16.552 21 16ZM21 8.99999C21 8.44799 20.552 7.99999 20 7.99999C19.448 7.99999 19 8.44799 19 8.99999C19 9.55199 19.448 9.99999 20 9.99999C20.552 9.99999 21 9.55199 21 8.99999Z" fill="url(#paint0_radial_821_581)"/>
</g>
<defs>
<radialGradient id="paint0_radial_821_581" cx="0" cy="0" r="1" gradientUnits="userSpaceOnUse" gradientTransform="translate(12.0005 11.9995) rotate(87.2183) scale(10.6038 14.2426)">
<stop stop-color="#7CEF35"/>
<stop offset="1" stop-color="#5BBE1E"/>
</radialGradient>
<clipPath id="clip0_821_581">
<rect width="24" height="24" fill="white"/>
</clipPath>
</defs>
</svg>
