<svg width="24" height="25" viewBox="0 0 24 25" fill="none" xmlns="http://www.w3.org/2000/svg">
<g clip-path="url(#clip0_819_207)">
<path d="M18 12.0359C14.686 12.0359 12 14.7219 12 18.0359C12 21.3499 14.686 24.0359 18 24.0359C21.314 24.0359 24 21.3499 24 18.0359C24 14.7219 21.314 12.0359 18 12.0359ZM17 15.0359C17 14.4829 17.448 14.0359 18 14.0359C18.552 14.0359 19 14.4829 19 15.0359V17.0359C19 17.5889 18.552 18.0359 18 18.0359C17.448 18.0359 17 17.5889 17 17.0359V15.0359ZM18 22.0359C17.172 22.0359 16.5 21.3639 16.5 20.5359C16.5 19.7079 17.172 19.0359 18 19.0359C18.828 19.0359 19.5 19.7079 19.5 20.5359C19.5 21.3639 18.828 22.0359 18 22.0359ZM11.961 23.2719C11.5 23.4969 11.095 23.6739 10.793 23.7959C10.793 23.7959 10.5 24.0359 10.002 24.0359C9.504 24.0359 9.152 23.7289 9.152 23.7289C7.005 22.6559 0 18.6419 0 12.0789V6.90792C0 4.74892 1.377 2.84192 3.426 2.16192L9.685 0.0869192C9.89 0.0189192 10.11 0.0189192 10.315 0.0869192L16.574 2.16192C18.623 2.84192 20 4.74892 20 6.90792V10.2979C19.36 10.1329 18.692 10.0359 18 10.0359C13.582 10.0359 10 13.6179 10 18.0359C10 20.0409 10.743 21.8679 11.961 23.2719Z" fill="url(#paint0_radial_819_207)"/>
</g>
<defs>
<radialGradient id="paint0_radial_819_207" cx="0" cy="0" r="1" gradientUnits="userSpaceOnUse" gradientTransform="translate(12 12.0359) rotate(87.913) scale(14.1303 14.2494)">
<stop stop-color="#FFA7A7"/>
<stop offset="1" stop-color="#FF6767"/>
</radialGradient>
<clipPath id="clip0_819_207">
<rect width="24" height="24" fill="white" transform="translate(0 0.0359192)"/>
</clipPath>
</defs>
</svg>
