<svg width="36" height="36" viewBox="0 0 36 36" fill="none" xmlns="http://www.w3.org/2000/svg">
<rect width="36" height="36" rx="10" fill="url(#paint0_radial_210_2426)"/>
<g clip-path="url(#clip0_210_2426)">
<path d="M9 22.75V13.5416C9 11.9791 10.2708 10.7083 11.8333 10.7083H13.25C13.5787 10.7083 13.9073 10.7855 14.2006 10.9321L16.4354 12.0499C16.5331 12.0988 16.6429 12.1243 16.752 12.1243H20.3333C22.2862 12.1243 23.875 13.7131 23.875 15.6659H16.1003C14.2318 15.6659 12.5565 16.9169 12.0246 18.7139L10.1312 25.329C9.43917 24.6823 9 23.7693 9 22.75ZM25.6409 17.8037C25.3016 17.3482 24.7845 17.0869 24.2185 17.0776C24.2079 17.0776 24.1994 17.0833 24.1888 17.0833H16.1003C14.8551 17.0833 13.738 17.917 13.3846 19.1106L11.3885 26.0827C11.7519 26.2088 12.1358 26.2916 12.5417 26.2916H21.4369C23.0137 26.2916 24.3765 25.2773 24.8383 23.7367L25.9235 19.4045C26.0893 18.8506 25.9858 18.2676 25.6409 17.8037Z" fill="white"/>
</g>
<defs>
<radialGradient id="paint0_radial_210_2426" cx="0" cy="0" r="1" gradientUnits="userSpaceOnUse" gradientTransform="translate(18 18) rotate(87.913) scale(21.1955 21.374)">
<stop stop-color="#90BAFF"/>
<stop offset="1" stop-color="#67A1FF"/>
</radialGradient>
<clipPath id="clip0_210_2426">
<rect width="17" height="17" fill="white" transform="translate(9 10)"/>
</clipPath>
</defs>
</svg>
