<svg width="98" height="58" viewBox="0 0 98 58" fill="none" xmlns="http://www.w3.org/2000/svg">
<circle opacity="0.2" cx="48.5" cy="50" r="37.5" fill="white" fill-opacity="0.34"/>
<circle opacity="0.2" cx="49" cy="49.5" r="49" fill="white" fill-opacity="0.34"/>
<circle cx="48.4998" cy="49.9991" r="25" fill="white"/>
<path d="M46.764 45.3266C46.6533 45.4379 46.5024 45.5 46.3456 45.5C46.1887 45.5 46.0378 45.4379 45.9272 45.3266L42.5858 41.9846C42.239 41.6378 42.239 41.0756 42.5858 40.7294L43.0042 40.311C43.351 39.9642 43.9126 39.9642 44.2594 40.311L46.3456 42.3971L51.9826 36.7601C52.3294 36.4133 52.8916 36.4133 53.2378 36.7601L53.6562 37.1785C54.003 37.5253 54.003 38.0875 53.6562 38.4337L46.764 45.3266Z" fill="#67A1FF"/>
</svg>
