<svg width="19" height="19" viewBox="0 0 19 19" fill="none" xmlns="http://www.w3.org/2000/svg">
<g clip-path="url(#clip0_743_443)">
<path d="M15.0417 0H3.95833C1.77571 0 0 1.77571 0 3.95833V15.0417C0 17.2243 1.77571 19 3.95833 19H15.0417C17.2243 19 19 17.2243 19 15.0417V3.95833C19 1.77571 17.2243 0 15.0417 0ZM9.5 15.0417C8.8445 15.0417 8.3125 14.5097 8.3125 13.8542C8.3125 13.1987 8.8445 12.6667 9.5 12.6667C10.1555 12.6667 10.6875 13.1987 10.6875 13.8542C10.6875 14.5097 10.1555 15.0417 9.5 15.0417ZM11.0263 9.88633C10.6139 10.1135 10.2917 10.64 10.2917 11.0833C10.2917 11.5211 9.937 11.875 9.5 11.875C9.063 11.875 8.70833 11.5211 8.70833 11.0833C8.70833 10.0668 9.34721 9.00442 10.2624 8.49933C10.8664 8.16683 11.1783 7.50658 11.0572 6.81704C10.948 6.194 10.416 5.66279 9.79371 5.55354C9.31396 5.46883 8.84767 5.59075 8.48271 5.89792C8.1225 6.19954 7.91667 6.64208 7.91667 7.11154C7.91667 7.54854 7.562 7.90321 7.125 7.90321C6.688 7.90321 6.33333 7.54854 6.33333 7.11154C6.33333 6.17342 6.74579 5.28913 7.46462 4.68588C8.18346 4.08263 9.13425 3.83325 10.0668 3.99475C11.3438 4.218 12.3928 5.26617 12.6168 6.54392C12.8527 7.88896 12.2138 9.23163 11.0263 9.88633Z" fill="#D1D1D1"/>
</g>
<defs>
<clipPath id="clip0_743_443">
<rect width="19" height="19" fill="white"/>
</clipPath>
</defs>
</svg>
