<svg width="25" height="26" viewBox="0 0 25 26" fill="none" xmlns="http://www.w3.org/2000/svg">
<g clip-path="url(#clip0_170_7322)">
<path d="M19.5209 0.902588H5.21119C2.3932 0.902588 0.100586 3.1952 0.100586 6.01319V20.3229C0.100586 23.1409 2.3932 25.4335 5.21119 25.4335H19.5209C22.3388 25.4335 24.6315 23.1409 24.6315 20.3229V6.01319C24.6315 3.1952 22.3388 0.902588 19.5209 0.902588ZM12.366 20.3229C11.5197 20.3229 10.8328 19.636 10.8328 18.7897C10.8328 17.9434 11.5197 17.2565 12.366 17.2565C13.2123 17.2565 13.8992 17.9434 13.8992 18.7897C13.8992 19.636 13.2123 20.3229 12.366 20.3229ZM14.3367 13.6668C13.8041 13.9602 13.3881 14.6399 13.3881 15.2123C13.3881 15.7775 12.9302 16.2344 12.366 16.2344C11.8018 16.2344 11.3439 15.7775 11.3439 15.2123C11.3439 13.8999 12.1688 12.5282 13.3503 11.8761C14.1302 11.4468 14.5329 10.5943 14.3765 9.70406C14.2355 8.89965 13.5486 8.21381 12.7452 8.07276C12.1258 7.96339 11.5238 8.1208 11.0526 8.51738C10.5875 8.90681 10.3218 9.47817 10.3218 10.0843C10.3218 10.6485 9.86388 11.1064 9.29966 11.1064C8.73545 11.1064 8.27754 10.6485 8.27754 10.0843C8.27754 8.87308 8.81007 7.73137 9.73815 6.95252C10.6662 6.17366 11.8938 5.85169 13.0979 6.0602C14.7465 6.34844 16.1009 7.70173 16.3901 9.35143C16.6947 11.088 15.8699 12.8215 14.3367 13.6668Z" fill="white"/>
</g>
<defs>
<clipPath id="clip0_170_7322">
<rect width="24.5309" height="24.5309" fill="white" transform="translate(0.100586 0.902588)"/>
</clipPath>
</defs>
</svg>
