<svg width="70" height="70" viewBox="0 0 70 70" fill="none" xmlns="http://www.w3.org/2000/svg">
<rect opacity="0.15" width="70" height="70" rx="19.8113" fill="url(#paint0_radial_212_2603)"/>
<rect x="9.24512" y="9.24527" width="51.5094" height="51.5094" rx="19.8113" fill="url(#paint1_radial_212_2603)"/>
<g clip-path="url(#clip0_212_2603)">
<path d="M30.875 25.8333C30.875 23.1641 34.9326 21 39.9375 21C44.9424 21 49 23.1641 49 25.8333C49 28.5025 44.9424 30.6667 39.9375 30.6667C34.9326 30.6667 30.875 28.5025 30.875 25.8333ZM39.9375 33.0833C38.6965 33.0833 37.5196 32.9444 36.4442 32.7027C34.8021 31.4714 32.1111 30.6667 29.0625 30.6667C24.0576 30.6667 20 32.8308 20 35.5C20 38.1692 24.0576 40.3333 29.0625 40.3333C34.0674 40.3333 38.125 38.1692 38.125 35.5C38.125 35.465 38.1165 35.4311 38.1153 35.3961H38.125V37.9167C38.125 40.5859 34.0674 42.75 29.0625 42.75C24.0576 42.75 20 40.5859 20 37.9167V40.3333C20 43.0025 24.0576 45.1667 29.0625 45.1667C34.0674 45.1667 38.125 43.0025 38.125 40.3333V42.75C38.125 45.4192 34.0674 47.5833 29.0625 47.5833C24.0576 47.5833 20 45.4192 20 42.75V45.1667C20 47.8359 24.0576 50 29.0625 50C34.0674 50 38.125 47.8359 38.125 45.1667V45.07C38.711 45.1328 39.3164 45.1667 39.9375 45.1667C44.9424 45.1667 49 43.0025 49 40.3333V37.9167C49 40.4771 45.2638 42.5675 40.5417 42.7343V40.3176C45.2638 40.1509 49 38.0617 49 35.5V33.0833C49 35.6438 45.2638 37.7342 40.5417 37.901V35.4843C45.2638 35.3175 49 33.2283 49 30.6667V28.25C49 30.9192 44.9424 33.0833 39.9375 33.0833Z" fill="white"/>
</g>
<defs>
<radialGradient id="paint0_radial_212_2603" cx="0" cy="0" r="1" gradientUnits="userSpaceOnUse" gradientTransform="translate(35 35) rotate(87.913) scale(41.2134 41.5606)">
<stop stop-color="#7CEF35"/>
<stop offset="1" stop-color="#5BBE1E"/>
</radialGradient>
<radialGradient id="paint1_radial_212_2603" cx="0" cy="0" r="1" gradientUnits="userSpaceOnUse" gradientTransform="translate(34.9998 35) rotate(87.913) scale(30.3268 30.5823)">
<stop stop-color="#7CEF35"/>
<stop offset="1" stop-color="#5BBE1E"/>
</radialGradient>
<clipPath id="clip0_212_2603">
<rect width="29" height="29" fill="white" transform="translate(20 21)"/>
</clipPath>
</defs>
</svg>
