<svg width="70" height="70" viewBox="0 0 70 70" fill="none" xmlns="http://www.w3.org/2000/svg">
<rect opacity="0.15" width="70" height="70" rx="19.8113" fill="url(#paint0_radial_212_2615)"/>
<rect x="9.24512" y="9.24527" width="51.5094" height="51.5094" rx="19.8113" fill="url(#paint1_radial_212_2615)"/>
<g clip-path="url(#clip0_212_2615)">
<path d="M47.5547 31.1015H39.1253C37.1267 31.1015 35.5003 29.475 35.5003 27.4764V19.0459C35.3058 19.0326 35.1112 19.0169 34.9143 19.0169H29.4587C26.1273 19.0181 23.417 21.7284 23.417 25.0598V41.9764C23.417 45.3078 26.1273 48.0181 29.4587 48.0181H41.542C44.8734 48.0181 47.5837 45.3078 47.5837 41.9764V31.6875C47.5837 31.4905 47.5679 31.296 47.5547 31.1015ZM34.292 33.5C34.292 32.833 34.8333 32.2917 35.5003 32.2917C36.1673 32.2917 36.7087 32.833 36.7087 33.5V37.7292C36.7087 38.3962 36.1673 38.9375 35.5003 38.9375C34.8333 38.9375 34.292 38.3962 34.292 37.7292V33.5ZM35.5003 44.375C34.4998 44.375 33.6878 43.563 33.6878 42.5625C33.6878 41.562 34.4998 40.75 35.5003 40.75C36.5008 40.75 37.3128 41.562 37.3128 42.5625C37.3128 43.563 36.5008 44.375 35.5003 44.375ZM37.917 27.4764V19.5727C39.0202 19.9908 40.0352 20.6349 40.8955 21.494L45.1054 25.7062C45.9657 26.5654 46.6097 27.5804 47.0278 28.6836H39.1253C38.4583 28.6836 37.917 28.1422 37.917 27.4764Z" fill="white"/>
</g>
<defs>
<radialGradient id="paint0_radial_212_2615" cx="0" cy="0" r="1" gradientUnits="userSpaceOnUse" gradientTransform="translate(35 35) rotate(87.913) scale(41.2134 41.5606)">
<stop stop-color="#FFA7A7"/>
<stop offset="1" stop-color="#FF6767"/>
</radialGradient>
<radialGradient id="paint1_radial_212_2615" cx="0" cy="0" r="1" gradientUnits="userSpaceOnUse" gradientTransform="translate(34.9998 35) rotate(87.913) scale(30.3268 30.5823)">
<stop stop-color="#FFA7A7"/>
<stop offset="1" stop-color="#FF6767"/>
</radialGradient>
<clipPath id="clip0_212_2615">
<rect width="29" height="29" fill="white" transform="translate(21 19)"/>
</clipPath>
</defs>
</svg>
