<svg width="19" height="19" viewBox="0 0 19 19" fill="none" xmlns="http://www.w3.org/2000/svg">
<g clip-path="url(#clip0_743_440)">
<path d="M14.8149 9.49998H11.0838C10.2093 9.49998 9.50042 8.79108 9.50042 7.91663V4.17523C9.50261 3.43712 9.16147 2.73991 8.57733 2.2887C8.02381 1.85036 7.29802 1.69413 6.6132 1.86595C1.95858 3.02139 -0.878103 7.73142 0.277372 12.3861C1.09144 15.6655 3.73392 18.175 7.05102 18.8187C11.5824 19.6861 16.0039 16.8687 17.1321 12.3951C17.3046 11.7094 17.1486 10.9825 16.7101 10.4278C16.2537 9.84472 15.5554 9.5028 14.8149 9.49998Z" fill="#D1D1D1"/>
<path d="M18.7239 5.89474C18.5432 5.22298 18.274 4.57821 17.9235 3.97733C16.8693 2.1687 15.1471 0.84623 13.1276 0.294488C12.9946 0.258603 12.6969 0.237488 12.6969 0.237488C12.5906 0.237525 12.1325 0.237488 11.7699 0.531209C11.237 0.950582 11.1532 1.42736 11.1453 1.46458C11.1176 1.58133 11.1033 1.70086 11.1025 1.82083V5.54168C11.1025 6.85335 12.1659 7.91668 13.4775 7.91668H17.2134C17.709 7.91809 18.1755 7.68278 18.469 7.28333C18.686 6.99073 18.7977 6.63329 18.7857 6.26921C18.7794 6.14244 18.7586 6.01679 18.7239 5.89474Z" fill="#D1D1D1"/>
</g>
<defs>
<clipPath id="clip0_743_440">
<rect width="19" height="19" fill="white"/>
</clipPath>
</defs>
</svg>
