<svg width="62" height="62" viewBox="0 0 62 62" fill="none" xmlns="http://www.w3.org/2000/svg">
<g clip-path="url(#clip0_113_2354)">
<path d="M13.4991 32.7667H17.7899C13.6683 27.4287 13.6687 18.8988 17.79 13.5611H13.985C21.2826 0.278569 40.751 0.287661 48.0449 13.5611H44.2394C48.361 18.8991 48.3607 27.429 44.2394 32.7667H48.53C51.6789 32.7667 54.2406 30.205 54.2406 27.0563V19.2716C54.2406 17.9521 53.7895 16.7367 53.0351 15.7685C45.7527 -5.23804 16.3031 -5.27441 8.99381 15.7689C8.23962 16.7369 7.78857 17.9522 7.78857 19.2715V27.0562C7.78857 30.205 10.3503 32.7667 13.4991 32.7667Z" fill="white"/>
<path d="M56.6225 56.499C54.4105 46.3314 45.1234 35.8794 31.0139 35.8779C17.4783 35.8779 7.75526 45.7303 5.38309 56.4692C4.77677 59.3196 6.95524 62.0011 9.86161 62C19.0108 62 43.3146 62 52.1662 61.9718C55.0508 61.9718 57.2065 59.3239 56.6225 56.499Z" fill="white"/>
<path d="M34.9069 27.1841H43.0768C45.8917 19.1855 39.5312 10.2953 31.0144 10.4501C24.0039 10.4499 18.3005 16.1533 18.3005 23.1638C18.3268 35.3552 33.9367 40.4422 41.1576 30.8206H34.9069C32.498 30.7316 32.4981 27.273 34.9069 27.1841Z" fill="white"/>
</g>
<defs>
<clipPath id="clip0_113_2354">
<rect width="62" height="62" fill="white"/>
</clipPath>
</defs>
</svg>
