<svg width="270" height="72" viewBox="0 0 270 72" fill="none" xmlns="http://www.w3.org/2000/svg">
<rect width="270" height="72" rx="12.5031" fill="white"/>
<path d="M83.7312 31.025V28.5H98.0563V31.025H92.2563V46H89.5062V31.025H83.7312ZM96.9934 39.85C96.9934 38 97.5767 36.4667 98.7434 35.25C99.9267 34.0167 101.443 33.4 103.293 33.4C104.56 33.4 105.635 33.7333 106.518 34.4C108.252 35.6333 109.118 37.4833 109.118 39.95V40.65H99.7184C99.885 41.6833 100.377 42.4917 101.193 43.075C102.027 43.6583 103.077 43.95 104.343 43.95C105.743 43.95 107.06 43.5833 108.293 42.85V45.125C107.16 45.925 105.652 46.325 103.768 46.325C101.885 46.325 100.277 45.725 98.9434 44.525C97.6434 43.325 96.9934 41.7667 96.9934 39.85ZM99.7434 38.6H106.393C106.36 37.8333 106.068 37.1583 105.518 36.575C104.952 35.975 104.168 35.675 103.168 35.675C102.218 35.675 101.427 35.9583 100.793 36.525C100.177 37.075 99.8267 37.7667 99.7434 38.6ZM115.25 46.325C114.3 46.325 113.55 46.0667 113 45.55C112.45 45.0167 112.175 44.2 112.175 43.1V28.5H114.875V42.35C114.875 43.35 115.325 43.85 116.225 43.85C116.625 43.85 116.967 43.7667 117.25 43.6V45.925C116.733 46.1917 116.067 46.325 115.25 46.325ZM118.942 39.85C118.942 38 119.525 36.4667 120.692 35.25C121.875 34.0167 123.392 33.4 125.242 33.4C126.508 33.4 127.583 33.7333 128.467 34.4C130.2 35.6333 131.067 37.4833 131.067 39.95V40.65H121.667C121.833 41.6833 122.325 42.4917 123.142 43.075C123.975 43.6583 125.025 43.95 126.292 43.95C127.692 43.95 129.008 43.5833 130.242 42.85V45.125C129.108 45.925 127.6 46.325 125.717 46.325C123.833 46.325 122.225 45.725 120.892 44.525C119.592 43.325 118.942 41.7667 118.942 39.85ZM121.692 38.6H128.342C128.308 37.8333 128.017 37.1583 127.467 36.575C126.9 35.975 126.117 35.675 125.117 35.675C124.167 35.675 123.375 35.9583 122.742 36.525C122.125 37.075 121.775 37.7667 121.692 38.6ZM143.573 35.325V33.725H146.273V44.9C146.273 46.9167 145.598 48.4583 144.248 49.525C142.932 50.5917 141.307 51.125 139.373 51.125C137.457 51.125 135.857 50.7583 134.573 50.025V47.55C135.89 48.35 137.39 48.75 139.073 48.75C140.44 48.75 141.532 48.4333 142.348 47.8C143.165 47.1667 143.573 46.2167 143.573 44.95V44.025C142.54 45.3083 141.082 45.95 139.198 45.95C137.465 45.95 136.04 45.3417 134.923 44.125C133.807 42.9083 133.248 41.4167 133.248 39.65C133.248 37.8833 133.807 36.4083 134.923 35.225C136.04 34.0083 137.465 33.4 139.198 33.4C141.115 33.4 142.573 34.0417 143.573 35.325ZM139.923 43.575C140.707 43.575 141.432 43.3833 142.098 43C142.765 42.6 143.257 42.0917 143.573 41.475V37.9C143.257 37.2667 142.765 36.7583 142.098 36.375C141.448 35.975 140.723 35.775 139.923 35.775C138.79 35.775 137.848 36.15 137.098 36.9C136.348 37.65 135.973 38.575 135.973 39.675C135.973 40.775 136.348 41.7 137.098 42.45C137.848 43.2 138.79 43.575 139.923 43.575ZM152.741 46H150.041V33.725H152.741V35.85C153.158 35.1333 153.783 34.55 154.616 34.1C155.45 33.6333 156.333 33.4 157.266 33.4C157.383 33.4 157.466 33.4083 157.516 33.425V36.125C157.216 36.0917 156.966 36.075 156.766 36.075C155.85 36.075 155.025 36.3083 154.291 36.775C153.558 37.2417 153.041 37.8083 152.741 38.475V46ZM171.503 43.9C171.769 43.9 172.011 43.8417 172.228 43.725V45.775C171.861 46.0417 171.336 46.175 170.653 46.175C169.253 46.175 168.394 45.5917 168.078 44.425C166.961 45.6917 165.453 46.325 163.553 46.325C162.236 46.325 161.136 45.9583 160.253 45.225C159.386 44.5083 158.953 43.5 158.953 42.2C158.953 40.9 159.428 39.9 160.378 39.2C161.311 38.4833 162.478 38.125 163.878 38.125C165.361 38.125 166.669 38.4417 167.803 39.075V38.4C167.803 36.6167 166.603 35.725 164.203 35.725C162.803 35.725 161.511 36.0917 160.328 36.825V34.45C161.544 33.75 163.036 33.4 164.803 33.4C166.536 33.4 167.911 33.8167 168.928 34.65C169.961 35.4667 170.478 36.6167 170.478 38.1V42.675C170.478 43.0583 170.569 43.3583 170.753 43.575C170.953 43.7917 171.203 43.9 171.503 43.9ZM167.803 42.525V41.025C166.769 40.4417 165.678 40.15 164.528 40.15C163.628 40.15 162.919 40.3167 162.403 40.65C161.903 40.9833 161.653 41.45 161.653 42.05C161.653 42.6833 161.886 43.1667 162.353 43.5C162.836 43.8333 163.486 44 164.303 44C164.969 44 165.619 43.8667 166.253 43.6C166.886 43.3167 167.403 42.9583 167.803 42.525ZM177.595 46H174.895V33.725H177.595V35.325C178.528 34.0417 179.878 33.4 181.645 33.4C182.595 33.4 183.411 33.6 184.095 34C184.778 34.4 185.253 34.9333 185.52 35.6C185.97 34.9333 186.586 34.4 187.37 34C188.17 33.6 189.045 33.4 189.995 33.4C191.361 33.4 192.428 33.825 193.195 34.675C193.961 35.525 194.345 36.7417 194.345 38.325V46H191.645V38.95C191.645 36.9333 190.811 35.925 189.145 35.925C188.495 35.925 187.87 36.125 187.27 36.525C186.686 36.9083 186.261 37.3917 185.995 37.975V46H183.295V38.95C183.295 36.9333 182.453 35.925 180.77 35.925C180.136 35.925 179.52 36.1167 178.92 36.5C178.336 36.8667 177.895 37.3333 177.595 37.9V46ZM205.986 46H203.061L210.711 28.4H213.361L221.011 46H218.061L216.161 41.65H207.861L205.986 46ZM212.011 31.875L208.811 39.225H215.211L212.011 31.875ZM228.31 46.325C226.576 46.325 225.151 45.7 224.035 44.45C222.918 43.2167 222.36 41.6833 222.36 39.85C222.36 38.0333 222.918 36.5083 224.035 35.275C225.151 34.025 226.576 33.4 228.31 33.4C230.193 33.4 231.651 34.0667 232.685 35.4V28.5H235.385V46H232.685V44.325C231.651 45.6583 230.193 46.325 228.31 46.325ZM229.035 43.95C229.818 43.95 230.535 43.75 231.185 43.35C231.835 42.9333 232.335 42.4 232.685 41.75V37.95C232.335 37.3167 231.826 36.8 231.16 36.4C230.51 35.9833 229.801 35.775 229.035 35.775C227.901 35.775 226.96 36.175 226.21 36.975C225.46 37.7583 225.085 38.7167 225.085 39.85C225.085 41 225.46 41.975 226.21 42.775C226.96 43.5583 227.901 43.95 229.035 43.95ZM243.601 46.325C241.417 46.325 239.709 45.9083 238.476 45.075V42.525C239.909 43.5083 241.576 44 243.476 44C244.326 44 244.984 43.875 245.451 43.625C245.934 43.3583 246.176 43 246.176 42.55C246.176 42.15 245.926 41.825 245.426 41.575C245.209 41.475 244.817 41.35 244.251 41.2L242.726 40.825C241.276 40.4583 240.226 39.9917 239.576 39.425C238.926 38.8417 238.601 38.0333 238.601 37C238.601 35.8833 239.059 35.0083 239.976 34.375C240.892 33.725 242.167 33.4 243.801 33.4C245.684 33.4 247.192 33.7667 248.326 34.5V36.975C246.842 36.1417 245.367 35.725 243.901 35.725C243.084 35.725 242.459 35.85 242.026 36.1C241.592 36.3333 241.376 36.6583 241.376 37.075C241.376 37.4583 241.634 37.7833 242.151 38.05C242.217 38.0833 242.609 38.2083 243.326 38.425L244.751 38.725C247.551 39.3417 248.951 40.6333 248.951 42.6C248.951 43.7167 248.459 44.6167 247.476 45.3C246.492 45.9833 245.201 46.325 243.601 46.325Z" fill="black"/>
<path d="M45 8.8125C39.6228 8.8125 34.3664 10.407 29.8954 13.3944C25.4245 16.3818 21.9398 20.6279 19.882 25.5958C17.8243 30.5637 17.2859 36.0302 18.3349 41.304C19.3839 46.5779 21.9733 51.4222 25.7755 55.2245C29.5778 59.0267 34.4221 61.6161 39.696 62.6651C44.9699 63.7141 50.4364 63.1757 55.4042 61.118C60.3721 59.0602 64.6182 55.5755 67.6056 51.1046C70.593 46.6336 72.1875 41.3772 72.1875 36C72.1849 28.7902 69.3197 21.8765 64.2216 16.7784C59.1235 11.6803 52.2098 8.81511 45 8.8125ZM59.5 24.4362L48.2625 52.5481C48.1006 52.9537 47.8242 53.3033 47.4669 53.5543C47.1097 53.8054 46.687 53.947 46.2506 53.9619H46.16C45.7404 53.9665 45.3282 53.8512 44.9719 53.6297C44.6155 53.4082 44.3297 53.0895 44.1481 52.7113L41.5019 47.4369C41.176 46.7808 41.0681 46.0379 41.1938 45.3162L42.3356 38.7731L42.2269 38.6644L35.7019 39.8063C34.9824 39.9485 34.2361 39.8464 33.5813 39.5163L28.2888 36.8519C27.8991 36.6582 27.5737 36.356 27.3518 35.9816C27.13 35.6072 27.0211 35.1767 27.0384 34.7419C27.0556 34.3071 27.1982 33.8865 27.449 33.5309C27.6998 33.1752 28.0481 32.8997 28.4519 32.7375L56.5638 21.5C56.9741 21.3392 57.4224 21.3016 57.8538 21.3918C58.2852 21.4819 58.6809 21.6959 58.9925 22.0075C59.3041 22.3191 59.5181 22.7149 59.6083 23.1462C59.6984 23.5776 59.6608 24.0259 59.5 24.4362Z" fill="#57C3F3"/>
</svg>
