<svg width="70" height="70" viewBox="0 0 70 70" fill="none" xmlns="http://www.w3.org/2000/svg">
<rect opacity="0.15" width="70" height="70" rx="19.8113" fill="url(#paint0_radial_212_2566)"/>
<rect x="9.24512" y="9.2453" width="51.5094" height="51.5094" rx="19.8113" fill="url(#paint1_radial_212_2566)"/>
<path d="M21.9415 42.75C22.941 44.4847 25.1575 45.0806 26.8922 44.0812C26.8934 44.0805 26.8945 44.0798 26.8957 44.0791L27.4334 43.7686C28.4484 44.637 29.6151 45.3104 30.8747 45.7551V46.375C30.8747 48.377 32.4977 50 34.4997 50C36.5017 50 38.1247 48.377 38.1247 46.375V45.7551C39.3845 45.3098 40.5512 44.6355 41.566 43.7662L42.1061 44.0779C43.8412 45.0789 46.0593 44.4839 47.0603 42.7488C48.0613 41.0137 47.4663 38.7956 45.7311 37.7946L45.1946 37.4853C45.4362 36.1711 45.4362 34.824 45.1946 33.5098L45.7311 33.2005C47.4662 32.1995 48.0613 29.9814 47.0603 28.2463C46.0593 26.5112 43.8413 25.9161 42.1061 26.9171L41.5685 27.2277C40.5524 26.3604 39.385 25.6881 38.1247 25.2449V24.625C38.1247 22.623 36.5017 21 34.4997 21C32.4977 21 30.8747 22.623 30.8747 24.625V25.2449C29.6149 25.6902 28.4482 26.3645 27.4334 27.2338L26.8933 26.9209C25.1581 25.9198 22.9401 26.5149 21.9391 28.25C20.9381 29.9851 21.5331 32.2032 23.2683 33.2042L23.8048 33.5135C23.5632 34.8276 23.5632 36.1748 23.8048 37.4889L23.2683 37.7983C21.5379 38.8019 20.9448 41.0157 21.9415 42.75ZM34.4997 30.6667C37.1691 30.6667 39.333 32.8306 39.333 35.5C39.333 38.1694 37.1691 40.3333 34.4997 40.3333C31.8303 40.3333 29.6664 38.1694 29.6664 35.5C29.6664 32.8306 31.8303 30.6667 34.4997 30.6667Z" fill="white"/>
<defs>
<radialGradient id="paint0_radial_212_2566" cx="0" cy="0" r="1" gradientUnits="userSpaceOnUse" gradientTransform="translate(35 35) rotate(87.913) scale(41.2134 41.5606)">
<stop stop-color="#FFF1A3"/>
<stop offset="1" stop-color="#F9D200"/>
</radialGradient>
<radialGradient id="paint1_radial_212_2566" cx="0" cy="0" r="1" gradientUnits="userSpaceOnUse" gradientTransform="translate(34.9998 35) rotate(87.913) scale(30.3268 30.5823)">
<stop stop-color="#FFF1A3"/>
<stop offset="1" stop-color="#F9D200"/>
</radialGradient>
</defs>
</svg>
