<svg width="19" height="19" viewBox="0 0 19 19" fill="none" xmlns="http://www.w3.org/2000/svg">
<g clip-path="url(#clip0_747_505)">
<path d="M12.103 3.32743C11.7958 3.01631 11.799 2.51518 12.1101 2.20801L13.855 0.484557C14.5017 -0.15986 15.5555 -0.160652 16.2062 0.487723L17.9692 2.20406C18.2828 2.50885 18.2891 3.00997 17.9851 3.32347C17.8299 3.4826 17.6241 3.56256 17.4175 3.56256C17.218 3.56256 17.0193 3.48814 16.8657 3.33772L15.8341 2.33389V7.12506C15.8341 7.56206 15.4803 7.91672 15.0425 7.91672C14.6047 7.91672 14.2508 7.56206 14.2508 7.12506V2.31964L13.224 3.33377C12.9121 3.64093 12.4125 3.63856 12.1038 3.32664L12.103 3.32743ZM19 8.70839V16.6251C19 17.9345 17.9344 19.0001 16.625 19.0001H3.95833C1.77571 19.0001 0 17.2243 0 15.0417V7.12506C0 6.42285 0.183667 5.7626 0.505875 5.19022C0.521708 5.15856 0.539125 5.12768 0.558917 5.09839C1.25083 3.94256 2.51592 3.16672 3.95833 3.16672H9.5C9.93779 3.16672 10.2917 3.52139 10.2917 3.95839C10.2917 4.39539 9.93779 4.75006 9.5 4.75006H3.95833C3.25612 4.75006 2.62358 5.05643 2.18896 5.54252C2.63467 6.03889 3.27829 6.33339 3.95833 6.33339H12.6667V7.12506C12.6667 8.43447 13.7323 9.50006 15.0417 9.50006C16.3511 9.50006 17.4167 8.43447 17.4167 7.12506V6.47906C18.3358 6.80681 19 7.67764 19 8.70839ZM15.8333 12.6667C15.8333 12.0112 15.3013 11.4792 14.6458 11.4792C13.9903 11.4792 13.4583 12.0112 13.4583 12.6667C13.4583 13.3222 13.9903 13.8542 14.6458 13.8542C15.3013 13.8542 15.8333 13.3222 15.8333 12.6667Z" fill="#D1D1D1"/>
</g>
<defs>
<clipPath id="clip0_747_505">
<rect width="19" height="19" fill="white"/>
</clipPath>
</defs>
</svg>
